<?xml version="1.0" encoding="utf-8" standalone="no"?>
<!DOCTYPE svg PUBLIC "-//W3C//DTD SVG 1.1//EN"
  "http://www.w3.org/Graphics/SVG/1.1/DTD/svg11.dtd">
<!-- Created with matplotlib (http://matplotlib.org/) -->
<svg height="310pt" version="1.1" viewBox="0 0 251 310" width="251pt" xmlns="http://www.w3.org/2000/svg" xmlns:xlink="http://www.w3.org/1999/xlink">
 <defs>
  <style type="text/css">
*{stroke-linecap:butt;stroke-linejoin:round;stroke-miterlimit:100000;}
  </style>
 </defs>
 <g id="figure_1">
  <g id="patch_1">
   <path d="M 0 310.33869 
L 251.064 310.33869 
L 251.064 0 
L 0 0 
z
" style="fill:#ffffff;"/>
  </g>
  <g id="patch_2">
   <path d="M 31.383 279.304821 
L 225.9576 279.304821 
L 225.9576 31.033869 
L 31.383 31.033869 
z
" style="fill:#ffffff;"/>
  </g>
  <g id="pane3d_1">
   <g id="patch_3">
    <path d="M 57.17687 224.44569 
L 112.865138 163.575278 
L 111.937988 47.261911 
L 53.144733 101.952725 
" style="fill:#f2f2f2;opacity:0.5;stroke:#f2f2f2;stroke-linejoin:miter;"/>
   </g>
  </g>
  <g id="pane3d_2">
   <g id="patch_4">
    <path d="M 112.865138 163.575278 
L 203.074898 197.605766 
L 206.849166 77.785017 
L 111.937988 47.261911 
" style="fill:#e6e6e6;opacity:0.5;stroke:#e6e6e6;stroke-linejoin:miter;"/>
   </g>
  </g>
  <g id="pane3d_3">
   <g id="patch_5">
    <path d="M 57.17687 224.44569 
L 152.089726 264.079739 
L 203.074898 197.605766 
L 112.865138 163.575278 
" style="fill:#ececec;opacity:0.5;stroke:#ececec;stroke-linejoin:miter;"/>
   </g>
  </g>
  <g id="axis3d_1">
   <g id="line2d_1">
    <path d="M 57.17687 224.44569 
L 152.089726 264.079739 
" style="fill:none;stroke:#000000;stroke-linecap:square;stroke-width:0.75;"/>
   </g>
   <g id="Line3DCollection_1">
    <path d="M 63.361368 227.028235 
L 118.76164 165.799659 
L 118.129176 49.252976 
" style="fill:none;stroke:#e6e6e6;"/>
    <path d="M 76.583192 232.549451 
L 131.359103 170.551892 
L 131.362119 53.508645 
" style="fill:none;stroke:#e6e6e6;"/>
    <path d="M 89.9779 238.142861 
L 144.109278 175.361734 
L 144.763673 57.818538 
" style="fill:none;stroke:#e6e6e6;"/>
    <path d="M 103.548906 243.80989 
L 157.014958 180.230238 
L 158.33708 62.183699 
" style="fill:none;stroke:#e6e6e6;"/>
    <path d="M 117.299713 249.552001 
L 170.079006 185.158484 
L 172.085667 66.605197 
" style="fill:none;stroke:#e6e6e6;"/>
    <path d="M 131.233919 255.370696 
L 183.304355 190.14758 
L 186.012849 71.08413 
" style="fill:none;stroke:#e6e6e6;"/>
    <path d="M 145.355218 261.267519 
L 196.694011 195.198658 
L 200.122127 75.621625 
" style="fill:none;stroke:#e6e6e6;"/>
   </g>
   <g id="xtick_1">
    <g id="line2d_2">
     <path d="M 63.838677 226.500712 
L 62.404971 228.085249 
" style="fill:none;stroke:#000000;stroke-linecap:square;"/>
    </g>
    <g id="text_1">
     <!-- −0.6 -->
     <defs>
      <path d="M 31.78125 66.40625 
Q 24.171875 66.40625 20.328125 58.90625 
Q 16.5 51.421875 16.5 36.375 
Q 16.5 21.390625 20.328125 13.890625 
Q 24.171875 6.390625 31.78125 6.390625 
Q 39.453125 6.390625 43.28125 13.890625 
Q 47.125 21.390625 47.125 36.375 
Q 47.125 51.421875 43.28125 58.90625 
Q 39.453125 66.40625 31.78125 66.40625 
M 31.78125 74.21875 
Q 44.046875 74.21875 50.515625 64.515625 
Q 56.984375 54.828125 56.984375 36.375 
Q 56.984375 17.96875 50.515625 8.265625 
Q 44.046875 -1.421875 31.78125 -1.421875 
Q 19.53125 -1.421875 13.0625 8.265625 
Q 6.59375 17.96875 6.59375 36.375 
Q 6.59375 54.828125 13.0625 64.515625 
Q 19.53125 74.21875 31.78125 74.21875 
" id="BitstreamVeraSans-Roman-30"/>
      <path d="M 10.59375 35.5 
L 73.1875 35.5 
L 73.1875 27.203125 
L 10.59375 27.203125 
z
" id="BitstreamVeraSans-Roman-2212"/>
      <path d="M 10.6875 12.40625 
L 21 12.40625 
L 21 0 
L 10.6875 0 
z
" id="BitstreamVeraSans-Roman-2e"/>
      <path d="M 33.015625 40.375 
Q 26.375 40.375 22.484375 35.828125 
Q 18.609375 31.296875 18.609375 23.390625 
Q 18.609375 15.53125 22.484375 10.953125 
Q 26.375 6.390625 33.015625 6.390625 
Q 39.65625 6.390625 43.53125 10.953125 
Q 47.40625 15.53125 47.40625 23.390625 
Q 47.40625 31.296875 43.53125 35.828125 
Q 39.65625 40.375 33.015625 40.375 
M 52.59375 71.296875 
L 52.59375 62.3125 
Q 48.875 64.0625 45.09375 64.984375 
Q 41.3125 65.921875 37.59375 65.921875 
Q 27.828125 65.921875 22.671875 59.328125 
Q 17.53125 52.734375 16.796875 39.40625 
Q 19.671875 43.65625 24.015625 45.921875 
Q 28.375 48.1875 33.59375 48.1875 
Q 44.578125 48.1875 50.953125 41.515625 
Q 57.328125 34.859375 57.328125 23.390625 
Q 57.328125 12.15625 50.6875 5.359375 
Q 44.046875 -1.421875 33.015625 -1.421875 
Q 20.359375 -1.421875 13.671875 8.265625 
Q 6.984375 17.96875 6.984375 36.375 
Q 6.984375 53.65625 15.1875 63.9375 
Q 23.390625 74.21875 37.203125 74.21875 
Q 40.921875 74.21875 44.703125 73.484375 
Q 48.484375 72.75 52.59375 71.296875 
" id="BitstreamVeraSans-Roman-36"/>
     </defs>
     <g transform="translate(42.9296166847 255.174508821)scale(0.12 -0.12)">
      <use xlink:href="#BitstreamVeraSans-Roman-2212"/>
      <use x="83.7890625" xlink:href="#BitstreamVeraSans-Roman-30"/>
      <use x="147.412109375" xlink:href="#BitstreamVeraSans-Roman-2e"/>
      <use x="179.19921875" xlink:href="#BitstreamVeraSans-Roman-36"/>
     </g>
    </g>
   </g>
   <g id="xtick_2">
    <g id="line2d_3">
     <path d="M 77.05534 232.015055 
L 75.637123 233.62025 
" style="fill:none;stroke:#000000;stroke-linecap:square;"/>
    </g>
    <g id="text_2">
     <!-- −0.4 -->
     <defs>
      <path d="M 37.796875 64.3125 
L 12.890625 25.390625 
L 37.796875 25.390625 
z
M 35.203125 72.90625 
L 47.609375 72.90625 
L 47.609375 25.390625 
L 58.015625 25.390625 
L 58.015625 17.1875 
L 47.609375 17.1875 
L 47.609375 0 
L 37.796875 0 
L 37.796875 17.1875 
L 4.890625 17.1875 
L 4.890625 26.703125 
z
" id="BitstreamVeraSans-Roman-34"/>
     </defs>
     <g transform="translate(56.1491863757 260.834658141)scale(0.12 -0.12)">
      <use xlink:href="#BitstreamVeraSans-Roman-2212"/>
      <use x="83.7890625" xlink:href="#BitstreamVeraSans-Roman-30"/>
      <use x="147.412109375" xlink:href="#BitstreamVeraSans-Roman-2e"/>
      <use x="179.19921875" xlink:href="#BitstreamVeraSans-Roman-34"/>
     </g>
    </g>
   </g>
   <g id="xtick_3">
    <g id="line2d_4">
     <path d="M 90.444711 237.601457 
L 89.042512 239.227716 
" style="fill:none;stroke:#000000;stroke-linecap:square;"/>
    </g>
    <g id="text_3">
     <!-- −0.2 -->
     <defs>
      <path d="M 19.1875 8.296875 
L 53.609375 8.296875 
L 53.609375 0 
L 7.328125 0 
L 7.328125 8.296875 
Q 12.9375 14.109375 22.625 23.890625 
Q 32.328125 33.6875 34.8125 36.53125 
Q 39.546875 41.84375 41.421875 45.53125 
Q 43.3125 49.21875 43.3125 52.78125 
Q 43.3125 58.59375 39.234375 62.25 
Q 35.15625 65.921875 28.609375 65.921875 
Q 23.96875 65.921875 18.8125 64.3125 
Q 13.671875 62.703125 7.8125 59.421875 
L 7.8125 69.390625 
Q 13.765625 71.78125 18.9375 73 
Q 24.125 74.21875 28.421875 74.21875 
Q 39.75 74.21875 46.484375 68.546875 
Q 53.21875 62.890625 53.21875 53.421875 
Q 53.21875 48.921875 51.53125 44.890625 
Q 49.859375 40.875 45.40625 35.40625 
Q 44.1875 33.984375 37.640625 27.21875 
Q 31.109375 20.453125 19.1875 8.296875 
" id="BitstreamVeraSans-Roman-32"/>
     </defs>
     <g transform="translate(69.5420840661 266.569020343)scale(0.12 -0.12)">
      <use xlink:href="#BitstreamVeraSans-Roman-2212"/>
      <use x="83.7890625" xlink:href="#BitstreamVeraSans-Roman-30"/>
      <use x="147.412109375" xlink:href="#BitstreamVeraSans-Roman-2e"/>
      <use x="179.19921875" xlink:href="#BitstreamVeraSans-Roman-32"/>
     </g>
    </g>
   </g>
   <g id="xtick_4">
    <g id="line2d_5">
     <path d="M 104.010199 243.261338 
L 102.624564 244.909079 
" style="fill:none;stroke:#000000;stroke-linecap:square;"/>
    </g>
    <g id="text_4">
     <!-- 0.0 -->
     <g transform="translate(88.1395536288 272.379064617)scale(0.12 -0.12)">
      <use xlink:href="#BitstreamVeraSans-Roman-30"/>
      <use x="63.623046875" xlink:href="#BitstreamVeraSans-Roman-2e"/>
      <use x="95.41015625" xlink:href="#BitstreamVeraSans-Roman-30"/>
     </g>
    </g>
   </g>
   <g id="xtick_5">
    <g id="line2d_6">
     <path d="M 117.755301 248.99616 
L 116.386793 250.665811 
" style="fill:none;stroke:#000000;stroke-linecap:square;"/>
    </g>
    <g id="text_5">
     <!-- 0.2 -->
     <g transform="translate(101.889492612 278.266299195)scale(0.12 -0.12)">
      <use xlink:href="#BitstreamVeraSans-Roman-30"/>
      <use x="63.623046875" xlink:href="#BitstreamVeraSans-Roman-2e"/>
      <use x="95.41015625" xlink:href="#BitstreamVeraSans-Roman-32"/>
     </g>
    </g>
   </g>
   <g id="xtick_6">
    <g id="line2d_7">
     <path d="M 131.683607 254.80742 
L 130.332809 256.499421 
" style="fill:none;stroke:#000000;stroke-linecap:square;"/>
    </g>
    <g id="text_6">
     <!-- 0.4 -->
     <g transform="translate(115.823330291 284.23227265)scale(0.12 -0.12)">
      <use xlink:href="#BitstreamVeraSans-Roman-30"/>
      <use x="63.623046875" xlink:href="#BitstreamVeraSans-Roman-2e"/>
      <use x="95.41015625" xlink:href="#BitstreamVeraSans-Roman-34"/>
     </g>
    </g>
   </g>
   <g id="xtick_7">
    <g id="line2d_8">
     <path d="M 145.798806 260.696656 
L 144.466319 262.411459 
" style="fill:none;stroke:#000000;stroke-linecap:square;"/>
    </g>
    <g id="text_7">
     <!-- 0.6 -->
     <g transform="translate(129.944780833 290.278575257)scale(0.12 -0.12)">
      <use xlink:href="#BitstreamVeraSans-Roman-30"/>
      <use x="63.623046875" xlink:href="#BitstreamVeraSans-Roman-2e"/>
      <use x="95.41015625" xlink:href="#BitstreamVeraSans-Roman-36"/>
     </g>
    </g>
   </g>
  </g>
  <g id="axis3d_2">
   <g id="line2d_9">
    <path d="M 203.074898 197.605766 
L 152.089726 264.079739 
" style="fill:none;stroke:#000000;stroke-linecap:square;stroke-width:0.75;"/>
   </g>
   <g id="Line3DCollection_2">
    <path d="M 60.452078 95.155267 
L 64.074698 216.905976 
L 158.423584 255.821716 
" style="fill:none;stroke:#e6e6e6;"/>
    <path d="M 72.250478 84.180129 
L 75.225997 204.716978 
L 168.652012 242.485991 
" style="fill:none;stroke:#e6e6e6;"/>
    <path d="M 83.693687 73.535398 
L 86.058261 192.876704 
L 178.574654 229.548947 
" style="fill:none;stroke:#e6e6e6;"/>
    <path d="M 94.797506 63.206375 
L 96.584987 181.3704 
L 188.20502 216.992968 
" style="fill:none;stroke:#e6e6e6;"/>
    <path d="M 105.576813 53.17922 
L 106.818923 170.184132 
L 197.555837 204.801464 
" style="fill:none;stroke:#e6e6e6;"/>
   </g>
   <g id="xtick_8">
    <g id="line2d_10">
     <path d="M 157.634114 255.496085 
L 160.004283 256.473701 
" style="fill:none;stroke:#000000;stroke-linecap:square;"/>
    </g>
    <g id="text_8">
     <!-- −0.4 -->
     <g transform="translate(153.967641854 281.525677864)scale(0.12 -0.12)">
      <use xlink:href="#BitstreamVeraSans-Roman-2212"/>
      <use x="83.7890625" xlink:href="#BitstreamVeraSans-Roman-30"/>
      <use x="147.412109375" xlink:href="#BitstreamVeraSans-Roman-2e"/>
      <use x="179.19921875" xlink:href="#BitstreamVeraSans-Roman-34"/>
     </g>
    </g>
   </g>
   <g id="xtick_9">
    <g id="line2d_11">
     <path d="M 167.870784 242.170166 
L 170.21618 243.118331 
" style="fill:none;stroke:#000000;stroke-linecap:square;"/>
    </g>
    <g id="text_9">
     <!-- −0.2 -->
     <g transform="translate(164.035201825 267.948241379)scale(0.12 -0.12)">
      <use xlink:href="#BitstreamVeraSans-Roman-2212"/>
      <use x="83.7890625" xlink:href="#BitstreamVeraSans-Roman-30"/>
      <use x="147.412109375" xlink:href="#BitstreamVeraSans-Roman-2e"/>
      <use x="179.19921875" xlink:href="#BitstreamVeraSans-Roman-32"/>
     </g>
    </g>
   </g>
   <g id="xtick_10">
    <g id="line2d_12">
     <path d="M 177.801533 229.242492 
L 180.122565 230.162518 
" style="fill:none;stroke:#000000;stroke-linecap:square;"/>
    </g>
    <g id="text_10">
     <!-- 0.0 -->
     <g transform="translate(178.829815195 254.776418329)scale(0.12 -0.12)">
      <use xlink:href="#BitstreamVeraSans-Roman-30"/>
      <use x="63.623046875" xlink:href="#BitstreamVeraSans-Roman-2e"/>
      <use x="95.41015625" xlink:href="#BitstreamVeraSans-Roman-30"/>
     </g>
    </g>
   </g>
   <g id="xtick_11">
    <g id="line2d_13">
     <path d="M 187.439871 216.695473 
L 189.736947 217.588593 
" style="fill:none;stroke:#000000;stroke-linecap:square;"/>
    </g>
    <g id="text_11">
     <!-- 0.2 -->
     <g transform="translate(188.309135969 241.992300221)scale(0.12 -0.12)">
      <use xlink:href="#BitstreamVeraSans-Roman-30"/>
      <use x="63.623046875" xlink:href="#BitstreamVeraSans-Roman-2e"/>
      <use x="95.41015625" xlink:href="#BitstreamVeraSans-Roman-32"/>
     </g>
    </g>
   </g>
   <g id="xtick_12">
    <g id="line2d_14">
     <path d="M 196.798526 204.512539 
L 199.072049 205.379918 
" style="fill:none;stroke:#000000;stroke-linecap:square;"/>
    </g>
    <g id="text_12">
     <!-- 0.4 -->
     <g transform="translate(197.513485267 229.579017525)scale(0.12 -0.12)">
      <use xlink:href="#BitstreamVeraSans-Roman-30"/>
      <use x="63.623046875" xlink:href="#BitstreamVeraSans-Roman-2e"/>
      <use x="95.41015625" xlink:href="#BitstreamVeraSans-Roman-34"/>
     </g>
    </g>
   </g>
  </g>
  <g id="axis3d_3">
   <g id="line2d_15">
    <path d="M 203.074898 197.605766 
L 206.849166 77.785017 
" style="fill:none;stroke:#000000;stroke-linecap:square;stroke-width:0.75;"/>
   </g>
   <g id="Line3DCollection_3">
    <path d="M 203.493265 184.323961 
L 112.762167 150.657263 
L 56.730602 210.888445 
" style="fill:none;stroke:#e6e6e6;"/>
    <path d="M 204.196557 161.996736 
L 112.58918 128.955648 
L 55.980025 188.086541 
" style="fill:none;stroke:#e6e6e6;"/>
    <path d="M 204.913686 139.230218 
L 112.412935 106.845192 
L 55.214185 164.820942 
" style="fill:none;stroke:#e6e6e6;"/>
    <path d="M 205.645065 116.011316 
L 112.233337 84.31423 
L 54.43261 141.077361 
" style="fill:none;stroke:#e6e6e6;"/>
    <path d="M 206.391123 92.326408 
L 112.050291 61.350653 
L 53.634812 116.840914 
" style="fill:none;stroke:#e6e6e6;"/>
   </g>
   <g id="xtick_13">
    <g id="line2d_16">
     <path d="M 202.736094 184.043005 
L 205.009191 184.886461 
" style="fill:none;stroke:#000000;stroke-linecap:square;"/>
    </g>
    <g id="text_13">
     <!-- −0.4 -->
     <g transform="translate(203.659533574 190.774833573)scale(0.12 -0.12)">
      <use xlink:href="#BitstreamVeraSans-Roman-2212"/>
      <use x="83.7890625" xlink:href="#BitstreamVeraSans-Roman-30"/>
      <use x="147.412109375" xlink:href="#BitstreamVeraSans-Roman-2e"/>
      <use x="179.19921875" xlink:href="#BitstreamVeraSans-Roman-34"/>
     </g>
    </g>
   </g>
   <g id="xtick_14">
    <g id="line2d_17">
     <path d="M 203.431765 161.720889 
L 205.727756 162.549011 
" style="fill:none;stroke:#000000;stroke-linecap:square;"/>
    </g>
    <g id="text_14">
     <!-- −0.2 -->
     <g transform="translate(204.503554233 168.496193162)scale(0.12 -0.12)">
      <use xlink:href="#BitstreamVeraSans-Roman-2212"/>
      <use x="83.7890625" xlink:href="#BitstreamVeraSans-Roman-30"/>
      <use x="147.412109375" xlink:href="#BitstreamVeraSans-Roman-2e"/>
      <use x="179.19921875" xlink:href="#BitstreamVeraSans-Roman-32"/>
     </g>
    </g>
   </g>
   <g id="xtick_15">
    <g id="line2d_18">
     <path d="M 204.141118 138.959738 
L 206.460469 139.771755 
" style="fill:none;stroke:#000000;stroke-linecap:square;"/>
    </g>
    <g id="text_15">
     <!-- 0.0 -->
     <g transform="translate(210.3919377 145.780693355)scale(0.12 -0.12)">
      <use xlink:href="#BitstreamVeraSans-Roman-30"/>
      <use x="63.623046875" xlink:href="#BitstreamVeraSans-Roman-2e"/>
      <use x="95.41015625" xlink:href="#BitstreamVeraSans-Roman-30"/>
     </g>
    </g>
   </g>
   <g id="xtick_16">
    <g id="line2d_19">
     <path d="M 204.864562 115.74647 
L 207.207751 116.541577 
" style="fill:none;stroke:#000000;stroke-linecap:square;"/>
    </g>
    <g id="text_16">
     <!-- 0.2 -->
     <g transform="translate(211.269550594 122.615357433)scale(0.12 -0.12)">
      <use xlink:href="#BitstreamVeraSans-Roman-30"/>
      <use x="63.623046875" xlink:href="#BitstreamVeraSans-Roman-2e"/>
      <use x="95.41015625" xlink:href="#BitstreamVeraSans-Roman-32"/>
     </g>
    </g>
   </g>
   <g id="xtick_17">
    <g id="line2d_20">
     <path d="M 205.60252 92.067479 
L 207.970043 92.844829 
" style="fill:none;stroke:#000000;stroke-linecap:square;"/>
    </g>
    <g id="text_17">
     <!-- 0.4 -->
     <g transform="translate(212.164716701 98.9866895774)scale(0.12 -0.12)">
      <use xlink:href="#BitstreamVeraSans-Roman-30"/>
      <use x="63.623046875" xlink:href="#BitstreamVeraSans-Roman-2e"/>
      <use x="95.41015625" xlink:href="#BitstreamVeraSans-Roman-34"/>
     </g>
    </g>
   </g>
  </g>
  <g id="axes_1">
   <g id="Poly3DCollection_1">
    <path clip-path="url(#p406293631a)" d="M 136.087827 123.434233 
L 120.808736 124.094637 
L 106.70508 127.786837 
L 105.627172 125.693763 
L 104.964126 124.574741 
L 104.740658 124.249182 
L 120.265955 120.403449 
L 136.846062 119.843793 
L 136.759 120.187848 
L 136.501973 121.336673 
L 136.087827 123.434233 
z
" style="fill:#aeaeae;fill-opacity:0.8;stroke:#000000;stroke-opacity:0.8;"/>
    <path clip-path="url(#p406293631a)" d="M 163.907409 131.443225 
L 150.978067 125.950626 
L 136.087827 123.434233 
L 136.501973 121.336673 
L 136.759 120.187848 
L 136.846062 119.843793 
L 152.897138 122.616418 
L 166.865078 128.490114 
L 166.527677 128.762781 
L 165.528183 129.697702 
L 163.907409 131.443225 
z
" style="fill:#a8a8a8;fill-opacity:0.8;stroke:#000000;stroke-opacity:0.8;"/>
    <path clip-path="url(#p406293631a)" d="M 133.387368 142.285128 
L 122.977692 143.683631 
L 114.092712 147.370123 
L 111.926347 140.827496 
L 109.919915 135.331974 
L 108.155484 130.979791 
L 106.70508 127.786837 
L 120.808736 124.094637 
L 136.087827 123.434233 
L 135.537786 126.574678 
L 134.880531 130.793593 
L 134.150775 136.062177 
L 133.387368 142.285128 
z
" style="fill:#aeaeae;fill-opacity:0.8;stroke:#000000;stroke-opacity:0.8;"/>
    <path clip-path="url(#p406293631a)" d="M 152.923094 147.777813 
L 143.881353 143.68091 
L 133.387368 142.285128 
L 134.150775 136.062177 
L 134.880531 130.793593 
L 135.537786 126.574678 
L 136.087827 123.434233 
L 150.978067 125.950626 
L 163.907409 131.443225 
L 161.73385 134.103221 
L 159.100715 137.728309 
L 156.121341 142.309907 
L 152.923094 147.777813 
z
" style="fill:#9f9f9f;fill-opacity:0.8;stroke:#000000;stroke-opacity:0.8;"/>
    <path clip-path="url(#p406293631a)" d="M 106.70508 127.786837 
L 95.135532 134.053237 
L 87.130126 142.272661 
L 84.75249 140.982566 
L 83.283501 140.374611 
L 82.787253 140.226338 
L 91.793845 131.057116 
L 104.740658 124.249182 
L 104.964126 124.574741 
L 105.627172 125.693763 
L 106.70508 127.786837 
z
" style="fill:#b7b7b7;fill-opacity:0.8;stroke:#000000;stroke-opacity:0.8;"/>
    <path clip-path="url(#p406293631a)" d="M 131.299686 208.507529 
L 130.394644 207.950572 
L 129.492233 206.995253 
L 128.59199 205.634946 
L 127.685382 203.842331 
L 127.698597 203.826828 
L 127.938473 202.193251 
L 128.832163 204.871313 
L 129.673427 206.724644 
L 130.490949 207.909511 
L 131.299686 208.507529 
z
" style="fill:#979797;fill-opacity:0.8;stroke:#000000;stroke-opacity:0.8;"/>
    <path clip-path="url(#p406293631a)" d="M 130.782971 172.748078 
L 125.95088 175.05448 
L 122.616854 179.280606 
L 120.673663 171.107891 
L 118.553128 162.805872 
L 116.331216 154.782048 
L 114.092712 147.370123 
L 122.977692 143.683631 
L 133.387368 142.285128 
L 132.630982 149.302939 
L 131.921516 156.898951 
L 131.295393 164.81113 
L 130.782971 172.748078 
z
" style="fill:#adadad;fill-opacity:0.8;stroke:#000000;stroke-opacity:0.8;"/>
    <path clip-path="url(#p406293631a)" d="M 131.299686 208.507529 
L 130.665711 207.87125 
L 129.956187 206.457543 
L 129.082308 204.258274 
L 127.934963 201.27017 
L 127.668017 202.510024 
L 127.685382 203.842331 
L 128.59199 205.634946 
L 129.492233 206.995253 
L 130.394644 207.950572 
L 131.299686 208.507529 
z
" style="fill:#f9f9f9;fill-opacity:0.8;stroke:#000000;stroke-opacity:0.8;"/>
    <path clip-path="url(#p406293631a)" d="M 131.299686 208.507529 
L 130.490949 207.909511 
L 129.673427 206.724644 
L 128.832163 204.871313 
L 127.938473 202.193251 
L 128.773048 200.289661 
L 130.155499 199.032748 
L 130.333158 203.1473 
L 130.603418 206.075771 
L 130.936002 207.840612 
L 131.299686 208.507529 
z
" style="fill:#989898;fill-opacity:0.8;stroke:#000000;stroke-opacity:0.8;"/>
    <path clip-path="url(#p406293631a)" d="M 131.299686 208.507529 
L 130.936002 207.840612 
L 130.603418 206.075771 
L 130.333158 203.1473 
L 130.155499 199.032748 
L 131.780292 198.810601 
L 133.275388 199.686271 
L 132.436535 203.625834 
L 131.888441 206.420335 
L 131.542463 208.039745 
L 131.299686 208.507529 
z
" style="fill:#959595;fill-opacity:0.8;stroke:#000000;stroke-opacity:0.8;"/>
    <path clip-path="url(#p406293631a)" d="M 127.938473 202.193251 
L 127.698597 203.826828 
L 127.685382 203.842331 
L 126.731789 201.507935 
L 125.522645 198.115873 
L 123.417778 192.422328 
L 120.313553 185.11318 
L 121.289595 184.005634 
L 122.616854 179.280606 
L 124.321945 186.851062 
L 125.756717 193.339047 
L 126.939249 198.438597 
L 127.938473 202.193251 
z
" style="fill:#b6b6b6;fill-opacity:0.8;stroke:#000000;stroke-opacity:0.8;"/>
    <path clip-path="url(#p406293631a)" d="M 131.299686 208.507529 
L 131.208076 207.931493 
L 131.02292 206.351802 
L 130.656217 203.930683 
L 130.03089 200.862389 
L 128.723411 200.708941 
L 127.934963 201.27017 
L 129.082308 204.258274 
L 129.956187 206.457543 
L 130.665711 207.87125 
L 131.299686 208.507529 
z
" style="fill:#f9f9f9;fill-opacity:0.8;stroke:#000000;stroke-opacity:0.8;"/>
    <path clip-path="url(#p406293631a)" d="M 131.299686 208.507529 
L 132.217445 208.6813 
L 133.130183 208.47584 
L 134.032091 207.891678 
L 134.917393 206.931581 
L 134.853892 206.06968 
L 133.930406 207.444786 
L 133.043151 208.275669 
L 132.169126 208.622363 
L 131.299686 208.507529 
z
" style="fill:#f7f7f7;fill-opacity:0.8;stroke:#000000;stroke-opacity:0.8;"/>
    <path clip-path="url(#p406293631a)" d="M 131.299686 208.507529 
L 131.542463 208.039745 
L 131.888441 206.420335 
L 132.436535 203.625834 
L 133.275388 199.686271 
L 134.343018 201.477174 
L 134.862094 203.786262 
L 133.729813 206.190579 
L 132.820079 207.710995 
L 132.032996 208.458699 
L 131.299686 208.507529 
z
" style="fill:#8f8f8f;fill-opacity:0.8;stroke:#000000;stroke-opacity:0.8;"/>
    <path clip-path="url(#p406293631a)" d="M 131.299686 208.507529 
L 132.032996 208.458699 
L 132.820079 207.710995 
L 133.729813 206.190579 
L 134.862094 203.786262 
L 134.947473 205.958467 
L 134.917393 206.931581 
L 134.032091 207.891678 
L 133.130183 208.47584 
L 132.217445 208.6813 
L 131.299686 208.507529 
z
" style="fill:#929292;fill-opacity:0.8;stroke:#000000;stroke-opacity:0.8;"/>
    <path clip-path="url(#p406293631a)" d="M 130.155499 199.032748 
L 128.773048 200.289661 
L 127.938473 202.193251 
L 126.939249 198.438597 
L 125.756717 193.339047 
L 124.321945 186.851062 
L 122.616854 179.280606 
L 125.95088 175.05448 
L 130.782971 172.748078 
L 130.406276 180.408463 
L 130.177296 187.502857 
L 130.09702 193.776766 
L 130.155499 199.032748 
z
" style="fill:#a3a3a3;fill-opacity:0.8;stroke:#000000;stroke-opacity:0.8;"/>
    <path clip-path="url(#p406293631a)" d="M 131.299686 208.507529 
L 132.169126 208.622363 
L 133.043151 208.275669 
L 133.930406 207.444786 
L 134.853892 206.06968 
L 134.335618 204.410222 
L 133.195513 202.832349 
L 132.759461 205.338785 
L 132.290589 207.18335 
L 131.800327 208.264245 
L 131.299686 208.507529 
z
" style="fill:#f1f1f1;fill-opacity:0.8;stroke:#000000;stroke-opacity:0.8;"/>
    <path clip-path="url(#p406293631a)" d="M 140.549145 175.165424 
L 136.027906 172.805176 
L 130.782971 172.748078 
L 131.295393 164.81113 
L 131.921516 156.898951 
L 132.630982 149.302939 
L 133.387368 142.285128 
L 143.881353 143.68091 
L 152.923094 147.777813 
L 149.640003 154.001881 
L 146.404578 160.798035 
L 143.339398 167.938464 
L 140.549145 175.165424 
z
" style="fill:#989898;fill-opacity:0.8;stroke:#000000;stroke-opacity:0.8;"/>
    <path clip-path="url(#p406293631a)" d="M 131.299686 208.507529 
L 131.800327 208.264245 
L 132.290589 207.18335 
L 132.759461 205.338785 
L 133.195513 202.832349 
L 131.639405 201.611185 
L 130.03089 200.862389 
L 130.656217 203.930683 
L 131.02292 206.351802 
L 131.208076 207.931493 
L 131.299686 208.507529 
z
" style="fill:#f3f3f3;fill-opacity:0.8;stroke:#000000;stroke-opacity:0.8;"/>
    <path clip-path="url(#p406293631a)" d="M 114.092712 147.370123 
L 107.521712 152.178668 
L 103.05352 156.956412 
L 98.456202 151.746427 
L 94.142756 147.563931 
L 90.308794 144.425094 
L 87.130126 142.272661 
L 95.135532 134.053237 
L 106.70508 127.786837 
L 108.155484 130.979791 
L 109.919915 135.331974 
L 111.926347 140.827496 
L 114.092712 147.370123 
z
" style="fill:#c4c4c4;fill-opacity:0.8;stroke:#000000;stroke-opacity:0.8;"/>
    <path clip-path="url(#p406293631a)" d="M 133.275388 199.686271 
L 131.780292 198.810601 
L 130.155499 199.032748 
L 130.09702 193.776766 
L 130.177296 187.502857 
L 130.406276 180.408463 
L 130.782971 172.748078 
L 136.027906 172.805176 
L 140.549145 175.165424 
L 138.113783 182.207667 
L 136.083487 188.798334 
L 134.475803 194.692966 
L 133.275388 199.686271 
z
" style="fill:#989898;fill-opacity:0.8;stroke:#000000;stroke-opacity:0.8;"/>
    <path clip-path="url(#p406293631a)" d="M 127.685382 203.842331 
L 127.668017 202.510024 
L 127.934963 201.27017 
L 126.391014 197.53581 
L 124.337145 193.181207 
L 121.699814 188.418801 
L 118.46339 183.511965 
L 118.737165 183.665419 
L 120.313553 185.11318 
L 123.417778 192.422328 
L 125.522645 198.115873 
L 126.731789 201.507935 
L 127.685382 203.842331 
z
" style="fill:#ffffff;fill-opacity:0.8;stroke:#000000;stroke-opacity:0.8;"/>
    <path clip-path="url(#p406293631a)" d="M 122.616854 179.280606 
L 121.289595 184.005634 
L 120.313553 185.11318 
L 116.53993 177.463748 
L 112.288611 170.017494 
L 107.730987 163.102088 
L 103.05352 156.956412 
L 107.521712 152.178668 
L 114.092712 147.370123 
L 116.331216 154.782048 
L 118.553128 162.805872 
L 120.673663 171.107891 
L 122.616854 179.280606 
z
" style="fill:#d3d3d3;fill-opacity:0.8;stroke:#000000;stroke-opacity:0.8;"/>
    <path clip-path="url(#p406293631a)" d="M 134.862094 203.786262 
L 134.343018 201.477174 
L 133.275388 199.686271 
L 134.475803 194.692966 
L 136.083487 188.798334 
L 138.113783 182.207667 
L 140.549145 175.165424 
L 143.440581 179.383695 
L 144.254174 184.695073 
L 140.978521 190.633314 
L 138.355494 195.956775 
L 136.353796 200.385068 
L 134.862094 203.786262 
z
" style="fill:#8a8a8a;fill-opacity:0.8;stroke:#000000;stroke-opacity:0.8;"/>
    <path clip-path="url(#p406293631a)" d="M 134.917393 206.931581 
L 134.947473 205.958467 
L 134.862094 203.786262 
L 136.353796 200.385068 
L 138.355494 195.956775 
L 140.978521 190.633314 
L 144.254174 184.695073 
L 143.226273 190.014269 
L 141.733999 193.306321 
L 138.633898 199.259209 
L 136.61544 203.905894 
L 135.78038 205.600564 
L 134.917393 206.931581 
z
" style="fill:#808080;fill-opacity:0.8;stroke:#000000;stroke-opacity:0.8;"/>
    <path clip-path="url(#p406293631a)" d="M 134.853892 206.06968 
L 134.917393 206.931581 
L 135.78038 205.600564 
L 136.61544 203.905894 
L 138.633898 199.259209 
L 141.733999 193.306321 
L 141.004133 192.635426 
L 138.827092 197.085908 
L 137.137002 201.033069 
L 135.875198 204.011082 
L 134.853892 206.06968 
z
" style="fill:#dbdbdb;fill-opacity:0.8;stroke:#000000;stroke-opacity:0.8;"/>
    <path clip-path="url(#p406293631a)" d="M 178.556804 148.926936 
L 173.462428 139.380407 
L 163.907409 131.443225 
L 165.528183 129.697702 
L 166.527677 128.762781 
L 166.865078 128.490114 
L 177.321494 136.955842 
L 183.08102 147.233348 
L 182.563681 147.350483 
L 181.032878 147.848628 
L 178.556804 148.926936 
z
" style="fill:#a4a4a4;fill-opacity:0.8;stroke:#000000;stroke-opacity:0.8;"/>
    <path clip-path="url(#p406293631a)" d="M 127.934963 201.27017 
L 128.723411 200.708941 
L 130.03089 200.862389 
L 129.085756 197.362665 
L 127.779796 193.656914 
L 126.095471 189.967697 
L 124.040929 186.50225 
L 120.255539 184.686612 
L 118.46339 183.511965 
L 121.699814 188.418801 
L 124.337145 193.181207 
L 126.391014 197.53581 
L 127.934963 201.27017 
z
" style="fill:#f1f1f1;fill-opacity:0.8;stroke:#000000;stroke-opacity:0.8;"/>
    <path clip-path="url(#p406293631a)" d="M 162.026726 161.380711 
L 159.222748 154.005712 
L 152.923094 147.777813 
L 156.121341 142.309907 
L 159.100715 137.728309 
L 161.73385 134.103221 
L 163.907409 131.443225 
L 173.462428 139.380407 
L 178.556804 148.926936 
L 175.249462 150.744807 
L 171.264887 153.408869 
L 166.788595 156.962796 
L 162.026726 161.380711 
z
" style="fill:#949494;fill-opacity:0.8;stroke:#000000;stroke-opacity:0.8;"/>
    <path clip-path="url(#p406293631a)" d="M 144.254174 184.695073 
L 143.440581 179.383695 
L 140.549145 175.165424 
L 143.339398 167.938464 
L 146.404578 160.798035 
L 149.640003 154.001881 
L 152.923094 147.777813 
L 159.222748 154.005712 
L 162.026726 161.380711 
L 157.193578 166.564515 
L 152.498383 172.345048 
L 148.132075 178.486614 
L 144.254174 184.695073 
z
" style="fill:#898989;fill-opacity:0.8;stroke:#000000;stroke-opacity:0.8;"/>
    <path clip-path="url(#p406293631a)" d="M 133.195513 202.832349 
L 134.335618 204.410222 
L 134.853892 206.06968 
L 135.875198 204.011082 
L 137.137002 201.033069 
L 138.827092 197.085908 
L 141.004133 192.635426 
L 138.687378 191.228251 
L 134.419564 189.8887 
L 134.204732 193.104614 
L 133.926292 196.493882 
L 133.587631 199.8158 
L 133.195513 202.832349 
z
" style="fill:#d5d5d5;fill-opacity:0.8;stroke:#000000;stroke-opacity:0.8;"/>
    <path clip-path="url(#p406293631a)" d="M 130.03089 200.862389 
L 131.639405 201.611185 
L 133.195513 202.832349 
L 133.587631 199.8158 
L 133.926292 196.493882 
L 134.204732 193.104614 
L 134.419564 189.8887 
L 129.129536 188.338407 
L 124.040929 186.50225 
L 126.095471 189.967697 
L 127.779796 193.656914 
L 129.085756 197.362665 
L 130.03089 200.862389 
z
" style="fill:#dfdfdf;fill-opacity:0.8;stroke:#000000;stroke-opacity:0.8;"/>
    <path clip-path="url(#p406293631a)" d="M 120.313553 185.11318 
L 118.737165 183.665419 
L 118.46339 183.511965 
L 114.672126 178.729176 
L 110.423413 174.31012 
L 105.85851 170.445893 
L 101.152388 167.268041 
L 100.622268 161.815371 
L 103.05352 156.956412 
L 107.730987 163.102088 
L 112.288611 170.017494 
L 116.53993 177.463748 
L 120.313553 185.11318 
z
" style="fill:#efefef;fill-opacity:0.8;stroke:#000000;stroke-opacity:0.8;"/>
    <path clip-path="url(#p406293631a)" d="M 141.733999 193.306321 
L 143.226273 190.014269 
L 144.254174 184.695073 
L 148.132075 178.486614 
L 152.498383 172.345048 
L 157.193578 166.564515 
L 162.026726 161.380711 
L 161.413823 168.609177 
L 158.215667 174.498594 
L 153.746065 178.088275 
L 149.405055 182.513005 
L 145.356543 187.647194 
L 141.733999 193.306321 
z
" style="fill:#848484;fill-opacity:0.8;stroke:#000000;stroke-opacity:0.8;"/>
    <path clip-path="url(#p406293631a)" d="M 103.05352 156.956412 
L 100.622268 161.815371 
L 101.152388 167.268041 
L 96.502476 164.842774 
L 92.116182 163.169185 
L 88.197572 162.18146 
L 84.93402 161.755207 
L 83.508569 151.782871 
L 87.130126 142.272661 
L 90.308794 144.425094 
L 94.142756 147.563931 
L 98.456202 151.746427 
L 103.05352 156.956412 
z
" style="fill:#d5d5d5;fill-opacity:0.8;stroke:#000000;stroke-opacity:0.8;"/>
    <path clip-path="url(#p406293631a)" d="M 87.130126 142.272661 
L 83.508569 151.782871 
L 84.93402 161.755207 
L 82.483846 161.717725 
L 80.965972 161.861612 
L 80.452439 161.960695 
L 78.79457 150.890982 
L 82.787253 140.226338 
L 83.283501 140.374611 
L 84.75249 140.982566 
L 87.130126 142.272661 
z
" style="fill:#bdbdbd;fill-opacity:0.8;stroke:#000000;stroke-opacity:0.8;"/>
    <path clip-path="url(#p406293631a)" d="M 141.004133 192.635426 
L 141.733999 193.306321 
L 145.356543 187.647194 
L 149.405055 182.513005 
L 153.746065 178.088275 
L 158.215667 174.498594 
L 152.866942 178.691391 
L 149.646851 181.110744 
L 146.517351 184.340029 
L 143.600207 188.258076 
L 141.004133 192.635426 
z
" style="fill:#989898;fill-opacity:0.8;stroke:#000000;stroke-opacity:0.8;"/>
    <path clip-path="url(#p406293631a)" d="M 118.46339 183.511965 
L 120.255539 184.686612 
L 124.040929 186.50225 
L 121.650929 183.440506 
L 118.986317 180.924155 
L 116.131909 179.047341 
L 113.19266 177.849686 
L 105.396278 172.926683 
L 101.152388 167.268041 
L 105.85851 170.445893 
L 110.423413 174.31012 
L 114.672126 178.729176 
L 118.46339 183.511965 
z
" style="fill:#e4e4e4;fill-opacity:0.8;stroke:#000000;stroke-opacity:0.8;"/>
    <path clip-path="url(#p406293631a)" d="M 158.215667 174.498594 
L 161.413823 168.609177 
L 162.026726 161.380711 
L 166.788595 156.962796 
L 171.264887 153.408869 
L 175.249462 150.744807 
L 178.556804 148.926936 
L 178.608101 159.023503 
L 173.601343 168.564436 
L 170.506509 168.954535 
L 166.789846 169.982594 
L 162.628668 171.801649 
L 158.215667 174.498594 
z
" style="fill:#939393;fill-opacity:0.8;stroke:#000000;stroke-opacity:0.8;"/>
    <path clip-path="url(#p406293631a)" d="M 134.419564 189.8887 
L 138.687378 191.228251 
L 141.004133 192.635426 
L 143.600207 188.258076 
L 146.517351 184.340029 
L 149.646851 181.110744 
L 152.866942 178.691391 
L 144.939081 181.372119 
L 134.691966 182.316849 
L 134.699489 183.196642 
L 134.662075 184.79359 
L 134.570881 187.061616 
L 134.419564 189.8887 
z
" style="fill:#b9b9b9;fill-opacity:0.8;stroke:#000000;stroke-opacity:0.8;"/>
    <path clip-path="url(#p406293631a)" d="M 124.040929 186.50225 
L 129.129536 188.338407 
L 134.419564 189.8887 
L 134.570881 187.061616 
L 134.662075 184.79359 
L 134.699489 183.196642 
L 134.691966 182.316849 
L 123.503617 181.146643 
L 113.19266 177.849686 
L 116.131909 179.047341 
L 118.986317 180.924155 
L 121.650929 183.440506 
L 124.040929 186.50225 
z
" style="fill:#d1d1d1;fill-opacity:0.8;stroke:#000000;stroke-opacity:0.8;"/>
    <path clip-path="url(#p406293631a)" d="M 173.601343 168.564436 
L 178.608101 159.023503 
L 178.556804 148.926936 
L 181.032878 147.848628 
L 182.563681 147.350483 
L 183.08102 147.233348 
L 183.344029 158.300089 
L 177.849837 168.960624 
L 177.363194 168.825961 
L 175.924408 168.604183 
L 173.601343 168.564436 
z
" style="fill:#a4a4a4;fill-opacity:0.8;stroke:#000000;stroke-opacity:0.8;"/>
    <path clip-path="url(#p406293631a)" d="M 101.152388 167.268041 
L 105.396278 172.926683 
L 113.19266 177.849686 
L 110.28817 177.312427 
L 107.545708 177.358324 
L 105.092165 177.855796 
L 103.045547 178.627364 
L 91.618639 171.099192 
L 84.93402 161.755207 
L 88.197572 162.18146 
L 92.116182 163.169185 
L 96.502476 164.842774 
L 101.152388 167.268041 
z
" style="fill:#cfcfcf;fill-opacity:0.8;stroke:#000000;stroke-opacity:0.8;"/>
    <path clip-path="url(#p406293631a)" d="M 152.866942 178.691391 
L 158.215667 174.498594 
L 162.628668 171.801649 
L 166.789846 169.982594 
L 170.506509 168.954535 
L 173.601343 168.564436 
L 163.94275 176.563219 
L 161.714637 176.20657 
L 159.039411 176.326915 
L 156.044275 177.113537 
L 152.866942 178.691391 
z
" style="fill:#a0a0a0;fill-opacity:0.8;stroke:#000000;stroke-opacity:0.8;"/>
    <path clip-path="url(#p406293631a)" d="M 84.93402 161.755207 
L 91.618639 171.099192 
L 103.045547 178.627364 
L 101.506733 179.461997 
L 100.552307 180.130461 
L 100.22916 180.40236 
L 87.811084 172.206858 
L 80.452439 161.960695 
L 80.965972 161.861612 
L 82.483846 161.717725 
L 84.93402 161.755207 
z
" style="fill:#bcbcbc;fill-opacity:0.8;stroke:#000000;stroke-opacity:0.8;"/>
    <path clip-path="url(#p406293631a)" d="M 134.691966 182.316849 
L 144.939081 181.372119 
L 152.866942 178.691391 
L 156.044275 177.113537 
L 159.039411 176.326915 
L 161.714637 176.20657 
L 163.94275 176.563219 
L 150.424867 182.135646 
L 134.440466 184.523016 
L 134.512458 183.413523 
L 134.586318 182.547785 
L 134.650259 182.131015 
L 134.691966 182.316849 
z
" style="fill:#b2b2b2;fill-opacity:0.8;stroke:#000000;stroke-opacity:0.8;"/>
    <path clip-path="url(#p406293631a)" d="M 163.94275 176.563219 
L 173.601343 168.564436 
L 175.924408 168.604183 
L 177.363194 168.825961 
L 177.849837 168.960624 
L 167.00262 177.968746 
L 166.652057 177.720017 
L 165.615694 177.157838 
L 163.94275 176.563219 
z
" style="fill:#aaaaaa;fill-opacity:0.8;stroke:#000000;stroke-opacity:0.8;"/>
    <path clip-path="url(#p406293631a)" d="M 113.19266 177.849686 
L 123.503617 181.146643 
L 134.691966 182.316849 
L 134.650259 182.131015 
L 134.586318 182.547785 
L 134.512458 183.413523 
L 134.440466 184.523016 
L 117.939848 183.315121 
L 103.045547 178.627364 
L 105.092165 177.855796 
L 107.545708 177.358324 
L 110.28817 177.312427 
L 113.19266 177.849686 
z
" style="fill:#c3c3c3;fill-opacity:0.8;stroke:#000000;stroke-opacity:0.8;"/>
    <path clip-path="url(#p406293631a)" d="M 134.440466 184.523016 
L 150.424867 182.135646 
L 163.94275 176.563219 
L 165.615694 177.157838 
L 166.652057 177.720017 
L 167.00262 177.968746 
L 151.916036 184.197487 
L 134.327537 186.82732 
L 134.341303 186.488524 
L 134.380702 185.634584 
L 134.440466 184.523016 
z
" style="fill:#b0b0b0;fill-opacity:0.8;stroke:#000000;stroke-opacity:0.8;"/>
    <path clip-path="url(#p406293631a)" d="M 103.045547 178.627364 
L 117.939848 183.315121 
L 134.440466 184.523016 
L 134.380702 185.634584 
L 134.341303 186.488524 
L 134.327537 186.82732 
L 116.368228 185.502235 
L 100.22916 180.40236 
L 100.552307 180.130461 
L 101.506733 179.461997 
L 103.045547 178.627364 
z
" style="fill:#b7b7b7;fill-opacity:0.8;stroke:#000000;stroke-opacity:0.8;"/>
   </g>
  </g>
 </g>
 <defs>
  <clipPath id="p406293631a">
   <rect height="248.270951792" width="194.5746" x="31.383" y="31.033868974"/>
  </clipPath>
 </defs>
</svg>
