<?xml version="1.0" encoding="utf-8" standalone="no"?>
<!DOCTYPE svg PUBLIC "-//W3C//DTD SVG 1.1//EN"
  "http://www.w3.org/Graphics/SVG/1.1/DTD/svg11.dtd">
<!-- Created with matplotlib (http://matplotlib.org/) -->
<svg height="62pt" version="1.1" viewBox="0 0 100 62" width="100pt" xmlns="http://www.w3.org/2000/svg" xmlns:xlink="http://www.w3.org/1999/xlink">
 <defs>
  <style type="text/css">
*{stroke-linecap:butt;stroke-linejoin:round;stroke-miterlimit:100000;}
  </style>
 </defs>
 <g id="figure_1">
  <g id="patch_1">
   <path d="M 0 62.067738 
L 100.4256 62.067738 
L 100.4256 0 
L 0 0 
z
" style="fill:#ffffff;"/>
  </g>
  <g id="axes_1">
   <g id="patch_2">
    <path d="M 22.093632 57.722996 
L 90.38304 57.722996 
L 90.38304 1.862032 
L 22.093632 1.862032 
z
" style="fill:#ffffff;"/>
   </g>
   <g id="line2d_1">
    <path clip-path="url(#p974c1ea1a6)" d="M 56.238336 11.172193 
L 78.558892 -1 
L 78.558892 -1 
" style="fill:none;stroke:#ff0000;stroke-linecap:square;"/>
   </g>
   <g id="line2d_2">
    <path clip-path="url(#p974c1ea1a6)" d="M 22.093632 20.482354 
L 22.435079 20.481423 
L 22.776526 20.478629 
L 23.117973 20.473974 
L 23.45942 20.467457 
L 23.800867 20.459078 
L 24.142314 20.448837 
L 24.483761 20.436734 
L 24.825208 20.422768 
L 25.166655 20.406941 
L 25.508102 20.389252 
L 25.849549 20.369701 
L 26.190996 20.348287 
L 26.532444 20.325012 
L 26.873891 20.299874 
L 27.215338 20.272875 
L 27.556785 20.244013 
L 27.898232 20.21329 
L 28.239679 20.180704 
L 28.581126 20.146257 
L 28.922573 20.109947 
L 29.26402 20.071775 
L 29.605467 20.031742 
L 29.946914 19.989846 
L 30.288361 19.946088 
L 30.629808 19.900468 
L 30.971255 19.852987 
L 31.312702 19.803643 
L 31.654149 19.752437 
L 31.995596 19.699369 
L 32.337043 19.644439 
L 32.67849 19.587647 
L 33.019937 19.528993 
L 33.361384 19.468477 
L 33.702831 19.406099 
L 34.044278 19.341859 
L 34.385725 19.275757 
L 34.727172 19.207793 
L 35.06862 19.137966 
L 35.410067 19.066278 
L 35.751514 18.992728 
L 36.092961 18.917316 
L 36.434408 18.840041 
L 36.775855 18.760905 
L 37.117302 18.679906 
L 37.458749 18.597046 
L 37.800196 18.512324 
L 38.141643 18.425739 
L 38.48309 18.337292 
L 38.824537 18.246984 
L 39.165984 18.154813 
L 39.507431 18.060781 
L 39.848878 17.964886 
L 40.190325 17.867129 
L 40.531772 17.767511 
L 40.873219 17.66603 
L 41.214666 17.562687 
L 41.556113 17.457482 
L 41.89756 17.350415 
L 42.239007 17.241487 
L 42.580454 17.130696 
L 42.921901 17.018043 
L 43.263348 16.903528 
L 43.604796 16.787151 
L 43.946243 16.668912 
L 44.28769 16.548811 
L 44.629137 16.426848 
L 44.970584 16.303022 
L 45.312031 16.177335 
L 45.653478 16.049786 
L 45.994925 15.920375 
L 46.336372 15.789102 
L 46.677819 15.655966 
L 47.019266 15.520969 
L 47.360713 15.38411 
L 47.70216 15.245388 
L 48.043607 15.104805 
L 48.385054 14.962359 
L 48.726501 14.818052 
L 49.067948 14.671882 
L 49.409395 14.523851 
L 49.750842 14.373957 
L 50.092289 14.222201 
L 50.433736 14.068584 
L 50.775183 13.913104 
L 51.11663 13.755762 
L 51.458077 13.596559 
L 51.799524 13.435493 
L 52.140972 13.272565 
L 52.482419 13.107775 
L 52.823866 12.941123 
L 53.165313 12.772609 
L 53.50676 12.602234 
L 53.848207 12.429996 
L 54.189654 12.255896 
L 54.531101 12.079933 
L 54.872548 11.902109 
L 55.213995 11.722423 
L 55.555442 11.540875 
L 55.896889 11.357465 
L 56.238336 11.172193 
" style="fill:none;stroke:#ff0000;stroke-linecap:square;"/>
   </g>
   <g id="line2d_3">
    <defs>
     <path d="M 0 0.875 
C 0.232053 0.875 0.454632 0.782804 0.618718 0.618718 
C 0.782804 0.454632 0.875 0.232053 0.875 0 
C 0.875 -0.232053 0.782804 -0.454632 0.618718 -0.618718 
C 0.454632 -0.782804 0.232053 -0.875 0 -0.875 
C -0.232053 -0.875 -0.454632 -0.782804 -0.618718 -0.618718 
C -0.782804 -0.454632 -0.875 -0.232053 -0.875 0 
C -0.875 0.232053 -0.782804 0.454632 -0.618718 0.618718 
C -0.454632 0.782804 -0.232053 0.875 0 0.875 
z
" id="maea1dc36fb" style="stroke:#ff0000;stroke-width:0.5;"/>
    </defs>
    <g clip-path="url(#p974c1ea1a6)">
     <use style="fill:#ff0000;stroke:#ff0000;stroke-width:0.5;" x="56.238336" xlink:href="#maea1dc36fb" y="11.1721928307"/>
    </g>
   </g>
   <g id="line2d_4">
    <path clip-path="url(#p974c1ea1a6)" d="M 22.093632 29.792514 
L 83.111519 63.067738 
L 83.111519 63.067738 
" style="fill:none;stroke:#ff0000;stroke-linecap:square;"/>
   </g>
   <g id="line2d_5">
    <path clip-path="url(#p974c1ea1a6)" d="M 22.093632 29.792514 
L 22.435079 29.606311 
L 22.776526 29.420108 
L 23.117973 29.233905 
L 23.45942 29.047701 
L 23.800867 28.861498 
L 24.142314 28.675295 
L 24.483761 28.489092 
L 24.825208 28.302889 
L 25.166655 28.116685 
L 25.508102 27.930482 
L 25.849549 27.744279 
L 26.190996 27.558076 
L 26.532444 27.371872 
L 26.873891 27.185669 
L 27.215338 26.999466 
L 27.556785 26.813263 
L 27.898232 26.62706 
L 28.239679 26.440856 
L 28.581126 26.254653 
L 28.922573 26.06845 
L 29.26402 25.882247 
L 29.605467 25.696044 
L 29.946914 25.50984 
L 30.288361 25.323637 
L 30.629808 25.137434 
L 30.971255 24.951231 
L 31.312702 24.765027 
L 31.654149 24.578824 
L 31.995596 24.392621 
L 32.337043 24.206418 
L 32.67849 24.020215 
L 33.019937 23.834011 
L 33.361384 23.647808 
L 33.702831 23.461605 
L 34.044278 23.275402 
L 34.385725 23.089199 
L 34.727172 22.902995 
L 35.06862 22.716792 
L 35.410067 22.530589 
L 35.751514 22.344386 
L 36.092961 22.158182 
L 36.434408 21.971979 
L 36.775855 21.785776 
L 37.117302 21.599573 
L 37.458749 21.41337 
L 37.800196 21.227166 
L 38.141643 21.040963 
L 38.48309 20.85476 
L 38.824537 20.668557 
L 39.165984 20.482354 
" style="fill:none;stroke:#ff0000;stroke-linecap:square;"/>
   </g>
   <g id="patch_3">
    <path d="M 90.38304 57.722996 
L 90.38304 1.862032 
" style="fill:none;stroke:#000000;stroke-linecap:square;stroke-linejoin:miter;"/>
   </g>
   <g id="patch_4">
    <path d="M 22.093632 57.722996 
L 22.093632 1.862032 
" style="fill:none;stroke:#000000;stroke-linecap:square;stroke-linejoin:miter;"/>
   </g>
   <g id="patch_5">
    <path d="M 22.093632 57.722996 
L 90.38304 57.722996 
" style="fill:none;stroke:#000000;stroke-linecap:square;stroke-linejoin:miter;"/>
   </g>
   <g id="patch_6">
    <path d="M 22.093632 1.862032 
L 90.38304 1.862032 
" style="fill:none;stroke:#000000;stroke-linecap:square;stroke-linejoin:miter;"/>
   </g>
   <g id="matplotlib.axis_1">
    <g id="xtick_1">
     <g id="line2d_6">
      <defs>
       <path d="M 0 0 
L 0 -4 
" id="me8ee1c898c" style="stroke:#000000;stroke-width:0.5;"/>
      </defs>
      <g>
       <use style="stroke:#000000;stroke-width:0.5;" x="22.093632" xlink:href="#me8ee1c898c" y="57.7229962917"/>
      </g>
     </g>
     <g id="line2d_7">
      <defs>
       <path d="M 0 0 
L 0 4 
" id="mfaa3c843d2" style="stroke:#000000;stroke-width:0.5;"/>
      </defs>
      <g>
       <use style="stroke:#000000;stroke-width:0.5;" x="22.093632" xlink:href="#mfaa3c843d2" y="1.86203213844"/>
      </g>
     </g>
     <g id="text_1">
      <text style="font-family:Bitstream Vera Sans;font-size:6.0px;font-style:normal;font-weight:400;text-anchor:middle;" transform="rotate(-0.000000, 22.093632, 66.282059)" x="22.093632" y="66.2820587917">0</text>
     </g>
    </g>
    <g id="xtick_2">
     <g id="line2d_8">
      <g>
       <use style="stroke:#000000;stroke-width:0.5;" x="56.238336" xlink:href="#me8ee1c898c" y="57.7229962917"/>
      </g>
     </g>
     <g id="line2d_9">
      <g>
       <use style="stroke:#000000;stroke-width:0.5;" x="56.238336" xlink:href="#mfaa3c843d2" y="1.86203213844"/>
      </g>
     </g>
     <g id="text_2">
      <text style="font-family:Bitstream Vera Sans;font-size:6.0px;font-style:normal;font-weight:400;text-anchor:middle;" transform="rotate(-0.000000, 56.238336, 66.282059)" x="56.238336" y="66.2820587917">1</text>
     </g>
    </g>
    <g id="xtick_3">
     <g id="line2d_10">
      <g>
       <use style="stroke:#000000;stroke-width:0.5;" x="90.38304" xlink:href="#me8ee1c898c" y="57.7229962917"/>
      </g>
     </g>
     <g id="line2d_11">
      <g>
       <use style="stroke:#000000;stroke-width:0.5;" x="90.38304" xlink:href="#mfaa3c843d2" y="1.86203213844"/>
      </g>
     </g>
     <g id="text_3">
      <text style="font-family:Bitstream Vera Sans;font-size:6.0px;font-style:normal;font-weight:400;text-anchor:middle;" transform="rotate(-0.000000, 90.383040, 66.282059)" x="90.38304" y="66.2820587917">2</text>
     </g>
    </g>
    <g id="text_4">
     <!-- $\phi^r_{2}$ -->
     <g transform="translate(50.738336 79.6079962917)">
      <text>
       <tspan style="font-family:cmmi10;font-size:10.0px;font-style:regular;font-weight:regular;" x="0.0" y="-0.0625">Á</tspan>
       <tspan style="font-family:cmmi10;font-size:7.0px;font-style:regular;font-weight:regular;" x="7.1114140625" y="-3.8889062500000002">r</tspan>
       <tspan style="font-family:cmr10;font-size:7.0px;font-style:regular;font-weight:regular;" x="5.9521484375" y="2.4884375">2</tspan>
      </text>
     </g>
    </g>
   </g>
   <g id="matplotlib.axis_2">
    <g id="ytick_1">
     <g id="line2d_12">
      <defs>
       <path d="M 0 0 
L 4 0 
" id="m617ce72559" style="stroke:#000000;stroke-width:0.5;"/>
      </defs>
      <g>
       <use style="stroke:#000000;stroke-width:0.5;" x="22.093632" xlink:href="#m617ce72559" y="20.4823535229"/>
      </g>
     </g>
     <g id="line2d_13">
      <defs>
       <path d="M 0 0 
L -4 0 
" id="m3af269493c" style="stroke:#000000;stroke-width:0.5;"/>
      </defs>
      <g>
       <use style="stroke:#000000;stroke-width:0.5;" x="90.38304" xlink:href="#m3af269493c" y="20.4823535229"/>
      </g>
     </g>
     <g id="text_5">
      <text style="font-family:Bitstream Vera Sans;font-size:6.0px;font-style:normal;font-weight:400;text-anchor:end;" transform="rotate(-0.000000, 18.093632, 22.137979)" x="18.093632" y="22.1379785229">0</text>
     </g>
    </g>
    <g id="ytick_2">
     <g id="line2d_14">
      <g>
       <use style="stroke:#000000;stroke-width:0.5;" x="22.093632" xlink:href="#m617ce72559" y="39.1026749073"/>
      </g>
     </g>
     <g id="line2d_15">
      <g>
       <use style="stroke:#000000;stroke-width:0.5;" x="90.38304" xlink:href="#m3af269493c" y="39.1026749073"/>
      </g>
     </g>
     <g id="text_6">
      <text style="font-family:Bitstream Vera Sans;font-size:6.0px;font-style:normal;font-weight:400;text-anchor:end;" transform="rotate(-0.000000, 18.093632, 40.758300)" x="18.093632" y="40.7582999073">−1</text>
     </g>
    </g>
    <g id="ytick_3">
     <g id="line2d_16">
      <g>
       <use style="stroke:#000000;stroke-width:0.5;" x="22.093632" xlink:href="#m617ce72559" y="1.86203213844"/>
      </g>
     </g>
     <g id="line2d_17">
      <g>
       <use style="stroke:#000000;stroke-width:0.5;" x="90.38304" xlink:href="#m3af269493c" y="1.86203213844"/>
      </g>
     </g>
     <g id="text_7">
      <text style="font-family:Bitstream Vera Sans;font-size:6.0px;font-style:normal;font-weight:400;text-anchor:end;" transform="rotate(-0.000000, 18.093632, 3.517657)" x="18.093632" y="3.51765713844">1</text>
     </g>
    </g>
    <g id="ytick_4">
     <g id="line2d_18">
      <g>
       <use style="stroke:#000000;stroke-width:0.5;" x="22.093632" xlink:href="#m617ce72559" y="57.7229962917"/>
      </g>
     </g>
     <g id="line2d_19">
      <g>
       <use style="stroke:#000000;stroke-width:0.5;" x="90.38304" xlink:href="#m3af269493c" y="57.7229962917"/>
      </g>
     </g>
     <g id="text_8">
      <text style="font-family:Bitstream Vera Sans;font-size:6.0px;font-style:normal;font-weight:400;text-anchor:end;" transform="rotate(-0.000000, 18.093632, 59.378621)" x="18.093632" y="59.3786212917">−2</text>
     </g>
    </g>
    <g id="text_9">
     <!-- $E$ -->
     <g transform="translate(2.168632 33.4925142151)rotate(-90.0)">
      <text>
       <tspan style="font-family:cmmi10;font-size:10.0px;font-style:regular;font-weight:regular;" x="0.0" y="-0.171875">E</tspan>
      </text>
     </g>
    </g>
   </g>
  </g>
 </g>
 <defs>
  <clipPath id="p974c1ea1a6">
   <rect height="55.8609641533" width="68.289408" x="22.093632" y="1.86203213844"/>
  </clipPath>
 </defs>
</svg>
