<?xml version="1.0" encoding="utf-8" standalone="no"?>
<!DOCTYPE svg PUBLIC "-//W3C//DTD SVG 1.1//EN"
  "http://www.w3.org/Graphics/SVG/1.1/DTD/svg11.dtd">
<!-- Created with matplotlib (http://matplotlib.org/) -->
<svg height="155pt" version="1.1" viewBox="0 0 83 155" width="83pt" xmlns="http://www.w3.org/2000/svg" xmlns:xlink="http://www.w3.org/1999/xlink">
 <defs>
  <style type="text/css">
*{stroke-linecap:butt;stroke-linejoin:round;stroke-miterlimit:100000;}
  </style>
 </defs>
 <g id="figure_1">
  <g id="patch_1">
   <path d="M 0 155.169345 
L 83.688 155.169345 
L 83.688 0 
L 0 0 
z
" style="fill:#ffffff;"/>
  </g>
  <g id="axes_1">
   <g id="patch_2">
    <path d="M 18.41136 144.307491 
L 75.3192 144.307491 
L 75.3192 4.65508 
L 18.41136 4.65508 
z
" style="fill:#ffffff;"/>
   </g>
   <g id="PolyCollection_1">
    <path clip-path="url(#pe7cb7c2cf1)" d="M 18.41136 4.65508 
L 18.41136 4.65508 
L 21.256752 4.794733 
L 24.102144 5.21369 
L 26.947536 5.911952 
L 29.792928 6.889519 
L 32.63832 8.146391 
L 35.483712 9.682567 
L 38.329104 11.498048 
L 41.174496 13.592835 
L 44.019888 15.966926 
L 46.86528 18.620321 
L 49.710672 21.553022 
L 52.556064 24.765027 
L 55.401456 28.256338 
L 58.246848 32.026953 
L 61.09224 36.076873 
L 63.937632 40.406097 
L 66.783024 45.014627 
L 69.628416 49.902461 
L 72.473808 55.0696 
L 75.3192 60.516044 
L 78.164592 66.241793 
L 81.009984 72.246847 
L 83.855376 78.531205 
L 86.700768 85.094869 
L 89.54616 91.937837 
L 92.391552 99.06011 
L 95.236944 106.461688 
L 98.082336 114.14257 
L 100.927728 122.102757 
L 103.77312 130.34225 
L 106.618512 138.861047 
L 109.463904 147.659149 
L 112.309296 156.736555 
L 115.154688 166.093267 
L 118.00008 175.729283 
L 120.845472 185.644604 
L 123.690864 195.83923 
L 126.536256 206.313161 
L 129.381648 217.066397 
L 132.22704 228.098937 
L 135.072432 239.410782 
L 137.917824 251.001932 
L 140.763216 262.872387 
L 143.608608 275.022147 
L 146.454 287.451211 
L 149.299392 300.159581 
L 152.144784 313.147255 
L 154.990176 326.414234 
L 157.835568 339.960518 
L 160.68096 353.786106 
L 160.68096 353.786106 
L 163.526352 367.751347 
L 166.371744 381.716588 
L 169.217136 395.681829 
L 172.062528 409.64707 
L 174.90792 423.612311 
L 177.753312 437.577553 
L 180.598704 451.542794 
L 183.444096 465.508035 
L 186.289488 479.473276 
L 189.13488 493.438517 
L 191.980272 507.403758 
L 194.825664 521.368999 
L 197.671056 535.33424 
L 200.516448 549.299481 
L 203.36184 563.264722 
L 206.207232 577.229963 
L 209.052624 591.195204 
L 211.898016 605.160445 
L 214.743408 619.125686 
L 217.5888 633.090927 
L 220.434192 647.056168 
L 223.279584 661.021409 
L 226.124976 674.98665 
L 228.970368 688.951891 
L 231.81576 702.917132 
L 234.661152 716.882373 
L 237.506544 730.847614 
L 240.351936 744.812855 
L 243.197328 758.778096 
L 246.04272 772.743337 
L 248.888112 786.708578 
L 251.733504 800.67382 
L 254.578896 814.639061 
L 257.424288 828.604302 
L 260.26968 842.569543 
L 263.115072 856.534784 
L 265.960464 870.500025 
L 268.805856 884.465266 
L 271.651248 898.430507 
L 274.49664 912.395748 
L 277.342032 926.360989 
L 280.187424 940.32623 
L 283.032816 954.291471 
L 285.878208 968.256712 
L 288.7236 982.221953 
L 291.568992 996.187194 
L 294.414384 1010.152435 
L 297.259776 1024.117676 
L 300.105168 1038.082917 
L 302.95056 1052.048158 
L 305.795952 1066.013399 
L 308.641344 1079.97864 
L 311.486736 1093.943881 
L 314.332128 1107.909122 
L 317.17752 1121.874363 
L 320.022912 1135.839604 
L 322.868304 1149.804845 
L 325.713696 1163.770087 
L 328.559088 1177.735328 
L 331.40448 1191.700569 
L 334.249872 1205.66581 
L 337.095264 1219.631051 
L 339.940656 1233.596292 
L 342.786048 1247.561533 
L 345.63144 1261.526774 
L 348.476832 1275.492015 
L 351.322224 1289.457256 
L 354.167616 1303.422497 
L 357.013008 1317.387738 
L 359.8584 1331.352979 
L 362.703792 1345.31822 
L 365.549184 1359.283461 
L 368.394576 1373.248702 
L 371.239968 1387.213943 
L 374.08536 1401.179184 
L 376.930752 1415.144425 
L 379.776144 1429.109666 
L 382.621536 1443.074907 
L 385.466928 1457.040148 
L 388.31232 1471.005389 
L 391.157712 1484.97063 
L 394.003104 1498.935871 
L 396.848496 1512.901112 
L 399.693888 1526.866354 
L 402.53928 1540.831595 
L 405.384672 1554.796836 
L 408.230064 1568.762077 
L 411.075456 1582.727318 
L 413.920848 1596.692559 
L 416.76624 1610.6578 
L 419.611632 1624.623041 
L 422.457024 1638.588282 
L 425.302416 1652.553523 
L 428.147808 1666.518764 
L 430.9932 1680.484005 
L 433.838592 1694.449246 
L 436.683984 1708.414487 
L 439.529376 1722.379728 
L 442.374768 1736.344969 
L 445.22016 1750.31021 
L 448.065552 1764.275451 
L 450.910944 1778.240692 
L 453.756336 1792.205933 
L 456.601728 1806.171174 
L 459.44712 1820.136415 
L 462.292512 1834.101656 
L 465.137904 1848.066897 
L 467.983296 1862.032138 
L 470.828688 1875.997379 
L 473.67408 1889.962621 
L 476.519472 1903.927862 
L 479.364864 1917.893103 
L 482.210256 1931.858344 
L 485.055648 1945.823585 
L 487.90104 1959.788826 
L 490.746432 1973.754067 
L 493.591824 1987.719308 
L 496.437216 2001.684549 
L 499.282608 2015.64979 
L 502.128 2029.615031 
L 504.973392 2043.580272 
L 507.818784 2057.545513 
L 510.664176 2071.510754 
L 513.509568 2085.475995 
L 516.35496 2099.441236 
L 519.200352 2113.406477 
L 522.045744 2127.371718 
L 524.891136 2141.336959 
L 527.736528 2155.3022 
L 530.58192 2169.267441 
L 533.427312 2183.232682 
L 536.272704 2197.197923 
L 539.118096 2211.163164 
L 541.963488 2225.128405 
L 544.80888 2239.093646 
L 547.654272 2253.058888 
L 550.499664 2267.024129 
L 553.345056 2280.98937 
L 556.190448 2294.954611 
L 559.03584 2308.919852 
L 561.881232 2322.885093 
L 564.726624 2336.850334 
L 567.572016 2350.815575 
L 570.417408 2364.780816 
L 573.2628 2378.746057 
L 576.108192 2392.711298 
L 578.953584 2406.676539 
L 581.798976 2420.64178 
L 584.644368 2434.607021 
L 587.48976 2448.572262 
L 590.335152 2462.537503 
L 593.180544 2476.502744 
L 596.025936 2490.467985 
L 598.871328 2504.433226 
L 601.71672 2518.398467 
L 604.562112 2532.363708 
L 607.407504 2546.328949 
L 610.252896 2560.29419 
L 613.098288 2574.259431 
L 615.94368 2588.224672 
L 618.789072 2602.189913 
L 621.634464 2616.155155 
L 624.479856 2630.120396 
L 627.325248 2644.085637 
L 630.17064 2658.050878 
L 633.016032 2672.016119 
L 635.861424 2685.98136 
L 638.706816 2699.946601 
L 641.552208 2713.911842 
L 644.3976 2727.877083 
L 647.242992 2741.842324 
L 650.088384 2755.807565 
L 652.933776 2769.772806 
L 655.779168 2783.738047 
L 658.62456 2797.703288 
L 661.469952 2811.668529 
L 664.315344 2825.63377 
L 667.160736 2839.599011 
L 670.006128 2853.564252 
L 672.85152 2867.529493 
L 675.696912 2881.494734 
L 678.542304 2895.459975 
L 681.387696 2909.425216 
L 684.233088 2923.390457 
L 687.07848 2937.355698 
L 689.923872 2951.320939 
L 692.769264 2965.28618 
L 695.614656 2979.251422 
L 698.460048 2993.216663 
L 701.30544 3007.181904 
L 704.150832 3021.147145 
L 706.996224 3035.112386 
L 709.841616 3049.077627 
L 712.687008 3063.042868 
L 715.5324 3077.008109 
L 718.377792 3090.97335 
L 721.223184 3104.938591 
L 724.068576 3118.903832 
L 726.913968 3132.869073 
L 729.75936 3146.834314 
L 732.604752 3160.799555 
L 735.450144 3174.764796 
L 738.295536 3188.730037 
L 741.140928 3202.695278 
L 743.98632 3216.660519 
L 746.831712 3230.62576 
L 749.677104 3244.591001 
L 752.522496 3258.556242 
L 755.367888 3272.521483 
L 758.21328 3286.486724 
L 761.058672 3300.451965 
L 763.904064 3314.417206 
L 766.749456 3328.382447 
L 769.594848 3342.347689 
L 772.44024 3356.31293 
L 775.285632 3370.278171 
L 778.131024 3384.243412 
L 780.976416 3398.208653 
L 783.821808 3412.173894 
L 786.6672 3426.139135 
L 789.512592 3440.104376 
L 792.357984 3454.069617 
L 795.203376 3468.034858 
L 798.048768 3482.000099 
L 800.89416 3495.96534 
L 803.739552 3509.930581 
L 806.584944 3523.895822 
L 809.430336 3537.861063 
L 812.275728 3551.826304 
L 815.12112 3565.791545 
L 817.966512 3579.756786 
L 820.811904 3593.722027 
L 823.657296 3607.687268 
L 826.502688 3621.652509 
L 829.34808 3635.61775 
L 832.193472 3649.582991 
L 835.038864 3663.548232 
L 837.884256 3677.513473 
L 840.729648 3691.478714 
L 843.57504 3705.443956 
L 846.420432 3719.409197 
L 849.265824 3733.374438 
L 852.111216 3747.339679 
L 854.956608 3761.30492 
L 857.802 3775.270161 
L 860.647392 3789.235402 
L 863.492784 3803.200643 
L 866.338176 3817.165884 
L 869.183568 3831.131125 
L 872.02896 3845.096366 
L 874.874352 3859.061607 
L 877.719744 3873.026848 
L 880.565136 3886.992089 
L 883.410528 3900.95733 
L 886.25592 3914.922571 
L 889.101312 3928.887812 
L 891.946704 3942.853053 
L 894.792096 3956.818294 
L 897.637488 3970.783535 
L 900.48288 3984.748776 
L 903.328272 3998.714017 
L 906.173664 4012.679258 
L 909.019056 4026.644499 
L 911.864448 4040.60974 
L 914.70984 4054.574981 
L 917.555232 4068.540222 
L 920.400624 4082.505464 
L 923.246016 4096.470705 
L 926.091408 4110.435946 
L 928.9368 4124.401187 
L 931.782192 4138.366428 
L 934.627584 4152.331669 
L 937.472976 4166.29691 
L 940.318368 4180.262151 
L 943.16376 4194.227392 
L 946.009152 4208.192633 
L 948.854544 4222.157874 
L 951.699936 4236.123115 
L 954.545328 4250.088356 
L 957.39072 4264.053597 
L 960.236112 4278.018838 
L 963.081504 4291.984079 
L 965.926896 4305.94932 
L 968.772288 4319.914561 
L 971.61768 4333.879802 
L 974.463072 4347.845043 
L 977.308464 4361.810284 
L 980.153856 4375.775525 
L 982.999248 4389.740766 
L 985.84464 4403.706007 
L 988.690032 4417.671248 
L 991.535424 4431.636489 
L 994.380816 4445.601731 
L 997.226208 4459.566972 
L 1000.0716 4473.532213 
L 1002.916992 4487.497454 
L 1005.762384 4501.462695 
L 1008.607776 4515.427936 
L 1011.453168 4529.393177 
L 1014.29856 4543.358418 
L 1017.143952 4557.323659 
L 1019.989344 4571.2889 
L 1022.834736 4585.254141 
L 1025.680128 4599.219382 
L 1028.52552 4613.184623 
L 1031.370912 4627.149864 
L 1034.216304 4641.115105 
L 1037.061696 4655.080346 
L 1039.907088 4669.045587 
L 1042.75248 4683.010828 
L 1045.597872 4696.976069 
L 1048.443264 4710.94131 
L 1051.288656 4724.906551 
L 1054.134048 4738.871792 
L 1056.97944 4752.837033 
L 1059.824832 4766.802274 
L 1062.670224 4780.767515 
L 1065.515616 4794.732756 
L 1068.361008 4808.697998 
L 1071.2064 4822.663239 
L 1074.051792 4836.62848 
L 1076.897184 4850.593721 
L 1079.742576 4864.558962 
L 1082.587968 4878.524203 
L 1085.43336 4892.489444 
L 1088.278752 4906.454685 
L 1091.124144 4920.419926 
L 1093.969536 4934.385167 
L 1096.814928 4948.350408 
L 1099.66032 4962.315649 
L 1102.505712 4976.28089 
L 1105.351104 4990.246131 
L 1108.196496 5004.211372 
L 1111.041888 5018.176613 
L 1113.88728 5032.141854 
L 1116.732672 5046.107095 
L 1119.578064 5060.072336 
L 1122.423456 5074.037577 
L 1125.268848 5088.002818 
L 1128.11424 5101.968059 
L 1130.959632 5115.9333 
L 1133.805024 5129.898541 
L 1136.650416 5143.863782 
L 1139.495808 5157.829023 
L 1142.3412 5171.794265 
L 1145.186592 5185.759506 
L 1148.031984 5199.724747 
L 1150.877376 5213.689988 
L 1153.722768 5227.655229 
L 1156.56816 5241.62047 
L 1159.413552 5255.585711 
L 1162.258944 5269.550952 
L 1165.104336 5283.516193 
L 1167.949728 5297.481434 
L 1170.79512 5311.446675 
L 1173.640512 5325.411916 
L 1176.485904 5339.377157 
L 1179.331296 5353.342398 
L 1182.176688 5367.307639 
L 1185.02208 5381.27288 
L 1187.867472 5395.238121 
L 1190.712864 5409.203362 
L 1193.558256 5423.168603 
L 1196.403648 5437.133844 
L 1199.24904 5451.099085 
L 1202.094432 5465.064326 
L 1204.939824 5479.029567 
L 1207.785216 5492.994808 
L 1210.630608 5506.960049 
L 1213.476 5520.92529 
L 1216.321392 5534.890532 
L 1219.166784 5548.855773 
L 1222.012176 5562.821014 
L 1224.857568 5576.786255 
L 1227.70296 5590.751496 
L 1230.548352 5604.716737 
L 1233.393744 5618.681978 
L 1236.239136 5632.647219 
L 1239.084528 5646.61246 
L 1241.92992 5660.577701 
L 1244.775312 5674.542942 
L 1247.620704 5688.508183 
L 1250.466096 5702.473424 
L 1253.311488 5716.438665 
L 1256.15688 5730.403906 
L 1259.002272 5744.369147 
L 1261.847664 5758.334388 
L 1264.693056 5772.299629 
L 1267.538448 5786.26487 
L 1270.38384 5800.230111 
L 1273.229232 5814.195352 
L 1276.074624 5828.160593 
L 1278.920016 5842.125834 
L 1281.765408 5856.091075 
L 1284.6108 5870.056316 
L 1287.456192 5884.021557 
L 1290.301584 5897.986799 
L 1293.146976 5911.95204 
L 1295.992368 5925.917281 
L 1298.83776 5939.882522 
L 1301.683152 5953.847763 
L 1304.528544 5967.813004 
L 1307.373936 5981.778245 
L 1310.219328 5995.743486 
L 1313.06472 6009.708727 
L 1315.910112 6023.673968 
L 1318.755504 6037.639209 
L 1321.600896 6051.60445 
L 1324.446288 6065.569691 
L 1327.29168 6079.534932 
L 1330.137072 6093.500173 
L 1332.982464 6107.465414 
L 1335.827856 6121.430655 
L 1338.673248 6135.395896 
L 1341.51864 6149.361137 
L 1344.364032 6163.326378 
L 1347.209424 6177.291619 
L 1350.054816 6191.25686 
L 1352.900208 6205.222101 
L 1355.7456 6219.187342 
L 1358.590992 6233.152583 
L 1361.436384 6247.117824 
L 1364.281776 6261.083066 
L 1367.127168 6275.048307 
L 1369.97256 6289.013548 
L 1372.817952 6302.978789 
L 1375.663344 6316.94403 
L 1378.508736 6330.909271 
L 1381.354128 6344.874512 
L 1384.19952 6358.839753 
L 1387.044912 6372.804994 
L 1389.890304 6386.770235 
L 1392.735696 6400.735476 
L 1395.581088 6414.700717 
L 1398.42648 6428.665958 
L 1401.271872 6442.631199 
L 1404.117264 6456.59644 
L 1406.962656 6470.561681 
L 1409.808048 6484.526922 
L 1412.65344 6498.492163 
L 1415.498832 6512.457404 
L 1418.344224 6526.422645 
L 1421.189616 6540.387886 
L 1424.035008 6554.353127 
L 1426.8804 6568.318368 
L 1429.725792 6582.283609 
L 1432.571184 6596.24885 
L 1435.416576 6610.214091 
L 1438.261968 6624.179333 
L 1441.10736 6638.144574 
L 1443.952752 6652.109815 
L 1446.798144 6666.075056 
L 1449.643536 6680.040297 
L 1452.488928 6694.005538 
L 1455.33432 6707.970779 
L 1458.179712 6721.93602 
L 1461.025104 6735.901261 
L 1463.870496 6749.866502 
L 1466.715888 6763.831743 
L 1469.56128 6777.796984 
L 1472.406672 6791.762225 
L 1475.252064 6805.727466 
L 1478.097456 6819.692707 
L 1480.942848 6833.657948 
L 1483.78824 6847.623189 
L 1486.633632 6861.58843 
L 1489.479024 6875.553671 
L 1492.324416 6889.518912 
L 1495.169808 6903.484153 
L 1498.0152 6917.449394 
L 1500.860592 6931.414635 
L 1503.705984 6945.379876 
L 1506.551376 6959.345117 
L 1509.396768 6973.310358 
L 1512.24216 6987.2756 
L 1515.087552 7001.240841 
L 1517.932944 7015.206082 
L 1520.778336 7029.171323 
L 1523.623728 7043.136564 
L 1526.46912 7057.101805 
L 1529.314512 7071.067046 
L 1532.159904 7085.032287 
L 1535.005296 7098.997528 
L 1537.850688 7112.962769 
L 1540.69608 7126.92801 
L 1543.541472 7140.893251 
L 1546.386864 7154.858492 
L 1549.232256 7168.823733 
L 1552.077648 7182.788974 
L 1554.92304 7196.754215 
L 1557.768432 7210.719456 
L 1560.613824 7224.684697 
L 1563.459216 7238.649938 
L 1566.304608 7252.615179 
L 1569.15 7266.58042 
L 1571.995392 7280.545661 
L 1574.840784 7294.510902 
L 1577.686176 7308.476143 
L 1580.531568 7322.441384 
L 1583.37696 7336.406625 
L 1586.222352 7350.371867 
L 1589.067744 7364.337108 
L 1591.913136 7378.302349 
L 1594.758528 7392.26759 
L 1597.60392 7406.232831 
L 1600.449312 7420.198072 
L 1603.294704 7434.163313 
L 1606.140096 7448.128554 
L 1608.985488 7462.093795 
L 1611.83088 7476.059036 
L 1614.676272 7490.024277 
L 1617.521664 7503.989518 
L 1620.367056 7517.954759 
L 1623.212448 7531.92 
L 1626.05784 7545.885241 
L 1628.903232 7559.850482 
L 1631.748624 7573.815723 
L 1634.594016 7587.780964 
L 1637.439408 7601.746205 
L 1640.2848 7615.711446 
L 1643.130192 7629.676687 
L 1645.975584 7643.641928 
L 1648.820976 7657.607169 
L 1651.666368 7671.57241 
L 1654.51176 7685.537651 
L 1657.357152 7699.502892 
L 1660.202544 7713.468133 
L 1663.047936 7727.433375 
L 1665.893328 7741.398616 
L 1668.73872 7755.363857 
L 1671.584112 7769.329098 
L 1674.429504 7783.294339 
L 1677.274896 7797.25958 
L 1680.120288 7811.224821 
L 1682.96568 7825.190062 
L 1685.811072 7839.155303 
L 1688.656464 7853.120544 
L 1691.501856 7867.085785 
L 1694.347248 7881.051026 
L 1697.19264 7895.016267 
L 1700.038032 7908.981508 
L 1702.883424 7922.946749 
L 1705.728816 7936.91199 
L 1708.574208 7950.877231 
L 1711.4196 7964.842472 
L 1714.264992 7978.807713 
L 1717.110384 7992.772954 
L 1719.955776 8006.738195 
L 1722.801168 8020.703436 
L 1725.64656 8034.668677 
L 1728.491952 8048.633918 
L 1731.337344 8062.599159 
L 1734.182736 8076.5644 
L 1737.028128 8090.529642 
L 1739.87352 8104.494883 
L 1742.718912 8118.460124 
L 1745.564304 8132.425365 
L 1748.409696 8146.390606 
L 1751.255088 8160.355847 
L 1754.10048 8174.321088 
L 1756.945872 8188.286329 
L 1759.791264 8202.25157 
L 1762.636656 8216.216811 
L 1765.482048 8230.182052 
L 1768.32744 8244.147293 
L 1771.172832 8258.112534 
L 1774.018224 8272.077775 
L 1776.863616 8286.043016 
L 1779.709008 8300.008257 
L 1782.5544 8313.973498 
L 1785.399792 8327.938739 
L 1788.245184 8341.90398 
L 1791.090576 8355.869221 
L 1793.935968 8369.834462 
L 1796.78136 8383.799703 
L 1799.626752 8397.764944 
L 1802.472144 8411.730185 
L 1805.317536 8425.695426 
L 1808.162928 8439.660667 
L 1811.00832 8453.625909 
L 1813.853712 8467.59115 
L 1816.699104 8481.556391 
L 1819.544496 8495.521632 
L 1822.389888 8509.486873 
L 1825.23528 8523.452114 
L 1828.080672 8537.417355 
L 1830.926064 8551.382596 
L 1833.771456 8565.347837 
L 1836.616848 8579.313078 
L 1839.46224 8593.278319 
L 1842.307632 8607.24356 
L 1845.153024 8621.208801 
L 1847.998416 8635.174042 
L 1850.843808 8649.139283 
L 1853.6892 8663.104524 
L 1856.534592 8677.069765 
L 1859.379984 8691.035006 
L 1862.225376 8705.000247 
L 1865.070768 8718.965488 
L 1867.91616 8732.930729 
L 1867.91616 4.65508 
L 1867.91616 4.65508 
L 1865.070768 4.65508 
L 1862.225376 4.65508 
L 1859.379984 4.65508 
L 1856.534592 4.65508 
L 1853.6892 4.65508 
L 1850.843808 4.65508 
L 1847.998416 4.65508 
L 1845.153024 4.65508 
L 1842.307632 4.65508 
L 1839.46224 4.65508 
L 1836.616848 4.65508 
L 1833.771456 4.65508 
L 1830.926064 4.65508 
L 1828.080672 4.65508 
L 1825.23528 4.65508 
L 1822.389888 4.65508 
L 1819.544496 4.65508 
L 1816.699104 4.65508 
L 1813.853712 4.65508 
L 1811.00832 4.65508 
L 1808.162928 4.65508 
L 1805.317536 4.65508 
L 1802.472144 4.65508 
L 1799.626752 4.65508 
L 1796.78136 4.65508 
L 1793.935968 4.65508 
L 1791.090576 4.65508 
L 1788.245184 4.65508 
L 1785.399792 4.65508 
L 1782.5544 4.65508 
L 1779.709008 4.65508 
L 1776.863616 4.65508 
L 1774.018224 4.65508 
L 1771.172832 4.65508 
L 1768.32744 4.65508 
L 1765.482048 4.65508 
L 1762.636656 4.65508 
L 1759.791264 4.65508 
L 1756.945872 4.65508 
L 1754.10048 4.65508 
L 1751.255088 4.65508 
L 1748.409696 4.65508 
L 1745.564304 4.65508 
L 1742.718912 4.65508 
L 1739.87352 4.65508 
L 1737.028128 4.65508 
L 1734.182736 4.65508 
L 1731.337344 4.65508 
L 1728.491952 4.65508 
L 1725.64656 4.65508 
L 1722.801168 4.65508 
L 1719.955776 4.65508 
L 1717.110384 4.65508 
L 1714.264992 4.65508 
L 1711.4196 4.65508 
L 1708.574208 4.65508 
L 1705.728816 4.65508 
L 1702.883424 4.65508 
L 1700.038032 4.65508 
L 1697.19264 4.65508 
L 1694.347248 4.65508 
L 1691.501856 4.65508 
L 1688.656464 4.65508 
L 1685.811072 4.65508 
L 1682.96568 4.65508 
L 1680.120288 4.65508 
L 1677.274896 4.65508 
L 1674.429504 4.65508 
L 1671.584112 4.65508 
L 1668.73872 4.65508 
L 1665.893328 4.65508 
L 1663.047936 4.65508 
L 1660.202544 4.65508 
L 1657.357152 4.65508 
L 1654.51176 4.65508 
L 1651.666368 4.65508 
L 1648.820976 4.65508 
L 1645.975584 4.65508 
L 1643.130192 4.65508 
L 1640.2848 4.65508 
L 1637.439408 4.65508 
L 1634.594016 4.65508 
L 1631.748624 4.65508 
L 1628.903232 4.65508 
L 1626.05784 4.65508 
L 1623.212448 4.65508 
L 1620.367056 4.65508 
L 1617.521664 4.65508 
L 1614.676272 4.65508 
L 1611.83088 4.65508 
L 1608.985488 4.65508 
L 1606.140096 4.65508 
L 1603.294704 4.65508 
L 1600.449312 4.65508 
L 1597.60392 4.65508 
L 1594.758528 4.65508 
L 1591.913136 4.65508 
L 1589.067744 4.65508 
L 1586.222352 4.65508 
L 1583.37696 4.65508 
L 1580.531568 4.65508 
L 1577.686176 4.65508 
L 1574.840784 4.65508 
L 1571.995392 4.65508 
L 1569.15 4.65508 
L 1566.304608 4.65508 
L 1563.459216 4.65508 
L 1560.613824 4.65508 
L 1557.768432 4.65508 
L 1554.92304 4.65508 
L 1552.077648 4.65508 
L 1549.232256 4.65508 
L 1546.386864 4.65508 
L 1543.541472 4.65508 
L 1540.69608 4.65508 
L 1537.850688 4.65508 
L 1535.005296 4.65508 
L 1532.159904 4.65508 
L 1529.314512 4.65508 
L 1526.46912 4.65508 
L 1523.623728 4.65508 
L 1520.778336 4.65508 
L 1517.932944 4.65508 
L 1515.087552 4.65508 
L 1512.24216 4.65508 
L 1509.396768 4.65508 
L 1506.551376 4.65508 
L 1503.705984 4.65508 
L 1500.860592 4.65508 
L 1498.0152 4.65508 
L 1495.169808 4.65508 
L 1492.324416 4.65508 
L 1489.479024 4.65508 
L 1486.633632 4.65508 
L 1483.78824 4.65508 
L 1480.942848 4.65508 
L 1478.097456 4.65508 
L 1475.252064 4.65508 
L 1472.406672 4.65508 
L 1469.56128 4.65508 
L 1466.715888 4.65508 
L 1463.870496 4.65508 
L 1461.025104 4.65508 
L 1458.179712 4.65508 
L 1455.33432 4.65508 
L 1452.488928 4.65508 
L 1449.643536 4.65508 
L 1446.798144 4.65508 
L 1443.952752 4.65508 
L 1441.10736 4.65508 
L 1438.261968 4.65508 
L 1435.416576 4.65508 
L 1432.571184 4.65508 
L 1429.725792 4.65508 
L 1426.8804 4.65508 
L 1424.035008 4.65508 
L 1421.189616 4.65508 
L 1418.344224 4.65508 
L 1415.498832 4.65508 
L 1412.65344 4.65508 
L 1409.808048 4.65508 
L 1406.962656 4.65508 
L 1404.117264 4.65508 
L 1401.271872 4.65508 
L 1398.42648 4.65508 
L 1395.581088 4.65508 
L 1392.735696 4.65508 
L 1389.890304 4.65508 
L 1387.044912 4.65508 
L 1384.19952 4.65508 
L 1381.354128 4.65508 
L 1378.508736 4.65508 
L 1375.663344 4.65508 
L 1372.817952 4.65508 
L 1369.97256 4.65508 
L 1367.127168 4.65508 
L 1364.281776 4.65508 
L 1361.436384 4.65508 
L 1358.590992 4.65508 
L 1355.7456 4.65508 
L 1352.900208 4.65508 
L 1350.054816 4.65508 
L 1347.209424 4.65508 
L 1344.364032 4.65508 
L 1341.51864 4.65508 
L 1338.673248 4.65508 
L 1335.827856 4.65508 
L 1332.982464 4.65508 
L 1330.137072 4.65508 
L 1327.29168 4.65508 
L 1324.446288 4.65508 
L 1321.600896 4.65508 
L 1318.755504 4.65508 
L 1315.910112 4.65508 
L 1313.06472 4.65508 
L 1310.219328 4.65508 
L 1307.373936 4.65508 
L 1304.528544 4.65508 
L 1301.683152 4.65508 
L 1298.83776 4.65508 
L 1295.992368 4.65508 
L 1293.146976 4.65508 
L 1290.301584 4.65508 
L 1287.456192 4.65508 
L 1284.6108 4.65508 
L 1281.765408 4.65508 
L 1278.920016 4.65508 
L 1276.074624 4.65508 
L 1273.229232 4.65508 
L 1270.38384 4.65508 
L 1267.538448 4.65508 
L 1264.693056 4.65508 
L 1261.847664 4.65508 
L 1259.002272 4.65508 
L 1256.15688 4.65508 
L 1253.311488 4.65508 
L 1250.466096 4.65508 
L 1247.620704 4.65508 
L 1244.775312 4.65508 
L 1241.92992 4.65508 
L 1239.084528 4.65508 
L 1236.239136 4.65508 
L 1233.393744 4.65508 
L 1230.548352 4.65508 
L 1227.70296 4.65508 
L 1224.857568 4.65508 
L 1222.012176 4.65508 
L 1219.166784 4.65508 
L 1216.321392 4.65508 
L 1213.476 4.65508 
L 1210.630608 4.65508 
L 1207.785216 4.65508 
L 1204.939824 4.65508 
L 1202.094432 4.65508 
L 1199.24904 4.65508 
L 1196.403648 4.65508 
L 1193.558256 4.65508 
L 1190.712864 4.65508 
L 1187.867472 4.65508 
L 1185.02208 4.65508 
L 1182.176688 4.65508 
L 1179.331296 4.65508 
L 1176.485904 4.65508 
L 1173.640512 4.65508 
L 1170.79512 4.65508 
L 1167.949728 4.65508 
L 1165.104336 4.65508 
L 1162.258944 4.65508 
L 1159.413552 4.65508 
L 1156.56816 4.65508 
L 1153.722768 4.65508 
L 1150.877376 4.65508 
L 1148.031984 4.65508 
L 1145.186592 4.65508 
L 1142.3412 4.65508 
L 1139.495808 4.65508 
L 1136.650416 4.65508 
L 1133.805024 4.65508 
L 1130.959632 4.65508 
L 1128.11424 4.65508 
L 1125.268848 4.65508 
L 1122.423456 4.65508 
L 1119.578064 4.65508 
L 1116.732672 4.65508 
L 1113.88728 4.65508 
L 1111.041888 4.65508 
L 1108.196496 4.65508 
L 1105.351104 4.65508 
L 1102.505712 4.65508 
L 1099.66032 4.65508 
L 1096.814928 4.65508 
L 1093.969536 4.65508 
L 1091.124144 4.65508 
L 1088.278752 4.65508 
L 1085.43336 4.65508 
L 1082.587968 4.65508 
L 1079.742576 4.65508 
L 1076.897184 4.65508 
L 1074.051792 4.65508 
L 1071.2064 4.65508 
L 1068.361008 4.65508 
L 1065.515616 4.65508 
L 1062.670224 4.65508 
L 1059.824832 4.65508 
L 1056.97944 4.65508 
L 1054.134048 4.65508 
L 1051.288656 4.65508 
L 1048.443264 4.65508 
L 1045.597872 4.65508 
L 1042.75248 4.65508 
L 1039.907088 4.65508 
L 1037.061696 4.65508 
L 1034.216304 4.65508 
L 1031.370912 4.65508 
L 1028.52552 4.65508 
L 1025.680128 4.65508 
L 1022.834736 4.65508 
L 1019.989344 4.65508 
L 1017.143952 4.65508 
L 1014.29856 4.65508 
L 1011.453168 4.65508 
L 1008.607776 4.65508 
L 1005.762384 4.65508 
L 1002.916992 4.65508 
L 1000.0716 4.65508 
L 997.226208 4.65508 
L 994.380816 4.65508 
L 991.535424 4.65508 
L 988.690032 4.65508 
L 985.84464 4.65508 
L 982.999248 4.65508 
L 980.153856 4.65508 
L 977.308464 4.65508 
L 974.463072 4.65508 
L 971.61768 4.65508 
L 968.772288 4.65508 
L 965.926896 4.65508 
L 963.081504 4.65508 
L 960.236112 4.65508 
L 957.39072 4.65508 
L 954.545328 4.65508 
L 951.699936 4.65508 
L 948.854544 4.65508 
L 946.009152 4.65508 
L 943.16376 4.65508 
L 940.318368 4.65508 
L 937.472976 4.65508 
L 934.627584 4.65508 
L 931.782192 4.65508 
L 928.9368 4.65508 
L 926.091408 4.65508 
L 923.246016 4.65508 
L 920.400624 4.65508 
L 917.555232 4.65508 
L 914.70984 4.65508 
L 911.864448 4.65508 
L 909.019056 4.65508 
L 906.173664 4.65508 
L 903.328272 4.65508 
L 900.48288 4.65508 
L 897.637488 4.65508 
L 894.792096 4.65508 
L 891.946704 4.65508 
L 889.101312 4.65508 
L 886.25592 4.65508 
L 883.410528 4.65508 
L 880.565136 4.65508 
L 877.719744 4.65508 
L 874.874352 4.65508 
L 872.02896 4.65508 
L 869.183568 4.65508 
L 866.338176 4.65508 
L 863.492784 4.65508 
L 860.647392 4.65508 
L 857.802 4.65508 
L 854.956608 4.65508 
L 852.111216 4.65508 
L 849.265824 4.65508 
L 846.420432 4.65508 
L 843.57504 4.65508 
L 840.729648 4.65508 
L 837.884256 4.65508 
L 835.038864 4.65508 
L 832.193472 4.65508 
L 829.34808 4.65508 
L 826.502688 4.65508 
L 823.657296 4.65508 
L 820.811904 4.65508 
L 817.966512 4.65508 
L 815.12112 4.65508 
L 812.275728 4.65508 
L 809.430336 4.65508 
L 806.584944 4.65508 
L 803.739552 4.65508 
L 800.89416 4.65508 
L 798.048768 4.65508 
L 795.203376 4.65508 
L 792.357984 4.65508 
L 789.512592 4.65508 
L 786.6672 4.65508 
L 783.821808 4.65508 
L 780.976416 4.65508 
L 778.131024 4.65508 
L 775.285632 4.65508 
L 772.44024 4.65508 
L 769.594848 4.65508 
L 766.749456 4.65508 
L 763.904064 4.65508 
L 761.058672 4.65508 
L 758.21328 4.65508 
L 755.367888 4.65508 
L 752.522496 4.65508 
L 749.677104 4.65508 
L 746.831712 4.65508 
L 743.98632 4.65508 
L 741.140928 4.65508 
L 738.295536 4.65508 
L 735.450144 4.65508 
L 732.604752 4.65508 
L 729.75936 4.65508 
L 726.913968 4.65508 
L 724.068576 4.65508 
L 721.223184 4.65508 
L 718.377792 4.65508 
L 715.5324 4.65508 
L 712.687008 4.65508 
L 709.841616 4.65508 
L 706.996224 4.65508 
L 704.150832 4.65508 
L 701.30544 4.65508 
L 698.460048 4.65508 
L 695.614656 4.65508 
L 692.769264 4.65508 
L 689.923872 4.65508 
L 687.07848 4.65508 
L 684.233088 4.65508 
L 681.387696 4.65508 
L 678.542304 4.65508 
L 675.696912 4.65508 
L 672.85152 4.65508 
L 670.006128 4.65508 
L 667.160736 4.65508 
L 664.315344 4.65508 
L 661.469952 4.65508 
L 658.62456 4.65508 
L 655.779168 4.65508 
L 652.933776 4.65508 
L 650.088384 4.65508 
L 647.242992 4.65508 
L 644.3976 4.65508 
L 641.552208 4.65508 
L 638.706816 4.65508 
L 635.861424 4.65508 
L 633.016032 4.65508 
L 630.17064 4.65508 
L 627.325248 4.65508 
L 624.479856 4.65508 
L 621.634464 4.65508 
L 618.789072 4.65508 
L 615.94368 4.65508 
L 613.098288 4.65508 
L 610.252896 4.65508 
L 607.407504 4.65508 
L 604.562112 4.65508 
L 601.71672 4.65508 
L 598.871328 4.65508 
L 596.025936 4.65508 
L 593.180544 4.65508 
L 590.335152 4.65508 
L 587.48976 4.65508 
L 584.644368 4.65508 
L 581.798976 4.65508 
L 578.953584 4.65508 
L 576.108192 4.65508 
L 573.2628 4.65508 
L 570.417408 4.65508 
L 567.572016 4.65508 
L 564.726624 4.65508 
L 561.881232 4.65508 
L 559.03584 4.65508 
L 556.190448 4.65508 
L 553.345056 4.65508 
L 550.499664 4.65508 
L 547.654272 4.65508 
L 544.80888 4.65508 
L 541.963488 4.65508 
L 539.118096 4.65508 
L 536.272704 4.65508 
L 533.427312 4.65508 
L 530.58192 4.65508 
L 527.736528 4.65508 
L 524.891136 4.65508 
L 522.045744 4.65508 
L 519.200352 4.65508 
L 516.35496 4.65508 
L 513.509568 4.65508 
L 510.664176 4.65508 
L 507.818784 4.65508 
L 504.973392 4.65508 
L 502.128 4.65508 
L 499.282608 4.65508 
L 496.437216 4.65508 
L 493.591824 4.65508 
L 490.746432 4.65508 
L 487.90104 4.65508 
L 485.055648 4.65508 
L 482.210256 4.65508 
L 479.364864 4.65508 
L 476.519472 4.65508 
L 473.67408 4.65508 
L 470.828688 4.65508 
L 467.983296 4.65508 
L 465.137904 4.65508 
L 462.292512 4.65508 
L 459.44712 4.65508 
L 456.601728 4.65508 
L 453.756336 4.65508 
L 450.910944 4.65508 
L 448.065552 4.65508 
L 445.22016 4.65508 
L 442.374768 4.65508 
L 439.529376 4.65508 
L 436.683984 4.65508 
L 433.838592 4.65508 
L 430.9932 4.65508 
L 428.147808 4.65508 
L 425.302416 4.65508 
L 422.457024 4.65508 
L 419.611632 4.65508 
L 416.76624 4.65508 
L 413.920848 4.65508 
L 411.075456 4.65508 
L 408.230064 4.65508 
L 405.384672 4.65508 
L 402.53928 4.65508 
L 399.693888 4.65508 
L 396.848496 4.65508 
L 394.003104 4.65508 
L 391.157712 4.65508 
L 388.31232 4.65508 
L 385.466928 4.65508 
L 382.621536 4.65508 
L 379.776144 4.65508 
L 376.930752 4.65508 
L 374.08536 4.65508 
L 371.239968 4.65508 
L 368.394576 4.65508 
L 365.549184 4.65508 
L 362.703792 4.65508 
L 359.8584 4.65508 
L 357.013008 4.65508 
L 354.167616 4.65508 
L 351.322224 4.65508 
L 348.476832 4.65508 
L 345.63144 4.65508 
L 342.786048 4.65508 
L 339.940656 4.65508 
L 337.095264 4.65508 
L 334.249872 4.65508 
L 331.40448 4.65508 
L 328.559088 4.65508 
L 325.713696 4.65508 
L 322.868304 4.65508 
L 320.022912 4.65508 
L 317.17752 4.65508 
L 314.332128 4.65508 
L 311.486736 4.65508 
L 308.641344 4.65508 
L 305.795952 4.65508 
L 302.95056 4.65508 
L 300.105168 4.65508 
L 297.259776 4.65508 
L 294.414384 4.65508 
L 291.568992 4.65508 
L 288.7236 4.65508 
L 285.878208 4.65508 
L 283.032816 4.65508 
L 280.187424 4.65508 
L 277.342032 4.65508 
L 274.49664 4.65508 
L 271.651248 4.65508 
L 268.805856 4.65508 
L 265.960464 4.65508 
L 263.115072 4.65508 
L 260.26968 4.65508 
L 257.424288 4.65508 
L 254.578896 4.65508 
L 251.733504 4.65508 
L 248.888112 4.65508 
L 246.04272 4.65508 
L 243.197328 4.65508 
L 240.351936 4.65508 
L 237.506544 4.65508 
L 234.661152 4.65508 
L 231.81576 4.65508 
L 228.970368 4.65508 
L 226.124976 4.65508 
L 223.279584 4.65508 
L 220.434192 4.65508 
L 217.5888 4.65508 
L 214.743408 4.65508 
L 211.898016 4.65508 
L 209.052624 4.65508 
L 206.207232 4.65508 
L 203.36184 4.65508 
L 200.516448 4.65508 
L 197.671056 4.65508 
L 194.825664 4.65508 
L 191.980272 4.65508 
L 189.13488 4.65508 
L 186.289488 4.65508 
L 183.444096 4.65508 
L 180.598704 4.65508 
L 177.753312 4.65508 
L 174.90792 4.65508 
L 172.062528 4.65508 
L 169.217136 4.65508 
L 166.371744 4.65508 
L 163.526352 4.65508 
L 160.68096 4.65508 
L 160.68096 4.65508 
L 157.835568 4.65508 
L 154.990176 4.65508 
L 152.144784 4.65508 
L 149.299392 4.65508 
L 146.454 4.65508 
L 143.608608 4.65508 
L 140.763216 4.65508 
L 137.917824 4.65508 
L 135.072432 4.65508 
L 132.22704 4.65508 
L 129.381648 4.65508 
L 126.536256 4.65508 
L 123.690864 4.65508 
L 120.845472 4.65508 
L 118.00008 4.65508 
L 115.154688 4.65508 
L 112.309296 4.65508 
L 109.463904 4.65508 
L 106.618512 4.65508 
L 103.77312 4.65508 
L 100.927728 4.65508 
L 98.082336 4.65508 
L 95.236944 4.65508 
L 92.391552 4.65508 
L 89.54616 4.65508 
L 86.700768 4.65508 
L 83.855376 4.65508 
L 81.009984 4.65508 
L 78.164592 4.65508 
L 75.3192 4.65508 
L 72.473808 4.65508 
L 69.628416 4.65508 
L 66.783024 4.65508 
L 63.937632 4.65508 
L 61.09224 4.65508 
L 58.246848 4.65508 
L 55.401456 4.65508 
L 52.556064 4.65508 
L 49.710672 4.65508 
L 46.86528 4.65508 
L 44.019888 4.65508 
L 41.174496 4.65508 
L 38.329104 4.65508 
L 35.483712 4.65508 
L 32.63832 4.65508 
L 29.792928 4.65508 
L 26.947536 4.65508 
L 24.102144 4.65508 
L 21.256752 4.65508 
L 18.41136 4.65508 
z
" style="fill:#b22222;"/>
   </g>
   <g id="line2d_1">
    <path clip-path="url(#pe7cb7c2cf1)" d="M 18.41136 80.325972 
L 18.986187 80.495281 
L 19.561013 80.677287 
L 20.13584 80.871999 
L 20.710667 81.079427 
L 21.285493 81.299582 
L 21.86032 81.532474 
L 22.435147 81.778113 
L 23.009973 82.036509 
L 23.5848 82.307672 
L 24.159627 82.591612 
L 24.734453 82.888338 
L 25.30928 83.197861 
L 25.884107 83.52019 
L 26.458933 83.855334 
L 27.03376 84.203303 
L 27.608587 84.564107 
L 28.183413 84.937755 
L 28.75824 85.324255 
L 29.333067 85.723616 
L 29.907893 86.135849 
L 30.48272 86.56096 
L 31.057547 86.99896 
L 31.632373 87.449855 
L 32.2072 87.913655 
L 32.782027 88.390368 
L 33.356853 88.880001 
L 33.93168 89.382562 
L 34.506507 89.898059 
L 35.081333 90.426498 
L 35.65616 90.967888 
L 36.230987 91.522234 
L 36.805813 92.089543 
L 37.38064 92.669823 
L 37.955467 93.263078 
L 38.530293 93.869314 
L 39.10512 94.488538 
L 39.679947 95.120753 
L 40.254773 95.765967 
L 40.8296 96.424181 
L 41.404427 97.095402 
L 41.979253 97.779633 
L 42.55408 98.476878 
L 43.128907 99.187139 
L 43.703733 99.91042 
L 44.27856 100.646723 
L 44.853387 101.396049 
L 45.428213 102.158402 
L 46.00304 102.933781 
L 46.577867 103.722187 
L 47.152693 104.523621 
L 47.72752 105.338083 
L 48.302347 106.165571 
L 48.877173 107.006084 
L 49.452 107.859621 
L 50.026827 108.726179 
L 50.601653 109.605755 
L 51.17648 110.498346 
L 51.751307 111.403948 
L 52.326133 112.322556 
L 52.90096 113.254164 
L 53.475787 114.198768 
L 54.050613 115.15636 
L 54.62544 116.126933 
L 55.200267 117.110479 
L 55.775093 118.106989 
L 56.34992 119.116455 
L 56.924747 120.138866 
L 57.499573 121.174211 
L 58.0744 122.222479 
L 58.649227 123.283656 
L 59.224053 124.357731 
L 59.79888 125.44469 
L 60.373707 126.544516 
L 60.948533 127.657195 
L 61.52336 128.78271 
L 62.098187 129.921044 
L 62.673013 131.072179 
L 63.24784 132.236095 
L 63.822667 133.412772 
L 64.397493 134.60219 
L 64.97232 135.804325 
L 65.547147 137.019157 
L 66.121973 138.24666 
L 66.6968 139.48681 
L 67.271627 140.739581 
L 67.846453 142.004946 
L 68.42128 143.282878 
L 68.996107 144.573348 
L 69.570933 145.876325 
L 70.14576 147.191779 
L 70.720587 148.519679 
L 71.295413 149.85999 
L 71.87024 151.21268 
L 72.445067 152.577712 
L 73.019893 153.955052 
L 73.59472 155.344661 
L 73.932883 156.169345 
" style="fill:none;stroke:#b22222;stroke-linecap:square;"/>
   </g>
   <g id="line2d_2">
    <path clip-path="url(#pe7cb7c2cf1)" d="M 18.41136 80.325972 
L 18.986187 80.169348 
L 19.561013 80.0254 
L 20.13584 79.894117 
L 20.710667 79.775488 
L 21.285493 79.669503 
L 21.86032 79.576152 
L 22.435147 79.495424 
L 23.009973 79.427309 
L 23.5848 79.371796 
L 24.159627 79.328875 
L 24.734453 79.298535 
L 25.30928 79.280765 
L 25.884107 79.275556 
L 26.458933 79.282896 
L 27.03376 79.302775 
L 27.608587 79.335183 
L 28.183413 79.380109 
L 28.75824 79.437542 
L 29.333067 79.507472 
L 29.907893 79.589888 
L 30.48272 79.684781 
L 31.057547 79.792139 
L 31.632373 79.911952 
L 32.2072 80.044209 
L 32.782027 80.1889 
L 33.356853 80.346016 
L 33.93168 80.515544 
L 34.506507 80.697475 
L 35.081333 80.891799 
L 35.65616 81.098505 
L 36.230987 81.317582 
L 36.805813 81.549021 
L 37.38064 81.792811 
L 37.955467 82.048942 
L 38.530293 82.317404 
L 39.10512 82.598185 
L 39.679947 82.891277 
L 40.254773 83.196669 
L 40.8296 83.51435 
L 41.404427 83.84431 
L 41.979253 84.18654 
L 42.55408 84.541028 
L 43.128907 84.907766 
L 43.703733 85.286742 
L 44.27856 85.677947 
L 44.853387 86.08137 
L 45.428213 86.497002 
L 46.00304 86.924832 
L 46.577867 87.36485 
L 47.152693 87.817047 
L 47.72752 88.281411 
L 48.302347 88.757934 
L 48.877173 89.246604 
L 49.452 89.747412 
L 50.026827 90.260348 
L 50.601653 90.785402 
L 51.17648 91.322564 
L 51.751307 91.871823 
L 52.326133 92.43317 
L 52.90096 93.006595 
L 53.475787 93.592087 
L 54.050613 94.189637 
L 54.62544 94.799234 
L 55.200267 95.420868 
L 55.775093 96.05453 
L 56.34992 96.700208 
L 56.924747 97.357894 
L 57.499573 98.027576 
L 58.0744 98.709245 
L 58.649227 99.40289 
L 59.224053 100.108502 
L 59.79888 100.826069 
L 60.373707 101.555582 
L 60.948533 102.297031 
L 61.52336 103.050404 
L 62.098187 103.815693 
L 62.673013 104.592885 
L 63.24784 105.381971 
L 63.822667 106.182941 
L 64.397493 106.995783 
L 64.97232 107.820487 
L 65.547147 108.657043 
L 66.121973 109.505439 
L 66.6968 110.365666 
L 67.271627 111.237712 
L 67.846453 112.121565 
L 68.42128 113.017217 
L 68.996107 113.924654 
L 69.570933 114.843867 
L 70.14576 115.774843 
L 70.720587 116.717573 
L 71.295413 117.672043 
L 71.87024 118.638244 
L 72.445067 119.616163 
L 73.019893 120.605788 
L 73.59472 121.607109 
L 74.169547 122.620113 
L 74.744373 123.644788 
L 75.3192 124.681122 
" style="fill:none;stroke:#b22222;stroke-linecap:square;"/>
   </g>
   <g id="line2d_3">
    <path clip-path="url(#pe7cb7c2cf1)" d="M 18.41136 7.762319 
L 18.986187 7.053938 
L 19.561013 7.113507 
L 20.13584 7.189309 
L 20.710667 7.280633 
L 21.285493 7.386728 
L 21.86032 7.507086 
L 22.435147 7.640956 
L 23.009973 7.787976 
L 23.5848 7.947769 
L 24.159627 8.120025 
L 24.734453 8.304502 
L 25.30928 8.501005 
L 25.884107 8.709382 
L 26.458933 8.929516 
L 27.03376 9.16132 
L 27.608587 9.404721 
L 28.183413 9.659663 
L 28.75824 9.926125 
L 29.333067 10.20408 
L 29.907893 10.493513 
L 30.48272 10.794409 
L 31.057547 11.10677 
L 31.632373 11.430599 
L 32.2072 11.765904 
L 32.782027 12.112687 
L 33.356853 12.47095 
L 33.93168 12.840709 
L 34.506507 13.221979 
L 35.081333 13.614763 
L 35.65616 14.019062 
L 36.230987 14.434898 
L 36.805813 14.862301 
L 37.38064 15.301274 
L 37.955467 15.751815 
L 38.530293 16.213944 
L 39.10512 16.687667 
L 39.679947 17.172999 
L 40.254773 17.669952 
L 40.8296 18.178538 
L 41.404427 18.698763 
L 41.979253 19.230622 
L 42.55408 19.774136 
L 43.128907 20.32933 
L 43.703733 20.896211 
L 44.27856 21.474783 
L 44.853387 22.065058 
L 45.428213 22.667068 
L 46.00304 23.280783 
L 46.577867 23.906221 
L 47.152693 24.543422 
L 47.72752 25.192395 
L 48.302347 25.853149 
L 48.877173 26.525698 
L 49.452 27.210062 
L 50.026827 27.906257 
L 50.601653 28.614301 
L 51.17648 29.334212 
L 51.751307 30.066007 
L 52.326133 30.809715 
L 52.90096 31.565358 
L 53.475787 32.332994 
L 54.050613 33.112589 
L 54.62544 33.904189 
L 55.200267 34.707833 
L 55.775093 35.523522 
L 56.34992 36.351308 
L 56.924747 37.191239 
L 57.499573 38.043355 
L 58.0744 38.907684 
L 58.649227 39.78426 
L 59.224053 40.673117 
L 59.79888 41.574292 
L 60.373707 42.487825 
L 60.948533 43.413755 
L 61.52336 44.352127 
L 62.098187 45.302982 
L 62.673013 46.26636 
L 63.24784 47.242295 
L 63.822667 48.230833 
L 64.397493 49.232016 
L 64.97232 50.245879 
L 65.547147 51.272453 
L 66.121973 52.311773 
L 66.6968 53.363868 
L 67.271627 54.428767 
L 67.846453 55.506496 
L 68.42128 56.597078 
L 68.996107 57.700528 
L 69.570933 58.816862 
L 70.14576 59.946091 
L 70.720587 61.08822 
L 71.295413 62.243252 
L 71.87024 63.411186 
L 72.445067 64.592017 
L 73.019893 65.785735 
L 73.59472 66.992322 
L 74.169547 68.21177 
L 74.744373 69.444055 
L 75.3192 70.689152 
" style="fill:none;stroke:#b22222;stroke-linecap:square;"/>
   </g>
   <g id="line2d_4">
    <path clip-path="url(#pe7cb7c2cf1)" d="M 18.41136 7.011522 
L 18.986187 6.987043 
L 19.561013 6.981289 
L 20.13584 6.994853 
L 20.710667 7.028148 
L 21.285493 7.081303 
L 21.86032 7.154221 
L 22.435147 7.246395 
L 23.009973 7.357199 
L 23.5848 7.485864 
L 24.159627 7.631537 
L 24.734453 7.793351 
L 25.30928 7.970488 
L 25.884107 8.162204 
L 26.458933 8.367842 
L 27.03376 8.586848 
L 27.608587 8.818748 
L 28.183413 9.063204 
L 28.75824 9.319891 
L 29.333067 9.58856 
L 29.907893 9.869016 
L 30.48272 10.16111 
L 31.057547 10.464739 
L 31.632373 10.779831 
L 32.2072 11.106324 
L 32.782027 11.444171 
L 33.356853 11.793346 
L 33.93168 12.153839 
L 34.506507 12.525627 
L 35.081333 12.90871 
L 35.65616 13.30314 
L 36.230987 13.708915 
L 36.805813 14.12604 
L 37.38064 14.554531 
L 37.955467 14.994393 
L 38.530293 15.445654 
L 39.10512 15.908338 
L 39.679947 16.382472 
L 40.254773 16.868077 
L 40.8296 17.365181 
L 41.404427 17.873796 
L 41.979253 18.393925 
L 42.55408 18.925605 
L 43.128907 19.468873 
L 43.703733 20.023743 
L 44.27856 20.590231 
L 44.853387 21.168365 
L 45.428213 21.758136 
L 46.00304 22.359624 
L 46.577867 22.972832 
L 47.152693 23.597735 
L 47.72752 24.234364 
L 48.302347 24.88274 
L 48.877173 25.542894 
L 49.452 26.214836 
L 50.026827 26.898577 
L 50.601653 27.594132 
L 51.17648 28.301518 
L 51.751307 29.020739 
L 52.326133 29.751822 
L 52.90096 30.494763 
L 53.475787 31.24969 
L 54.050613 32.01632 
L 54.62544 32.794858 
L 55.200267 33.585269 
L 55.775093 34.38766 
L 56.34992 35.201974 
L 56.924747 36.028162 
L 57.499573 36.866224 
L 58.0744 37.716189 
L 58.649227 38.578039 
L 59.224053 39.451786 
L 59.79888 40.337417 
L 60.373707 41.234921 
L 60.948533 42.144289 
L 61.52336 43.065507 
L 62.098187 43.998557 
L 62.673013 44.943425 
L 63.24784 45.900107 
L 63.822667 46.868595 
L 64.397493 47.84887 
L 64.97232 48.840906 
L 65.547147 49.844669 
L 66.121973 50.860133 
L 66.6968 51.887282 
L 67.271627 52.926097 
L 67.846453 53.976552 
L 68.42128 55.038625 
L 68.996107 56.112292 
L 69.570933 57.197531 
L 70.14576 58.294319 
L 70.720587 59.402633 
L 71.295413 60.522451 
L 71.87024 61.653749 
L 72.445067 62.796508 
L 73.019893 63.950708 
L 73.59472 65.11632 
L 74.169547 66.293359 
L 74.744373 67.481798 
L 75.3192 68.681626 
" style="fill:none;stroke:#b22222;stroke-linecap:square;"/>
   </g>
   <g id="patch_3">
    <path d="M 75.3192 144.307491 
L 75.3192 4.65508 
" style="fill:none;stroke:#000000;stroke-linecap:square;stroke-linejoin:miter;"/>
   </g>
   <g id="patch_4">
    <path d="M 18.41136 144.307491 
L 18.41136 4.65508 
" style="fill:none;stroke:#000000;stroke-linecap:square;stroke-linejoin:miter;"/>
   </g>
   <g id="patch_5">
    <path d="M 18.41136 144.307491 
L 75.3192 144.307491 
" style="fill:none;stroke:#000000;stroke-linecap:square;stroke-linejoin:miter;"/>
   </g>
   <g id="patch_6">
    <path d="M 18.41136 4.65508 
L 75.3192 4.65508 
" style="fill:none;stroke:#000000;stroke-linecap:square;stroke-linejoin:miter;"/>
   </g>
   <g id="matplotlib.axis_1">
    <g id="xtick_1">
     <g id="line2d_5">
      <defs>
       <path d="M 0 0 
L 0 -4 
" id="m328d950cee" style="stroke:#000000;stroke-width:0.5;"/>
      </defs>
      <g>
       <use style="stroke:#000000;stroke-width:0.5;" x="18.41136" xlink:href="#m328d950cee" y="144.307490729"/>
      </g>
     </g>
     <g id="line2d_6">
      <defs>
       <path d="M 0 0 
L 0 4 
" id="meb9fe60b17" style="stroke:#000000;stroke-width:0.5;"/>
      </defs>
      <g>
       <use style="stroke:#000000;stroke-width:0.5;" x="18.41136" xlink:href="#meb9fe60b17" y="4.65508034611"/>
      </g>
     </g>
     <g id="text_1">
      <text style="font-family:Bitstream Vera Sans;font-size:6.0px;font-style:normal;font-weight:400;text-anchor:middle;" transform="rotate(-0.000000, 18.411360, 152.866553)" x="18.41136" y="152.866553229">0.0</text>
     </g>
    </g>
    <g id="xtick_2">
     <g id="line2d_7">
      <g>
       <use style="stroke:#000000;stroke-width:0.5;" x="46.86528" xlink:href="#m328d950cee" y="144.307490729"/>
      </g>
     </g>
     <g id="line2d_8">
      <g>
       <use style="stroke:#000000;stroke-width:0.5;" x="46.86528" xlink:href="#meb9fe60b17" y="4.65508034611"/>
      </g>
     </g>
     <g id="text_2">
      <text style="font-family:Bitstream Vera Sans;font-size:6.0px;font-style:normal;font-weight:400;text-anchor:middle;" transform="rotate(-0.000000, 46.865280, 152.866553)" x="46.86528" y="152.866553229">0.1</text>
     </g>
    </g>
    <g id="xtick_3">
     <g id="line2d_9">
      <g>
       <use style="stroke:#000000;stroke-width:0.5;" x="75.3192" xlink:href="#m328d950cee" y="144.307490729"/>
      </g>
     </g>
     <g id="line2d_10">
      <g>
       <use style="stroke:#000000;stroke-width:0.5;" x="75.3192" xlink:href="#meb9fe60b17" y="4.65508034611"/>
      </g>
     </g>
     <g id="text_3">
      <text style="font-family:Bitstream Vera Sans;font-size:6.0px;font-style:normal;font-weight:400;text-anchor:middle;" transform="rotate(-0.000000, 75.319200, 152.866553)" x="75.3192" y="152.866553229">0.2</text>
     </g>
    </g>
   </g>
   <g id="matplotlib.axis_2">
    <g id="ytick_1">
     <g id="line2d_11">
      <defs>
       <path d="M 0 0 
L 4 0 
" id="m75f562b40a" style="stroke:#000000;stroke-width:0.5;"/>
      </defs>
      <g>
       <use style="stroke:#000000;stroke-width:0.5;" x="18.41136" xlink:href="#m75f562b40a" y="144.307490729"/>
      </g>
     </g>
     <g id="line2d_12">
      <defs>
       <path d="M 0 0 
L -4 0 
" id="m7d1204fc14" style="stroke:#000000;stroke-width:0.5;"/>
      </defs>
      <g>
       <use style="stroke:#000000;stroke-width:0.5;" x="75.3192" xlink:href="#m7d1204fc14" y="144.307490729"/>
      </g>
     </g>
     <g id="text_4">
      <text style="font-family:Bitstream Vera Sans;font-size:6.0px;font-style:normal;font-weight:400;text-anchor:end;" transform="rotate(-0.000000, 14.411360, 145.963116)" x="14.41136" y="145.963115729">−0.10</text>
     </g>
    </g>
    <g id="ytick_2">
     <g id="line2d_13">
      <g>
       <use style="stroke:#000000;stroke-width:0.5;" x="18.41136" xlink:href="#m75f562b40a" y="74.4812855377"/>
      </g>
     </g>
     <g id="line2d_14">
      <g>
       <use style="stroke:#000000;stroke-width:0.5;" x="75.3192" xlink:href="#m7d1204fc14" y="74.4812855377"/>
      </g>
     </g>
     <g id="text_5">
      <text style="font-family:Bitstream Vera Sans;font-size:6.0px;font-style:normal;font-weight:400;text-anchor:end;" transform="rotate(-0.000000, 14.411360, 76.136911)" x="14.41136" y="76.1369105377">−0.05</text>
     </g>
    </g>
    <g id="ytick_3">
     <g id="line2d_15">
      <g>
       <use style="stroke:#000000;stroke-width:0.5;" x="18.41136" xlink:href="#m75f562b40a" y="4.65508034611"/>
      </g>
     </g>
     <g id="line2d_16">
      <g>
       <use style="stroke:#000000;stroke-width:0.5;" x="75.3192" xlink:href="#m7d1204fc14" y="4.65508034611"/>
      </g>
     </g>
     <g id="text_6">
      <text style="font-family:Bitstream Vera Sans;font-size:6.0px;font-style:normal;font-weight:400;text-anchor:end;" transform="rotate(-0.000000, 14.411360, 6.310705)" x="14.41136" y="6.31070534611">0.00</text>
     </g>
    </g>
   </g>
  </g>
  <g id="text_7">
   <g id="patch_7">
    <path d="M 20.08512 22.251702 
L 27.48512 22.251702 
L 27.48512 12.573577 
L 20.08512 12.573577 
z
" style="fill:#ffffff;opacity:0.5;stroke:#ffffff;stroke-linejoin:miter;"/>
   </g>
   <!-- $E$ -->
   <g transform="translate(20.08512 20.1720148331)">
    <text>
     <tspan style="font-family:cmmi10;font-size:10.0px;font-style:regular;font-weight:regular;" x="0.0" y="-0.171875">E</tspan>
    </text>
   </g>
  </g>
  <g id="text_8">
   <g id="patch_8">
    <path d="M 62.766 141.75241 
L 72.866 141.75241 
L 72.866 132.074285 
L 62.766 132.074285 
z
" style="fill:#ffffff;opacity:0.5;stroke:#ffffff;stroke-linejoin:miter;"/>
   </g>
   <!-- $\phi_1$ -->
   <g transform="translate(62.766 139.652410383)">
    <text>
     <tspan style="font-family:cmmi10;font-size:10.0px;font-style:regular;font-weight:regular;" x="0.0" y="-0.0625">Á</tspan>
     <tspan style="font-family:cmr10;font-size:7.0px;font-style:regular;font-weight:regular;" x="5.9521484375" y="1.6381250000000005">1</tspan>
    </text>
   </g>
  </g>
 </g>
 <defs>
  <clipPath id="pe7cb7c2cf1">
   <rect height="139.652410383" width="56.90784" x="18.41136" y="4.65508034611"/>
  </clipPath>
 </defs>
</svg>
