<?xml version="1.0" encoding="utf-8" standalone="no"?>
<!DOCTYPE svg PUBLIC "-//W3C//DTD SVG 1.1//EN"
  "http://www.w3.org/Graphics/SVG/1.1/DTD/svg11.dtd">
<!-- Created with matplotlib (http://matplotlib.org/) -->
<svg height="310pt" version="1.1" viewBox="0 0 251 310" width="251pt" xmlns="http://www.w3.org/2000/svg" xmlns:xlink="http://www.w3.org/1999/xlink">
 <defs>
  <style type="text/css">
*{stroke-linecap:butt;stroke-linejoin:round;stroke-miterlimit:100000;}
  </style>
 </defs>
 <g id="figure_1">
  <g id="patch_1">
   <path d="M 0 310.33869 
L 251.064 310.33869 
L 251.064 0 
L 0 0 
z
" style="fill:#ffffff;"/>
  </g>
  <g id="patch_2">
   <path d="M 37.6596 260.684499 
L 246.04272 260.684499 
L 246.04272 31.033869 
L 37.6596 31.033869 
z
" style="fill:#ffffff;"/>
  </g>
  <g id="pane3d_1">
   <g id="patch_3">
    <path d="M 65.284003 209.939803 
L 124.924342 153.634672 
L 123.931393 46.044808 
L 60.965715 96.633811 
" style="fill:#f2f2f2;opacity:0.5;stroke:#f2f2f2;stroke-linejoin:miter;"/>
   </g>
  </g>
  <g id="pane3d_2">
   <g id="patch_4">
    <path d="M 124.924342 153.634672 
L 221.536084 185.112874 
L 225.578204 74.278681 
L 123.931393 46.044808 
" style="fill:#e6e6e6;opacity:0.5;stroke:#e6e6e6;stroke-linejoin:miter;"/>
   </g>
  </g>
  <g id="pane3d_3">
   <g id="patch_5">
    <path d="M 65.284003 209.939803 
L 166.93261 246.601298 
L 221.536084 185.112874 
L 124.924342 153.634672 
" style="fill:#ececec;opacity:0.5;stroke:#ececec;stroke-linejoin:miter;"/>
   </g>
  </g>
  <g id="axis3d_1">
   <g id="line2d_1">
    <path d="M 65.284003 209.939803 
L 166.93261 246.601298 
" style="fill:none;stroke:#000000;stroke-linecap:square;stroke-width:0.75;"/>
   </g>
   <g id="Line3DCollection_1">
    <path d="M 71.907401 212.328658 
L 131.239305 155.692224 
L 130.561956 47.886543 
" style="fill:none;stroke:#e6e6e6;"/>
    <path d="M 86.067547 217.435782 
L 144.730781 160.08804 
L 144.734012 51.823037 
" style="fill:none;stroke:#e6e6e6;"/>
    <path d="M 100.412847 222.609686 
L 158.385807 164.537144 
L 159.086643 55.809688 
" style="fill:none;stroke:#e6e6e6;"/>
    <path d="M 114.946957 227.851688 
L 172.207374 169.04051 
L 173.623324 59.847461 
" style="fill:none;stroke:#e6e6e6;"/>
    <path d="M 129.673628 233.163141 
L 186.198548 173.599138 
L 188.347618 63.937347 
" style="fill:none;stroke:#e6e6e6;"/>
    <path d="M 144.596713 238.545434 
L 200.36247 178.214051 
L 203.26318 68.08036 
" style="fill:none;stroke:#e6e6e6;"/>
    <path d="M 159.720169 243.999995 
L 214.70236 182.886298 
L 218.373762 72.277543 
" style="fill:none;stroke:#e6e6e6;"/>
   </g>
   <g id="xtick_1">
    <g id="line2d_2">
     <path d="M 72.418583 211.840699 
L 70.88313 213.306396 
" style="fill:none;stroke:#000000;stroke-linecap:square;"/>
    </g>
    <g id="text_1">
     <text style="font-family:Bitstream Vera Sans;font-size:10.0px;font-style:normal;font-weight:400;text-anchor:middle;" transform="rotate(-0.000000, 65.560166, 237.722008)" x="65.5601663545" y="237.722007844">−0.6</text>
    </g>
   </g>
   <g id="xtick_2">
    <g id="line2d_3">
     <path d="M 86.573203 216.941466 
L 85.054338 218.426271 
" style="fill:none;stroke:#000000;stroke-linecap:square;"/>
    </g>
    <g id="text_2">
     <text style="font-family:Bitstream Vera Sans;font-size:10.0px;font-style:normal;font-weight:400;text-anchor:middle;" transform="rotate(-0.000000, 79.717871, 242.959065)" x="79.7178712444" y="242.959064999">−0.4</text>
    </g>
   </g>
   <g id="xtick_3">
    <g id="line2d_4">
     <path d="M 100.912788 222.108887 
L 99.411077 223.613177 
" style="fill:none;stroke:#000000;stroke-linecap:square;"/>
    </g>
    <g id="text_3">
     <text style="font-family:Bitstream Vera Sans;font-size:10.0px;font-style:normal;font-weight:400;text-anchor:middle;" transform="rotate(-0.000000, 94.061210, 248.264790)" x="94.0612100432" y="248.264789738">−0.2</text>
    </g>
   </g>
   <g id="xtick_4">
    <g id="line2d_5">
     <path d="M 115.440987 227.344278 
L 113.957017 228.868439 
" style="fill:none;stroke:#000000;stroke-linecap:square;"/>
    </g>
    <g id="text_4">
     <text style="font-family:Bitstream Vera Sans;font-size:10.0px;font-style:normal;font-weight:400;text-anchor:middle;" transform="rotate(-0.000000, 108.593858, 253.640542)" x="108.593857855" y="253.640541514">0.0</text>
    </g>
   </g>
   <g id="xtick_5">
    <g id="line2d_6">
     <path d="M 130.161548 232.648988 
L 128.69592 234.193416 
" style="fill:none;stroke:#000000;stroke-linecap:square;"/>
    </g>
    <g id="text_5">
     <text style="font-family:Bitstream Vera Sans;font-size:10.0px;font-style:normal;font-weight:400;text-anchor:middle;" transform="rotate(-0.000000, 123.319587, 259.087716)" x="123.319587438" y="259.087715902">0.2</text>
    </g>
   </g>
   <g id="xtick_6">
    <g id="line2d_7">
     <path d="M 145.078315 238.024404 
L 143.631654 239.589505 
" style="fill:none;stroke:#000000;stroke-linecap:square;"/>
    </g>
    <g id="text_6">
     <text style="font-family:Bitstream Vera Sans;font-size:10.0px;font-style:normal;font-weight:400;text-anchor:middle;" transform="rotate(-0.000000, 138.242272, 264.607746)" x="138.242272472" y="264.60774581">0.4</text>
    </g>
   </g>
   <g id="xtick_7">
    <g id="line2d_8">
     <path d="M 160.195238 243.471947 
L 158.768187 245.05814 
" style="fill:none;stroke:#000000;stroke-linecap:square;"/>
    </g>
    <g id="text_7">
     <text style="font-family:Bitstream Vera Sans;font-size:10.0px;font-style:normal;font-weight:400;text-anchor:middle;" transform="rotate(-0.000000, 153.365891, 270.202103)" x="153.365890956" y="270.202102735">0.6</text>
    </g>
   </g>
  </g>
  <g id="axis3d_2">
   <g id="line2d_9">
    <path d="M 221.536084 185.112874 
L 166.93261 246.601298 
" style="fill:none;stroke:#000000;stroke-linecap:square;stroke-width:0.75;"/>
   </g>
   <g id="Line3DCollection_2">
    <path d="M 68.791645 90.346162 
L 72.671354 202.965568 
L 173.715968 238.962627 
" style="fill:none;stroke:#e6e6e6;"/>
    <path d="M 81.427351 80.19416 
L 84.614036 191.690745 
L 184.670284 226.627082 
" style="fill:none;stroke:#e6e6e6;"/>
    <path d="M 93.682658 70.347784 
L 96.215041 180.738492 
L 195.297113 214.660316 
" style="fill:none;stroke:#e6e6e6;"/>
    <path d="M 105.57449 60.793437 
L 107.488825 170.09516 
L 205.610925 203.046036 
" style="fill:none;stroke:#e6e6e6;"/>
    <path d="M 117.118781 51.518318 
L 118.449041 159.747862 
L 215.625348 191.768894 
" style="fill:none;stroke:#e6e6e6;"/>
   </g>
   <g id="xtick_8">
    <g id="line2d_10">
     <path d="M 172.87047 238.661419 
L 175.408845 239.565713 
" style="fill:none;stroke:#000000;stroke-linecap:square;"/>
    </g>
    <g id="text_8">
     <text style="font-family:Bitstream Vera Sans;font-size:10.0px;font-style:normal;font-weight:400;text-anchor:middle;" transform="rotate(-0.000000, 184.666357, 262.071368)" x="184.666356737" y="262.071367877">−0.4</text>
    </g>
   </g>
   <g id="xtick_9">
    <g id="line2d_11">
     <path d="M 183.833614 226.334944 
L 186.345457 227.211997 
" style="fill:none;stroke:#000000;stroke-linecap:square;"/>
    </g>
    <g id="text_9">
     <text style="font-family:Bitstream Vera Sans;font-size:10.0px;font-style:normal;font-weight:400;text-anchor:middle;" transform="rotate(-0.000000, 195.446499, 249.509787)" x="195.446498928" y="249.509786814">−0.2</text>
    </g>
   </g>
   <g id="xtick_10">
    <g id="line2d_12">
     <path d="M 194.469126 214.376845 
L 196.954876 215.227869 
" style="fill:none;stroke:#000000;stroke-linecap:square;"/>
    </g>
    <g id="text_10">
     <text style="font-family:Bitstream Vera Sans;font-size:10.0px;font-style:normal;font-weight:400;text-anchor:middle;" transform="rotate(-0.000000, 205.904597, 237.323468)" x="205.904596837" y="237.323468458">0.0</text>
    </g>
   </g>
   <g id="xtick_11">
    <g id="line2d_13">
     <path d="M 204.791474 202.770852 
L 207.251569 203.596989 
" style="fill:none;stroke:#000000;stroke-linecap:square;"/>
    </g>
    <g id="text_11">
     <text style="font-family:Bitstream Vera Sans;font-size:10.0px;font-style:normal;font-weight:400;text-anchor:middle;" transform="rotate(-0.000000, 216.054869, 225.495844)" x="216.054869132" y="225.495844481">0.2</text>
    </g>
   </g>
   <g id="xtick_12">
    <g id="line2d_14">
     <path d="M 214.814292 191.501639 
L 217.249162 192.303965 
" style="fill:none;stroke:#000000;stroke-linecap:square;"/>
    </g>
    <g id="text_12">
     <text style="font-family:Bitstream Vera Sans;font-size:10.0px;font-style:normal;font-weight:400;text-anchor:middle;" transform="rotate(-0.000000, 225.910710, 214.011308)" x="225.910709592" y="214.011307757">0.4</text>
    </g>
   </g>
  </g>
  <g id="axis3d_3">
   <g id="line2d_15">
    <path d="M 221.536084 185.112874 
L 225.578204 74.278681 
" style="fill:none;stroke:#000000;stroke-linecap:square;stroke-width:0.75;"/>
   </g>
   <g id="Line3DCollection_3">
    <path d="M 221.984142 172.827204 
L 124.814063 141.685509 
L 64.806064 197.399352 
" style="fill:none;stroke:#e6e6e6;"/>
    <path d="M 222.737345 152.174521 
L 124.6288 121.611515 
L 64.002221 176.30759 
" style="fill:none;stroke:#e6e6e6;"/>
    <path d="M 223.505367 131.115492 
L 124.440046 101.159342 
L 63.18203 154.786912 
" style="fill:none;stroke:#e6e6e6;"/>
    <path d="M 224.28865 109.638007 
L 124.247703 80.318203 
L 62.344989 132.824099 
" style="fill:none;stroke:#e6e6e6;"/>
    <path d="M 225.087654 87.729468 
L 124.051667 59.076894 
L 61.490573 110.405385 
" style="fill:none;stroke:#e6e6e6;"/>
   </g>
   <g id="xtick_13">
    <g id="line2d_16">
     <path d="M 221.173236 172.56732 
L 223.60765 173.347516 
" style="fill:none;stroke:#000000;stroke-linecap:square;"/>
    </g>
    <g id="text_13">
     <text style="font-family:Bitstream Vera Sans;font-size:10.0px;font-style:normal;font-weight:400;text-anchor:middle;" transform="rotate(-0.000000, 237.938659, 177.931421)" x="237.938658802" y="177.931421337">−0.4</text>
    </g>
   </g>
   <g id="xtick_14">
    <g id="line2d_17">
     <path d="M 221.918277 151.919363 
L 224.37721 152.685375 
" style="fill:none;stroke:#000000;stroke-linecap:square;"/>
    </g>
    <g id="text_14">
     <text style="font-family:Bitstream Vera Sans;font-size:10.0px;font-style:normal;font-weight:400;text-anchor:middle;" transform="rotate(-0.000000, 238.844222, 157.324172)" x="238.844222113" y="157.324171848">−0.2</text>
    </g>
   </g>
   <g id="xtick_15">
    <g id="line2d_18">
     <path d="M 222.677972 130.865298 
L 225.161921 131.616414 
" style="fill:none;stroke:#000000;stroke-linecap:square;"/>
    </g>
    <g id="text_15">
     <text style="font-family:Bitstream Vera Sans;font-size:10.0px;font-style:normal;font-weight:400;text-anchor:middle;" transform="rotate(-0.000000, 239.767542, 136.312852)" x="239.767541859" y="136.312852037">0.0</text>
    </g>
   </g>
   <g id="xtick_16">
    <g id="line2d_19">
     <path d="M 223.452757 109.393025 
L 225.962237 110.128499 
" style="fill:none;stroke:#000000;stroke-linecap:square;"/>
    </g>
    <g id="text_16">
     <text style="font-family:Bitstream Vera Sans;font-size:10.0px;font-style:normal;font-weight:400;text-anchor:middle;" transform="rotate(-0.000000, 240.709145, 114.885460)" x="240.709145465" y="114.885459616">0.2</text>
    </g>
   </g>
   <g id="xtick_17">
    <g id="line2d_20">
     <path d="M 224.243086 87.489959 
L 226.778626 88.209007 
" style="fill:none;stroke:#000000;stroke-linecap:square;"/>
    </g>
    <g id="text_17">
     <text style="font-family:Bitstream Vera Sans;font-size:10.0px;font-style:normal;font-weight:400;text-anchor:middle;" transform="rotate(-0.000000, 241.669581, 93.029512)" x="241.669581458" y="93.0295121981">0.4</text>
    </g>
   </g>
  </g>
  <g id="axes_1">
   <g id="Poly3DCollection_1">
    <path clip-path="url(#p7d56482377)" d="M 153.568996 114.219797 
L 146.824878 113.845826 
L 140.054078 113.932889 
L 133.356189 114.478724 
L 126.829615 115.474903 
L 120.570386 116.906947 
L 120.365513 116.54461 
L 120.218474 116.299597 
L 120.130004 116.161144 
L 120.100487 116.117681 
L 126.52236 114.664589 
L 133.207194 113.659205 
L 140.057367 113.11409 
L 146.973884 113.036002 
L 153.857214 113.425906 
L 153.839056 113.470601 
L 153.784688 113.611482 
L 153.694462 113.858236 
L 153.568996 114.219797 
z
" style="fill:#b0b0b0;fill-opacity:0.8;stroke:#000000;stroke-opacity:0.8;"/>
    <path clip-path="url(#p7d56482377)" d="M 152.452849 117.998272 
L 146.253638 117.701976 
L 140.052444 117.844139 
L 133.948808 118.417049 
L 128.03873 119.405025 
L 122.412095 120.784809 
L 121.941252 119.710354 
L 121.519384 118.791102 
L 121.14893 118.021948 
L 120.832003 117.396455 
L 120.570386 116.906947 
L 126.829615 115.474903 
L 133.356189 114.478724 
L 140.054078 113.932889 
L 146.824878 113.845826 
L 153.568996 114.219797 
L 153.409173 114.704253 
L 153.216133 115.318755 
L 152.991268 116.069431 
L 152.736216 116.961315 
L 152.452849 117.998272 
z
" style="fill:#aeaeae;fill-opacity:0.8;stroke:#000000;stroke-opacity:0.8;"/>
    <path clip-path="url(#p7d56482377)" d="M 183.45804 122.651807 
L 178.306622 120.15486 
L 172.650682 118.037743 
L 166.57955 116.328947 
L 160.186775 115.050875 
L 153.568996 114.219797 
L 153.694462 113.858236 
L 153.784688 113.611482 
L 153.839056 113.470601 
L 153.857214 113.425906 
L 160.608093 114.278976 
L 167.128347 115.584587 
L 173.321745 117.326299 
L 179.09492 119.481847 
L 184.358372 122.023144 
L 184.301735 122.057451 
L 184.132064 122.167212 
L 183.850279 122.362266 
L 183.45804 122.651807 
z
" style="fill:#afafaf;fill-opacity:0.8;stroke:#000000;stroke-opacity:0.8;"/>
    <path clip-path="url(#p7d56482377)" d="M 150.691343 125.405608 
L 145.373316 125.260281 
L 140.090088 125.524982 
L 134.940005 126.183532 
L 130.014797 127.208378 
L 125.394907 128.560773 
L 124.725964 126.685691 
L 124.089538 124.968759 
L 123.489416 123.412592 
L 122.929164 122.018156 
L 122.412095 120.784809 
L 128.03873 119.405025 
L 133.948808 118.417049 
L 140.052444 117.844139 
L 146.253638 117.701976 
L 152.452849 117.998272 
L 152.143258 119.182934 
L 151.809741 120.516654 
L 151.454787 121.999455 
L 151.081052 123.630009 
L 150.691343 125.405608 
z
" style="fill:#acacac;fill-opacity:0.8;stroke:#000000;stroke-opacity:0.8;"/>
    <path clip-path="url(#p7d56482377)" d="M 179.94891 125.78169 
L 175.233706 123.44834 
L 170.035528 121.476978 
L 164.442758 119.897524 
L 158.549269 118.732786 
L 152.452849 117.998272 
L 152.736216 116.961315 
L 152.991268 116.069431 
L 153.216133 115.318755 
L 153.409173 114.704253 
L 153.568996 114.219797 
L 160.186775 115.050875 
L 166.57955 116.328947 
L 172.650682 118.037743 
L 178.306622 120.15486 
L 183.45804 122.651807 
L 182.957744 123.044286 
L 182.352515 123.547322 
L 181.646181 124.167614 
L 180.843256 124.910861 
L 179.94891 125.78169 
z
" style="fill:#a9a9a9;fill-opacity:0.8;stroke:#000000;stroke-opacity:0.8;"/>
    <path clip-path="url(#p7d56482377)" d="M 174.327535 132.129062 
L 170.309283 130.046226 
L 165.847451 128.30522 
L 161.027753 126.937559 
L 155.943076 125.966292 
L 150.691343 125.405608 
L 151.081052 123.630009 
L 151.454787 121.999455 
L 151.809741 120.516654 
L 152.143258 119.182934 
L 152.452849 117.998272 
L 158.549269 118.732786 
L 164.442758 119.897524 
L 170.035528 121.476978 
L 175.233706 123.44834 
L 179.94891 125.78169 
L 178.968929 126.783591 
L 177.909677 127.91886 
L 176.778047 129.188554 
L 175.581406 130.592458 
L 174.327535 132.129062 
z
" style="fill:#a2a2a2;fill-opacity:0.8;stroke:#000000;stroke-opacity:0.8;"/>
    <path clip-path="url(#p7d56482377)" d="M 148.608653 136.268824 
L 144.379019 136.331967 
L 140.222326 136.778207 
L 136.232905 137.583731 
L 132.496344 138.709387 
L 129.082844 140.099273 
L 128.313873 137.531491 
L 127.556191 135.083581 
L 126.814235 132.766541 
L 126.09238 130.589716 
L 125.394907 128.560773 
L 130.014797 127.208378 
L 134.940005 126.183532 
L 140.090088 125.524982 
L 145.373316 125.260281 
L 150.691343 125.405608 
L 150.288589 127.322166 
L 149.875822 129.374225 
L 149.456144 131.554977 
L 149.0327 133.856303 
L 148.608653 136.268824 
z
" style="fill:#aaaaaa;fill-opacity:0.8;stroke:#000000;stroke-opacity:0.8;"/>
    <path clip-path="url(#p7d56482377)" d="M 120.570386 116.906947 
L 114.67095 118.754557 
L 109.219063 120.991997 
L 104.296914 123.588585 
L 99.980609 126.509162 
L 96.339915 129.714379 
L 95.817175 129.492233 
L 95.441571 129.349782 
L 95.215397 129.274176 
L 95.139903 129.252023 
L 98.896132 125.952219 
L 103.349488 122.950276 
L 108.423968 120.28764 
L 114.036958 118.000101 
L 120.100487 116.117681 
L 120.130004 116.161144 
L 120.218474 116.299597 
L 120.365513 116.54461 
L 120.570386 116.906947 
z
" style="fill:#b1b1b1;fill-opacity:0.8;stroke:#000000;stroke-opacity:0.8;"/>
    <path clip-path="url(#p7d56482377)" d="M 122.412095 120.784809 
L 117.150101 122.526637 
L 112.323338 124.59619 
L 107.991412 126.957294 
L 104.204822 129.5747 
L 101.008845 132.415793 
L 99.8204 131.630533 
L 98.752527 130.976558 
L 97.812443 130.44564 
L 97.006456 130.028392 
L 96.339915 129.714379 
L 99.980609 126.509162 
L 104.296914 123.588585 
L 109.219063 120.991997 
L 114.67095 118.754557 
L 120.570386 116.906947 
L 120.832003 117.396455 
L 121.14893 118.021948 
L 121.519384 118.791102 
L 121.941252 119.710354 
L 122.412095 120.784809 
z
" style="fill:#b5b5b5;fill-opacity:0.8;stroke:#000000;stroke-opacity:0.8;"/>
    <path clip-path="url(#p7d56482377)" d="M 167.492497 141.658865 
L 164.318956 139.877773 
L 160.759835 138.421058 
L 156.895121 137.320609 
L 152.81326 136.598984 
L 148.608653 136.268824 
L 149.0327 133.856303 
L 149.456144 131.554977 
L 149.875822 129.374225 
L 150.288589 127.322166 
L 150.691343 125.405608 
L 155.943076 125.966292 
L 161.027753 126.937559 
L 165.847451 128.30522 
L 170.309283 130.046226 
L 174.327535 132.129062 
L 173.024566 133.795549 
L 171.680907 135.587801 
L 170.305173 137.500412 
L 168.906107 139.526723 
L 167.492497 141.658865 
z
" style="fill:#9d9d9d;fill-opacity:0.8;stroke:#000000;stroke-opacity:0.8;"/>
    <path clip-path="url(#p7d56482377)" d="M 146.587085 149.592774 
L 143.497399 149.874342 
L 140.507563 150.513767 
L 137.702971 151.485955 
L 135.160707 152.74916 
L 132.942599 154.241068 
L 132.18304 151.29366 
L 131.413078 148.387935 
L 130.636855 145.542436 
L 129.858651 142.774315 
L 129.082844 140.099273 
L 132.496344 138.709387 
L 136.232905 137.583731 
L 140.222326 136.778207 
L 144.379019 136.331967 
L 148.608653 136.268824 
L 148.187145 138.781971 
L 147.771274 141.384067 
L 147.364059 144.062422 
L 146.968406 146.803447 
L 146.587085 149.592774 
z
" style="fill:#a8a8a8;fill-opacity:0.8;stroke:#000000;stroke-opacity:0.8;"/>
    <path clip-path="url(#p7d56482377)" d="M 125.394907 128.560773 
L 121.144533 130.192439 
L 117.307754 132.049616 
L 113.908119 134.079918 
L 110.954138 136.240857 
L 108.450839 138.506597 
L 106.795374 136.988405 
L 105.212953 135.622162 
L 103.714349 134.406699 
L 102.309783 133.339308 
L 101.008845 132.415793 
L 104.204822 129.5747 
L 107.991412 126.957294 
L 112.323338 124.59619 
L 117.150101 122.526637 
L 122.412095 120.784809 
L 122.929164 122.018156 
L 123.489416 123.412592 
L 124.089538 124.968759 
L 124.725964 126.685691 
L 125.394907 128.560773 
z
" style="fill:#bbbbbb;fill-opacity:0.8;stroke:#000000;stroke-opacity:0.8;"/>
    <path clip-path="url(#p7d56482377)" d="M 144.667148 195.197005 
L 144.286695 195.040614 
L 143.9067 194.831417 
L 143.527494 194.569596 
L 143.149397 194.255359 
L 142.772722 193.888926 
L 142.772787 193.888859 
L 142.799549 193.850628 
L 142.854829 193.777008 
L 142.940281 193.674716 
L 143.056906 193.553446 
L 143.382819 194.066666 
L 143.706001 194.483574 
L 144.027315 194.808752 
L 144.347485 195.045705 
L 144.667148 195.197005 
z
" style="fill:#969696;fill-opacity:0.8;stroke:#000000;stroke-opacity:0.8;"/>
    <path clip-path="url(#p7d56482377)" d="M 143.056906 193.553446 
L 142.940281 193.674716 
L 142.854829 193.777008 
L 142.799549 193.850628 
L 142.772787 193.888859 
L 142.772722 193.888926 
L 142.397765 193.470521 
L 142.024801 193.000352 
L 141.654064 192.478572 
L 141.285727 191.905217 
L 140.919853 191.280082 
L 140.920603 191.279321 
L 140.934231 191.021453 
L 140.990851 190.552074 
L 141.119505 189.948338 
L 141.339201 189.286918 
L 141.70065 190.398797 
L 142.050907 191.370342 
L 142.392421 192.213311 
L 142.72721 192.938078 
L 143.056906 193.553446 
z
" style="fill:#979797;fill-opacity:0.8;stroke:#000000;stroke-opacity:0.8;"/>
    <path clip-path="url(#p7d56482377)" d="M 144.667148 195.197005 
L 144.376222 195.049608 
L 144.081858 194.805893 
L 143.780399 194.465591 
L 143.467904 194.027706 
L 143.139997 193.490565 
L 143.01784 193.593288 
L 142.920379 193.695014 
L 142.847125 193.784866 
L 142.797816 193.852396 
L 142.772722 193.888926 
L 143.149397 194.255359 
L 143.527494 194.569596 
L 143.9067 194.831417 
L 144.286695 195.040614 
L 144.667148 195.197005 
z
" style="fill:#f8f8f8;fill-opacity:0.8;stroke:#000000;stroke-opacity:0.8;"/>
    <path clip-path="url(#p7d56482377)" d="M 142.772722 193.888926 
L 142.797816 193.852396 
L 142.847125 193.784866 
L 142.920379 193.695014 
L 143.01784 193.593288 
L 143.139997 193.490565 
L 142.791727 192.851895 
L 142.417431 192.10895 
L 142.010636 191.258734 
L 141.564005 190.298321 
L 141.06938 189.225321 
L 140.965333 189.665233 
L 140.918299 190.152054 
L 140.908662 190.635339 
L 140.914892 191.041055 
L 140.919853 191.280082 
L 141.285727 191.905217 
L 141.654064 192.478572 
L 142.024801 193.000352 
L 142.397765 193.470521 
L 142.772722 193.888926 
z
" style="fill:#fbfbfb;fill-opacity:0.8;stroke:#000000;stroke-opacity:0.8;"/>
    <path clip-path="url(#p7d56482377)" d="M 144.667148 195.197005 
L 144.347485 195.045705 
L 144.027315 194.808752 
L 143.706001 194.483574 
L 143.382819 194.066666 
L 143.056906 193.553446 
L 143.204652 193.424624 
L 143.382165 193.300177 
L 143.586725 193.191469 
L 143.814328 193.108518 
L 144.059907 193.059444 
L 144.16661 193.804142 
L 144.283134 194.386504 
L 144.407034 194.809956 
L 144.535857 195.078585 
L 144.667148 195.197005 
z
" style="fill:#979797;fill-opacity:0.8;stroke:#000000;stroke-opacity:0.8;"/>
    <path clip-path="url(#p7d56482377)" d="M 144.667148 195.197005 
L 144.581216 195.092584 
L 144.488843 194.840768 
L 144.383618 194.447367 
L 144.259204 193.918929 
L 144.109382 193.262739 
L 143.872879 193.25032 
L 143.65513 193.270949 
L 143.459231 193.321526 
L 143.287188 193.397051 
L 143.139997 193.490565 
L 143.467904 194.027706 
L 143.780399 194.465591 
L 144.081858 194.805893 
L 144.376222 195.049608 
L 144.667148 195.197005 
z
" style="fill:#f8f8f8;fill-opacity:0.8;stroke:#000000;stroke-opacity:0.8;"/>
    <path clip-path="url(#p7d56482377)" d="M 141.339201 189.286918 
L 141.119505 189.948338 
L 140.990851 190.552074 
L 140.934231 191.021453 
L 140.920603 191.279321 
L 140.919853 191.280082 
L 140.556295 190.602465 
L 140.194468 189.870567 
L 139.832741 189.07991 
L 139.466466 188.218256 
L 139.079663 187.244313 
L 139.088591 187.23533 
L 138.826008 185.854938 
L 138.727902 184.259165 
L 138.868228 182.68826 
L 139.253401 181.218932 
L 139.718974 183.195286 
L 140.157047 184.98545 
L 140.570785 186.591895 
L 140.963669 188.022103 
L 141.339201 189.286918 
z
" style="fill:#9a9a9a;fill-opacity:0.8;stroke:#000000;stroke-opacity:0.8;"/>
    <path clip-path="url(#p7d56482377)" d="M 144.667148 195.197005 
L 144.535857 195.078585 
L 144.407034 194.809956 
L 144.283134 194.386504 
L 144.16661 193.804142 
L 144.059907 193.059444 
L 144.317622 193.050144 
L 144.581204 193.084113 
L 144.844317 193.162382 
L 145.100893 193.283541 
L 145.345443 193.443821 
L 145.170826 194.112101 
L 145.022102 194.619315 
L 144.892897 194.96731 
L 144.77675 195.158748 
L 144.667148 195.197005 
z
" style="fill:#959595;fill-opacity:0.8;stroke:#000000;stroke-opacity:0.8;"/>
    <path clip-path="url(#p7d56482377)" d="M 144.059907 193.059444 
L 143.814328 193.108518 
L 143.586725 193.191469 
L 143.382165 193.300177 
L 143.204652 193.424624 
L 143.056906 193.553446 
L 142.72721 192.938078 
L 142.392421 192.213311 
L 142.050907 191.370342 
L 141.70065 190.398797 
L 141.339201 189.286918 
L 141.657255 188.630716 
L 142.070983 188.027782 
L 142.570007 187.51382 
L 143.138341 187.114705 
L 143.756195 186.848301 
L 143.778854 188.421209 
L 143.822673 189.830439 
L 143.885602 191.073609 
L 143.965446 192.149802 
L 144.059907 193.059444 
z
" style="fill:#969696;fill-opacity:0.8;stroke:#000000;stroke-opacity:0.8;"/>
    <path clip-path="url(#p7d56482377)" d="M 144.667148 195.197005 
L 144.82121 195.180302 
L 144.973402 195.028219 
L 145.121829 194.746097 
L 145.264589 194.339597 
L 145.399776 193.81482 
L 145.147036 193.646759 
L 144.885344 193.503895 
L 144.621071 193.390491 
L 144.360477 193.309545 
L 144.109382 193.262739 
L 144.259204 193.918929 
L 144.383618 194.447367 
L 144.488843 194.840768 
L 144.581216 195.092584 
L 144.667148 195.197005 
z
" style="fill:#f6f6f6;fill-opacity:0.8;stroke:#000000;stroke-opacity:0.8;"/>
    <path clip-path="url(#p7d56482377)" d="M 144.667148 195.197005 
L 144.77675 195.158748 
L 144.892897 194.96731 
L 145.022102 194.619315 
L 145.170826 194.112101 
L 145.345443 193.443821 
L 145.573304 193.637231 
L 145.780814 193.855752 
L 145.965392 194.089594 
L 146.125518 194.327549 
L 146.2606 194.557466 
L 145.922543 194.877797 
L 145.597771 195.098781 
L 145.28248 195.223998 
L 144.9733 195.256129 
L 144.667148 195.197005 
z
" style="fill:#939393;fill-opacity:0.8;stroke:#000000;stroke-opacity:0.8;"/>
    <path clip-path="url(#p7d56482377)" d="M 144.667148 195.197005 
L 145.048509 195.300916 
L 145.429635 195.352171 
L 145.810164 195.350687 
L 146.189731 195.29643 
L 146.567974 195.18941 
L 146.554737 195.161837 
L 146.513821 195.082107 
L 146.443433 194.95712 
L 146.342196 194.796162 
L 146.003179 195.032176 
L 145.666942 195.189452 
L 145.332636 195.269113 
L 144.99957 195.271663 
L 144.667148 195.197005 
z
" style="fill:#f7f7f7;fill-opacity:0.8;stroke:#000000;stroke-opacity:0.8;"/>
    <path clip-path="url(#p7d56482377)" d="M 144.667148 195.197005 
L 144.9733 195.256129 
L 145.28248 195.223998 
L 145.597771 195.098781 
L 145.922543 194.877797 
L 146.2606 194.557466 
L 146.370728 194.766888 
L 146.456341 194.943872 
L 146.517843 195.077977 
L 146.555255 195.161305 
L 146.567974 195.18941 
L 146.189731 195.29643 
L 145.810164 195.350687 
L 145.429635 195.352171 
L 145.048509 195.300916 
L 144.667148 195.197005 
z
" style="fill:#959595;fill-opacity:0.8;stroke:#000000;stroke-opacity:0.8;"/>
    <path clip-path="url(#p7d56482377)" d="M 144.667148 195.197005 
L 144.99957 195.271663 
L 145.332636 195.269113 
L 145.666942 195.189452 
L 146.003179 195.032176 
L 146.342196 194.796162 
L 146.209604 194.609767 
L 146.046351 194.408702 
L 145.854494 194.203213 
L 145.637437 194.002566 
L 145.399776 193.81482 
L 145.264589 194.339597 
L 145.121829 194.746097 
L 144.973402 195.028219 
L 144.82121 195.180302 
L 144.667148 195.197005 
z
" style="fill:#f5f5f5;fill-opacity:0.8;stroke:#000000;stroke-opacity:0.8;"/>
    <path clip-path="url(#p7d56482377)" d="M 140.919853 191.280082 
L 140.914892 191.041055 
L 140.908662 190.635339 
L 140.918299 190.152054 
L 140.965333 189.665233 
L 141.06938 189.225321 
L 140.517939 188.038451 
L 139.900492 186.738171 
L 139.207907 185.32729 
L 138.43161 183.811395 
L 137.564092 182.199018 
L 137.64038 182.829428 
L 137.875293 183.681064 
L 138.234919 184.753014 
L 138.670902 186.010664 
L 139.079663 187.244313 
L 139.466466 188.218256 
L 139.832741 189.07991 
L 140.194468 189.870567 
L 140.556295 190.602465 
L 140.919853 191.280082 
z
" style="fill:#ffffff;fill-opacity:0.8;stroke:#000000;stroke-opacity:0.8;"/>
    <path clip-path="url(#p7d56482377)" d="M 143.139997 193.490565 
L 143.287188 193.397051 
L 143.459231 193.321526 
L 143.65513 193.270949 
L 143.872879 193.25032 
L 144.109382 193.262739 
L 143.928102 192.486821 
L 143.709541 191.599923 
L 143.44816 190.611497 
L 143.138773 189.531651 
L 142.77661 188.371086 
L 142.273187 188.348959 
L 141.846344 188.421462 
L 141.503184 188.592582 
L 141.245479 188.862535 
L 141.06938 189.225321 
L 141.564005 190.298321 
L 142.010636 191.258734 
L 142.417431 192.10895 
L 142.791727 192.851895 
L 143.139997 193.490565 
z
" style="fill:#f6f6f6;fill-opacity:0.8;stroke:#000000;stroke-opacity:0.8;"/>
    <path clip-path="url(#p7d56482377)" d="M 144.978963 163.724436 
L 142.932126 164.158262 
L 140.990257 164.913795 
L 139.222591 165.972845 
L 137.692775 167.305667 
L 136.454607 168.868406 
L 135.801235 166.032784 
L 135.120413 163.128813 
L 134.414887 160.180278 
L 133.687794 157.2103 
L 132.942599 154.241068 
L 135.160707 152.74916 
L 137.702971 151.485955 
L 140.507563 150.513767 
L 143.497399 149.874342 
L 146.587085 149.592774 
L 146.222695 152.415394 
L 145.877636 155.255797 
L 145.554085 158.098131 
L 145.253974 160.926361 
L 144.978963 163.724436 
z
" style="fill:#a4a4a4;fill-opacity:0.8;stroke:#000000;stroke-opacity:0.8;"/>
    <path clip-path="url(#p7d56482377)" d="M 145.345443 193.443821 
L 145.100893 193.283541 
L 144.844317 193.162382 
L 144.581204 193.084113 
L 144.317622 193.050144 
L 144.059907 193.059444 
L 143.965446 192.149802 
L 143.885602 191.073609 
L 143.822673 189.830439 
L 143.778854 188.421209 
L 143.756195 186.848301 
L 144.401558 186.725652 
L 145.051625 186.751782 
L 145.684093 186.926271 
L 146.27834 187.243681 
L 146.816482 187.693901 
L 146.424062 189.158389 
L 146.085919 190.46889 
L 145.797095 191.62148 
L 145.552188 192.613565 
L 145.345443 193.443821 
z
" style="fill:#959595;fill-opacity:0.8;stroke:#000000;stroke-opacity:0.8;"/>
    <path clip-path="url(#p7d56482377)" d="M 143.756195 186.848301 
L 143.138341 187.114705 
L 142.570007 187.51382 
L 142.070983 188.027782 
L 141.657255 188.630716 
L 141.339201 189.286918 
L 140.963669 188.022103 
L 140.570785 186.591895 
L 140.157047 184.98545 
L 139.718974 183.195286 
L 139.253401 181.218932 
L 139.869923 179.898947 
L 140.69214 178.764589 
L 141.685507 177.844071 
L 142.80906 177.158341 
L 144.017672 176.721341 
L 143.911184 179.022302 
L 143.832785 181.194798 
L 143.781625 183.228787 
L 143.756566 185.115653 
L 143.756195 186.848301 
z
" style="fill:#999999;fill-opacity:0.8;stroke:#000000;stroke-opacity:0.8;"/>
    <path clip-path="url(#p7d56482377)" d="M 160.50666 153.555338 
L 158.195302 152.098929 
L 155.573666 150.949336 
L 152.711685 150.136208 
L 149.687922 149.680289 
L 146.587085 149.592774 
L 146.968406 146.803447 
L 147.364059 144.062422 
L 147.771274 141.384067 
L 148.187145 138.781971 
L 148.608653 136.268824 
L 152.81326 136.598984 
L 156.895121 137.320609 
L 160.759835 138.421058 
L 164.318956 139.877773 
L 167.492497 141.658865 
L 166.073095 143.887814 
L 164.656531 146.20347 
L 163.251237 148.594737 
L 161.865354 151.04962 
L 160.50666 153.555338 
z
" style="fill:#989898;fill-opacity:0.8;stroke:#000000;stroke-opacity:0.8;"/>
    <path clip-path="url(#p7d56482377)" d="M 139.253401 181.218932 
L 138.868228 182.68826 
L 138.727902 184.259165 
L 138.826008 185.854938 
L 139.088591 187.23533 
L 139.079663 187.244313 
L 138.600064 185.976098 
L 137.824299 183.946699 
L 136.768717 181.327436 
L 135.56624 178.51696 
L 134.25644 175.632309 
L 134.570116 175.323482 
L 134.706207 174.086963 
L 134.97735 172.395048 
L 135.545892 170.597493 
L 136.454607 168.868406 
L 137.078265 171.611666 
L 137.670527 174.238995 
L 138.230417 176.728246 
L 138.757784 179.059983 
L 139.253401 181.218932 
z
" style="fill:#a9a9a9;fill-opacity:0.8;stroke:#000000;stroke-opacity:0.8;"/>
    <path clip-path="url(#p7d56482377)" d="M 129.082844 140.099273 
L 126.03922 141.680822 
L 123.381096 143.368639 
L 121.089532 145.075375 
L 119.119015 146.731386 
L 117.421123 148.307249 
L 115.574117 146.067016 
L 113.741644 143.960913 
L 111.935665 141.995636 
L 110.168126 140.176337 
L 108.450839 138.506597 
L 110.954138 136.240857 
L 113.908119 134.079918 
L 117.307754 132.049616 
L 121.144533 130.192439 
L 125.394907 128.560773 
L 126.09238 130.589716 
L 126.814235 132.766541 
L 127.556191 135.083581 
L 128.313873 137.531491 
L 129.082844 140.099273 
z
" style="fill:#c0c0c0;fill-opacity:0.8;stroke:#000000;stroke-opacity:0.8;"/>
    <path clip-path="url(#p7d56482377)" d="M 144.017672 176.721341 
L 142.80906 177.158341 
L 141.685507 177.844071 
L 140.69214 178.764589 
L 139.869923 179.898947 
L 139.253401 181.218932 
L 138.757784 179.059983 
L 138.230417 176.728246 
L 137.670527 174.238995 
L 137.078265 171.611666 
L 136.454607 168.868406 
L 137.692775 167.305667 
L 139.222591 165.972845 
L 140.990257 164.913795 
L 142.932126 164.158262 
L 144.978963 163.724436 
L 144.730425 166.47646 
L 144.509433 169.166868 
L 144.316741 171.780597 
L 144.152785 174.303267 
L 144.017672 176.721341 
z
" style="fill:#9e9e9e;fill-opacity:0.8;stroke:#000000;stroke-opacity:0.8;"/>
    <path clip-path="url(#p7d56482377)" d="M 146.567974 195.18941 
L 146.555255 195.161305 
L 146.517843 195.077977 
L 146.456341 194.943872 
L 146.370728 194.766888 
L 146.2606 194.557466 
L 146.616346 194.133272 
L 146.994945 193.599756 
L 147.402483 192.950598 
L 147.846082 192.178816 
L 148.333947 191.277175 
L 148.409004 192.061851 
L 148.435812 192.77324 
L 148.435495 193.352174 
L 148.428611 193.733921 
L 148.42666 193.866545 
L 148.060459 194.23557 
L 147.691132 194.552591 
L 147.319035 194.817363 
L 146.944529 195.029686 
L 146.567974 195.18941 
z
" style="fill:#919191;fill-opacity:0.8;stroke:#000000;stroke-opacity:0.8;"/>
    <path clip-path="url(#p7d56482377)" d="M 146.2606 194.557466 
L 146.125518 194.327549 
L 145.965392 194.089594 
L 145.780814 193.855752 
L 145.573304 193.637231 
L 145.345443 193.443821 
L 145.552188 192.613565 
L 145.797095 191.62148 
L 146.085919 190.46889 
L 146.424062 189.158389 
L 146.816482 187.693901 
L 147.284287 188.262414 
L 147.671949 188.930442 
L 147.974696 189.674927 
L 148.193223 190.4682 
L 148.333947 191.277175 
L 147.846082 192.178816 
L 147.402483 192.950598 
L 146.994945 193.599756 
L 146.616346 194.133272 
L 146.2606 194.557466 
z
" style="fill:#929292;fill-opacity:0.8;stroke:#000000;stroke-opacity:0.8;"/>
    <path clip-path="url(#p7d56482377)" d="M 146.342196 194.796162 
L 146.443433 194.95712 
L 146.513821 195.082107 
L 146.554737 195.161837 
L 146.567974 195.18941 
L 146.944529 195.029686 
L 147.319035 194.817363 
L 147.691132 194.552591 
L 148.060459 194.23557 
L 148.42666 193.866545 
L 148.422752 193.73994 
L 148.391682 193.397166 
L 148.302146 192.910404 
L 148.129367 192.348529 
L 147.752702 193.018672 
L 147.388277 193.594414 
L 147.033164 194.080112 
L 146.685065 194.479632 
L 146.342196 194.796162 
z
" style="fill:#f6f6f6;fill-opacity:0.8;stroke:#000000;stroke-opacity:0.8;"/>
    <path clip-path="url(#p7d56482377)" d="M 144.109382 193.262739 
L 144.360477 193.309545 
L 144.621071 193.390491 
L 144.885344 193.503895 
L 145.147036 193.646759 
L 145.399776 193.81482 
L 145.525483 193.178438 
L 145.639814 192.437811 
L 145.740908 191.601092 
L 145.826959 190.677279 
L 145.896243 189.676224 
L 145.259383 189.27773 
L 144.606696 188.941795 
L 143.96118 188.67435 
L 143.344656 188.481828 
L 142.77661 188.371086 
L 143.138773 189.531651 
L 143.44816 190.611497 
L 143.709541 191.599923 
L 143.928102 192.486821 
L 144.109382 193.262739 
z
" style="fill:#efefef;fill-opacity:0.8;stroke:#000000;stroke-opacity:0.8;"/>
    <path clip-path="url(#p7d56482377)" d="M 145.399776 193.81482 
L 145.637437 194.002566 
L 145.854494 194.203213 
L 146.046351 194.408702 
L 146.209604 194.609767 
L 146.342196 194.796162 
L 146.685065 194.479632 
L 147.033164 194.080112 
L 147.388277 193.594414 
L 147.752702 193.018672 
L 148.129367 192.348529 
L 147.86011 191.762397 
L 147.492221 191.185152 
L 147.032481 190.637298 
L 146.494394 190.131529 
L 145.896243 189.676224 
L 145.826959 190.677279 
L 145.740908 191.601092 
L 145.639814 192.437811 
L 145.525483 193.178438 
L 145.399776 193.81482 
z
" style="fill:#f0f0f0;fill-opacity:0.8;stroke:#000000;stroke-opacity:0.8;"/>
    <path clip-path="url(#p7d56482377)" d="M 146.816482 187.693901 
L 146.27834 187.243681 
L 145.684093 186.926271 
L 145.051625 186.751782 
L 144.401558 186.725652 
L 143.756195 186.848301 
L 143.756566 185.115653 
L 143.781625 183.228787 
L 143.832785 181.194798 
L 143.911184 179.022302 
L 144.017672 176.721341 
L 145.264198 176.540196 
L 146.501496 176.615445 
L 147.684316 176.941355 
L 148.771065 177.506289 
L 149.725414 178.293157 
L 149.008144 180.421915 
L 148.360649 182.436141 
L 147.781281 184.325477 
L 147.267612 186.080716 
L 146.816482 187.693901 
z
" style="fill:#949494;fill-opacity:0.8;stroke:#000000;stroke-opacity:0.8;"/>
    <path clip-path="url(#p7d56482377)" d="M 136.454607 168.868406 
L 135.545892 170.597493 
L 134.97735 172.395048 
L 134.706207 174.086963 
L 134.570116 175.323482 
L 134.25644 175.632309 
L 132.853021 172.715989 
L 131.364589 169.793723 
L 129.798881 166.885971 
L 128.163875 164.01089 
L 126.468116 161.185247 
L 127.394828 160.299506 
L 128.393425 159.053016 
L 129.587243 157.527238 
L 131.085376 155.873538 
L 132.942599 154.241068 
L 133.687794 157.2103 
L 134.414887 160.180278 
L 135.120413 163.128813 
L 135.801235 166.032784 
L 136.454607 168.868406 
z
" style="fill:#c3c3c3;fill-opacity:0.8;stroke:#000000;stroke-opacity:0.8;"/>
    <path clip-path="url(#p7d56482377)" d="M 132.942599 154.241068 
L 131.085376 155.873538 
L 129.587243 157.527238 
L 128.393425 159.053016 
L 127.394828 160.299506 
L 126.468116 161.185247 
L 124.720803 158.424682 
L 122.931775 155.743757 
L 121.111459 153.155919 
L 119.270792 150.673424 
L 117.421123 148.307249 
L 119.119015 146.731386 
L 121.089532 145.075375 
L 123.381096 143.368639 
L 126.03922 141.680822 
L 129.082844 140.099273 
L 129.858651 142.774315 
L 130.636855 145.542436 
L 131.413078 148.387935 
L 132.18304 151.29366 
L 132.942599 154.241068 
z
" style="fill:#c5c5c5;fill-opacity:0.8;stroke:#000000;stroke-opacity:0.8;"/>
    <path clip-path="url(#p7d56482377)" d="M 154.358248 166.359579 
L 152.810503 165.235413 
L 151.040186 164.389156 
L 149.102308 163.845106 
L 147.059309 163.620398 
L 144.978963 163.724436 
L 145.253974 160.926361 
L 145.554085 158.098131 
L 145.877636 155.255797 
L 146.222695 152.415394 
L 146.587085 149.592774 
L 149.687922 149.680289 
L 152.711685 150.136208 
L 155.573666 150.949336 
L 158.195302 152.098929 
L 160.50666 153.555338 
L 159.182488 156.098438 
L 157.899656 158.664929 
L 156.664397 161.24041 
L 155.482299 163.81022 
L 154.358248 166.359579 
z
" style="fill:#959595;fill-opacity:0.8;stroke:#000000;stroke-opacity:0.8;"/>
    <path clip-path="url(#p7d56482377)" d="M 149.725414 178.293157 
L 148.771065 177.506289 
L 147.684316 176.941355 
L 146.501496 176.615445 
L 145.264198 176.540196 
L 144.017672 176.721341 
L 144.152785 174.303267 
L 144.316741 171.780597 
L 144.509433 169.166868 
L 144.730425 166.47646 
L 144.978963 163.724436 
L 147.059309 163.620398 
L 149.102308 163.845106 
L 151.040186 164.389156 
L 152.810503 165.235413 
L 154.358248 166.359579 
L 153.296383 168.87374 
L 152.300053 171.338143 
L 151.371792 173.738563 
L 150.513297 176.061267 
L 149.725414 178.293157 
z
" style="fill:#949494;fill-opacity:0.8;stroke:#000000;stroke-opacity:0.8;"/>
    <path clip-path="url(#p7d56482377)" d="M 139.079663 187.244313 
L 138.670902 186.010664 
L 138.234919 184.753014 
L 137.875293 183.681064 
L 137.64038 182.829428 
L 137.564092 182.199018 
L 136.599337 180.501476 
L 135.53311 178.732435 
L 134.363098 176.907292 
L 133.088914 175.042508 
L 131.71201 173.154979 
L 131.885243 173.339456 
L 132.317597 173.759896 
L 132.941049 174.393108 
L 133.647678 175.127597 
L 134.25644 175.632309 
L 135.56624 178.51696 
L 136.768717 181.327436 
L 137.824299 183.946699 
L 138.600064 185.976098 
L 139.079663 187.244313 
z
" style="fill:#fdfdfd;fill-opacity:0.8;stroke:#000000;stroke-opacity:0.8;"/>
    <path clip-path="url(#p7d56482377)" d="M 148.42666 193.866545 
L 148.428611 193.733921 
L 148.435495 193.352174 
L 148.435812 192.77324 
L 148.409004 192.061851 
L 148.333947 191.277175 
L 148.875271 190.238822 
L 149.479978 189.058165 
L 150.158258 187.731897 
L 150.919946 186.259979 
L 151.773832 184.646345 
L 151.621367 186.172699 
L 151.32286 187.697081 
L 150.918117 189.172151 
L 150.471788 190.507653 
L 150.198396 191.253259 
L 149.853116 191.87697 
L 149.502956 192.450611 
L 149.14826 192.973702 
L 148.789378 193.445809 
L 148.42666 193.866545 
z
" style="fill:#878787;fill-opacity:0.8;stroke:#000000;stroke-opacity:0.8;"/>
    <path clip-path="url(#p7d56482377)" d="M 148.333947 191.277175 
L 148.193223 190.4682 
L 147.974696 189.674927 
L 147.671949 188.930442 
L 147.284287 188.262414 
L 146.816482 187.693901 
L 147.267612 186.080716 
L 147.781281 184.325477 
L 148.360649 182.436141 
L 149.008144 180.421915 
L 149.725414 178.293157 
L 150.517752 179.279917 
L 151.126449 180.440161 
L 151.538889 181.74377 
L 151.75223 183.157631 
L 151.773832 184.646345 
L 150.919946 186.259979 
L 150.158258 187.731897 
L 149.479978 189.058165 
L 148.875271 190.238822 
L 148.333947 191.277175 
z
" style="fill:#8c8c8c;fill-opacity:0.8;stroke:#000000;stroke-opacity:0.8;"/>
    <path clip-path="url(#p7d56482377)" d="M 141.06938 189.225321 
L 141.245479 188.862535 
L 141.503184 188.592582 
L 141.846344 188.421462 
L 142.273187 188.348959 
L 142.77661 188.371086 
L 142.357377 187.141009 
L 141.877316 185.853039 
L 141.333259 184.519092 
L 140.722672 183.151269 
L 140.043693 181.76173 
L 139.170542 181.562554 
L 138.474764 181.48291 
L 137.972513 181.54659 
L 137.670191 181.777731 
L 137.564092 182.199018 
L 138.43161 183.811395 
L 139.207907 185.32729 
L 139.900492 186.738171 
L 140.517939 188.038451 
L 141.06938 189.225321 
z
" style="fill:#f5f5f5;fill-opacity:0.8;stroke:#000000;stroke-opacity:0.8;"/>
    <path clip-path="url(#p7d56482377)" d="M 148.129367 192.348529 
L 148.302146 192.910404 
L 148.391682 193.397166 
L 148.422752 193.73994 
L 148.42666 193.866545 
L 148.789378 193.445809 
L 149.14826 192.973702 
L 149.502956 192.450611 
L 149.853116 191.87697 
L 150.198396 191.253259 
L 150.4151 190.565812 
L 150.619866 189.477785 
L 150.605754 188.430917 
L 150.344884 187.47687 
L 149.841024 188.653003 
L 149.372642 189.732037 
L 148.934683 190.708017 
L 148.521908 191.579555 
L 148.129367 192.348529 
z
" style="fill:#ededed;fill-opacity:0.8;stroke:#000000;stroke-opacity:0.8;"/>
    <path clip-path="url(#p7d56482377)" d="M 145.896243 189.676224 
L 146.494394 190.131529 
L 147.032481 190.637298 
L 147.492221 191.185152 
L 147.86011 191.762397 
L 148.129367 192.348529 
L 148.521908 191.579555 
L 148.934683 190.708017 
L 149.372642 189.732037 
L 149.841024 188.653003 
L 150.344884 187.47687 
L 149.841549 186.616981 
L 149.115254 185.841591 
L 148.196335 185.138552 
L 147.12329 184.496608 
L 145.940399 183.907285 
L 145.975844 185.122603 
L 145.988154 186.319619 
L 145.978222 187.485734 
L 145.947153 188.608585 
L 145.896243 189.676224 
z
" style="fill:#e6e6e6;fill-opacity:0.8;stroke:#000000;stroke-opacity:0.8;"/>
    <path clip-path="url(#p7d56482377)" d="M 151.773832 184.646345 
L 151.75223 183.157631 
L 151.538889 181.74377 
L 151.126449 180.440161 
L 150.517752 179.279917 
L 149.725414 178.293157 
L 150.513297 176.061267 
L 151.371792 173.738563 
L 152.300053 171.338143 
L 153.296383 168.87374 
L 154.358248 166.359579 
L 155.637844 167.730695 
L 156.615079 169.311638 
L 157.268966 171.059573 
L 157.593532 172.926314 
L 157.599595 174.858297 
L 156.221524 176.99175 
L 154.949302 179.055429 
L 153.784625 181.03041 
L 152.727047 182.899137 
L 151.773832 184.646345 
z
" style="fill:#898989;fill-opacity:0.8;stroke:#000000;stroke-opacity:0.8;"/>
    <path clip-path="url(#p7d56482377)" d="M 142.77661 188.371086 
L 143.344656 188.481828 
L 143.96118 188.67435 
L 144.606696 188.941795 
L 145.259383 189.27773 
L 145.896243 189.676224 
L 145.947153 188.608585 
L 145.978222 187.485734 
L 145.988154 186.319619 
L 145.975844 185.122603 
L 145.940399 183.907285 
L 144.695383 183.366092 
L 143.437118 182.873238 
L 142.213429 182.433959 
L 141.069037 182.058494 
L 140.043693 181.76173 
L 140.722672 183.151269 
L 141.333259 184.519092 
L 141.877316 185.853039 
L 142.357377 187.141009 
L 142.77661 188.371086 
z
" style="fill:#e9e9e9;fill-opacity:0.8;stroke:#000000;stroke-opacity:0.8;"/>
    <path clip-path="url(#p7d56482377)" d="M 198.98054 139.426831 
L 197.451686 135.661199 
L 195.081794 132.047394 
L 191.918576 128.641272 
L 188.021052 125.494073 
L 183.45804 122.651807 
L 183.850279 122.362266 
L 184.132064 122.167212 
L 184.301735 122.057451 
L 184.358372 122.023144 
L 189.027568 124.916314 
L 193.024155 128.121778 
L 196.277278 131.594422 
L 198.724985 135.28385 
L 200.315709 139.134778 
L 200.23167 139.146901 
L 199.979939 139.191564 
L 199.561999 139.280956 
L 198.98054 139.426831 
z
" style="fill:#aeaeae;fill-opacity:0.8;stroke:#000000;stroke-opacity:0.8;"/>
    <path clip-path="url(#p7d56482377)" d="M 134.25644 175.632309 
L 133.647678 175.127597 
L 132.941049 174.393108 
L 132.317597 173.759896 
L 131.885243 173.339456 
L 131.71201 173.154979 
L 130.235547 171.261512 
L 128.664237 169.378421 
L 127.004201 167.521227 
L 125.262827 165.704451 
L 123.448645 163.941464 
L 123.539381 163.219249 
L 123.983455 162.653134 
L 124.691187 162.202514 
L 125.553346 161.766453 
L 126.468116 161.185247 
L 128.163875 164.01089 
L 129.798881 166.885971 
L 131.364589 169.793723 
L 132.853021 172.715989 
L 134.25644 175.632309 
z
" style="fill:#f2f2f2;fill-opacity:0.8;stroke:#000000;stroke-opacity:0.8;"/>
    <path clip-path="url(#p7d56482377)" d="M 150.198396 191.253259 
L 150.471788 190.507653 
L 150.918117 189.172151 
L 151.32286 187.697081 
L 151.621367 186.172699 
L 151.773832 184.646345 
L 152.727047 182.899137 
L 153.784625 181.03041 
L 154.949302 179.055429 
L 156.221524 176.99175 
L 157.599595 174.858297 
L 157.316875 176.795368 
L 156.797694 178.665988 
L 156.126417 180.371478 
L 155.445015 181.739945 
L 154.974097 182.468228 
L 153.671725 184.602892 
L 152.460416 186.755841 
L 151.342791 188.912391 
L 150.538455 190.580008 
L 150.198396 191.253259 
z
" style="fill:#808080;fill-opacity:0.8;stroke:#000000;stroke-opacity:0.8;"/>
    <path clip-path="url(#p7d56482377)" d="M 193.796477 141.368413 
L 192.503602 137.901617 
L 190.431886 134.552528 
L 187.614641 131.380362 
L 184.099942 128.440193 
L 179.94891 125.78169 
L 180.843256 124.910861 
L 181.646181 124.167614 
L 182.352515 123.547322 
L 182.957744 123.044286 
L 183.45804 122.651807 
L 188.021052 125.494073 
L 191.918576 128.641272 
L 195.081794 132.047394 
L 197.451686 135.661199 
L 198.98054 139.426831 
L 198.239444 139.640378 
L 197.343762 139.932097 
L 196.299683 140.311674 
L 195.114483 140.787871 
L 193.796477 141.368413 
z
" style="fill:#a5a5a5;fill-opacity:0.8;stroke:#000000;stroke-opacity:0.8;"/>
    <path clip-path="url(#p7d56482377)" d="M 157.599595 174.858297 
L 157.593532 172.926314 
L 157.268966 171.059573 
L 156.615079 169.311638 
L 155.637844 167.730695 
L 154.358248 166.359579 
L 155.482299 163.81022 
L 156.664397 161.24041 
L 157.899656 158.664929 
L 159.182488 156.098438 
L 160.50666 153.555338 
L 162.448939 155.280429 
L 163.97713 157.227819 
L 165.0629 159.342958 
L 165.69775 161.563069 
L 165.896414 163.816845 
L 164.074018 166.013457 
L 162.324531 168.233573 
L 160.657139 170.460002 
L 159.079901 172.674565 
L 157.599595 174.858297 
z
" style="fill:#898989;fill-opacity:0.8;stroke:#000000;stroke-opacity:0.8;"/>
    <path clip-path="url(#p7d56482377)" d="M 185.56847 146.022554 
L 184.633984 142.971411 
L 183.020236 139.993202 
L 180.740076 137.153701 
L 177.825924 134.514054 
L 174.327535 132.129062 
L 175.581406 130.592458 
L 176.778047 129.188554 
L 177.909677 127.91886 
L 178.968929 126.783591 
L 179.94891 125.78169 
L 184.099942 128.440193 
L 187.614641 131.380362 
L 190.431886 134.552528 
L 192.503602 137.901617 
L 193.796477 141.368413 
L 192.354943 142.059893 
L 190.800055 142.867677 
L 189.142788 143.795827 
L 187.394829 144.847034 
L 185.56847 146.022554 
z
" style="fill:#9b9b9b;fill-opacity:0.8;stroke:#000000;stroke-opacity:0.8;"/>
    <path clip-path="url(#p7d56482377)" d="M 137.564092 182.199018 
L 137.670191 181.777731 
L 137.972513 181.54659 
L 138.474764 181.48291 
L 139.170542 181.562554 
L 140.043693 181.76173 
L 139.295168 180.36258 
L 138.476674 178.965746 
L 137.588537 177.582859 
L 136.631846 176.225149 
L 135.608455 174.903331 
L 134.19813 174.319226 
L 133.086059 173.81378 
L 132.297188 173.425395 
L 131.841334 173.193462 
L 131.71201 173.154979 
L 133.088914 175.042508 
L 134.363098 176.907292 
L 135.53311 178.732435 
L 136.599337 180.501476 
L 137.564092 182.199018 
z
" style="fill:#f0f0f0;fill-opacity:0.8;stroke:#000000;stroke-opacity:0.8;"/>
    <path clip-path="url(#p7d56482377)" d="M 150.344884 187.47687 
L 150.605754 188.430917 
L 150.619866 189.477785 
L 150.4151 190.565812 
L 150.198396 191.253259 
L 150.538455 190.580008 
L 151.342791 188.912391 
L 152.460416 186.755841 
L 153.671725 184.602892 
L 154.974097 182.468228 
L 154.797396 182.401151 
L 154.637214 181.890569 
L 154.238193 181.273322 
L 153.50502 180.671534 
L 152.783594 182.089614 
L 152.106769 183.500624 
L 151.47525 184.88285 
L 150.888563 186.214807 
L 150.344884 187.47687 
z
" style="fill:#d5d5d5;fill-opacity:0.8;stroke:#000000;stroke-opacity:0.8;"/>
    <path clip-path="url(#p7d56482377)" d="M 165.896414 163.816845 
L 165.69775 161.563069 
L 165.0629 159.342958 
L 163.97713 157.227819 
L 162.448939 155.280429 
L 160.50666 153.555338 
L 161.865354 151.04962 
L 163.251237 148.594737 
L 164.656531 146.20347 
L 166.073095 143.887814 
L 167.492497 141.658865 
L 170.211542 143.723485 
L 172.421101 146.022084 
L 174.083271 148.49671 
L 175.180557 151.081575 
L 175.718939 153.70421 
L 173.699709 155.567893 
L 171.695252 157.522466 
L 169.718414 159.557161 
L 167.781552 161.6598 
L 165.896414 163.816845 
z
" style="fill:#8c8c8c;fill-opacity:0.8;stroke:#000000;stroke-opacity:0.8;"/>
    <path clip-path="url(#p7d56482377)" d="M 175.718939 153.70421 
L 175.180557 151.081575 
L 174.083271 148.49671 
L 172.421101 146.022084 
L 170.211542 143.723485 
L 167.492497 141.658865 
L 168.906107 139.526723 
L 170.305173 137.500412 
L 171.680907 135.587801 
L 173.024566 133.795549 
L 174.327535 132.129062 
L 177.825924 134.514054 
L 180.740076 137.153701 
L 183.020236 139.993202 
L 184.633984 142.971411 
L 185.56847 146.022554 
L 183.676496 147.322172 
L 181.732076 148.744162 
L 179.748635 150.285276 
L 177.739733 151.940729 
L 175.718939 153.70421 
z
" style="fill:#929292;fill-opacity:0.8;stroke:#000000;stroke-opacity:0.8;"/>
    <path clip-path="url(#p7d56482377)" d="M 126.468116 161.185247 
L 125.553346 161.766453 
L 124.691187 162.202514 
L 123.983455 162.653134 
L 123.539381 163.219249 
L 123.448645 163.941464 
L 121.57121 162.244386 
L 119.640989 160.624011 
L 117.669253 159.08975 
L 115.667963 157.649589 
L 113.649659 156.310062 
L 113.566275 154.5536 
L 113.976737 152.897874 
L 114.806184 151.33385 
L 115.975281 149.823201 
L 117.421123 148.307249 
L 119.270792 150.673424 
L 121.111459 153.155919 
L 122.931775 155.743757 
L 124.720803 158.424682 
L 126.468116 161.185247 
z
" style="fill:#e4e4e4;fill-opacity:0.8;stroke:#000000;stroke-opacity:0.8;"/>
    <path clip-path="url(#p7d56482377)" d="M 145.940399 183.907285 
L 147.12329 184.496608 
L 148.196335 185.138552 
L 149.115254 185.841591 
L 149.841549 186.616981 
L 150.344884 187.47687 
L 150.888563 186.214807 
L 151.47525 184.88285 
L 152.106769 183.500624 
L 152.783594 182.089614 
L 153.50502 180.671534 
L 152.423827 180.109818 
L 151.019351 179.579449 
L 149.33851 179.061693 
L 147.442426 178.537294 
L 145.401179 177.991044 
L 145.557493 179.113114 
L 145.689759 180.277231 
L 145.797664 181.472223 
L 145.881149 182.686317 
L 145.940399 183.907285 
z
" style="fill:#d7d7d7;fill-opacity:0.8;stroke:#000000;stroke-opacity:0.8;"/>
    <path clip-path="url(#p7d56482377)" d="M 154.974097 182.468228 
L 155.445015 181.739945 
L 156.126417 180.371478 
L 156.797694 178.665988 
L 157.316875 176.795368 
L 157.599595 174.858297 
L 159.079901 172.674565 
L 160.657139 170.460002 
L 162.324531 168.233573 
L 164.074018 166.013457 
L 165.896414 163.816845 
L 165.700323 166.023865 
L 165.180291 168.09398 
L 164.435202 169.928785 
L 163.57729 171.432386 
L 162.689527 172.543103 
L 161.006316 174.386961 
L 159.386115 176.312959 
L 157.836439 178.310009 
L 156.363886 180.366062 
L 154.974097 182.468228 
z
" style="fill:#828282;fill-opacity:0.8;stroke:#000000;stroke-opacity:0.8;"/>
    <path clip-path="url(#p7d56482377)" d="M 140.043693 181.76173 
L 141.069037 182.058494 
L 142.213429 182.433959 
L 143.437118 182.873238 
L 144.695383 183.366092 
L 145.940399 183.907285 
L 145.881149 182.686317 
L 145.797664 181.472223 
L 145.689759 180.277231 
L 145.557493 179.113114 
L 145.401179 177.991044 
L 143.289606 177.414203 
L 141.183636 176.805763 
L 139.157011 176.172943 
L 137.278337 175.531129 
L 135.608455 174.903331 
L 136.631846 176.225149 
L 137.588537 177.582859 
L 138.476674 178.965746 
L 139.295168 180.36258 
L 140.043693 181.76173 
z
" style="fill:#e1e1e1;fill-opacity:0.8;stroke:#000000;stroke-opacity:0.8;"/>
    <path clip-path="url(#p7d56482377)" d="M 117.421123 148.307249 
L 115.975281 149.823201 
L 114.806184 151.33385 
L 113.976737 152.897874 
L 113.566275 154.5536 
L 113.649659 156.310062 
L 111.627341 155.076225 
L 109.61435 153.951649 
L 107.624242 152.938413 
L 105.670657 152.03712 
L 103.767194 151.246913 
L 103.495838 148.53491 
L 103.882389 145.887195 
L 104.873803 143.328515 
L 106.413105 140.86858 
L 108.450839 138.506597 
L 110.168126 140.176337 
L 111.935665 141.995636 
L 113.741644 143.960913 
L 115.574117 146.067016 
L 117.421123 148.307249 
z
" style="fill:#d6d6d6;fill-opacity:0.8;stroke:#000000;stroke-opacity:0.8;"/>
    <path clip-path="url(#p7d56482377)" d="M 131.71201 173.154979 
L 131.841334 173.193462 
L 132.297188 173.425395 
L 133.086059 173.81378 
L 134.19813 174.319226 
L 135.608455 174.903331 
L 134.520986 173.627505 
L 133.372817 172.40706 
L 132.168067 171.250582 
L 130.911575 170.16577 
L 129.608873 169.159359 
L 127.491161 168.039172 
L 125.795218 166.910783 
L 124.552565 165.821443 
L 123.774244 164.817984 
L 123.448645 163.941464 
L 125.262827 165.704451 
L 127.004201 167.521227 
L 128.664237 169.378421 
L 130.235547 171.261512 
L 131.71201 173.154979 
z
" style="fill:#e9e9e9;fill-opacity:0.8;stroke:#000000;stroke-opacity:0.8;"/>
    <path clip-path="url(#p7d56482377)" d="M 108.450839 138.506597 
L 106.413105 140.86858 
L 104.873803 143.328515 
L 103.882389 145.887195 
L 103.495838 148.53491 
L 103.767194 151.246913 
L 101.927279 150.565512 
L 100.164031 149.989255 
L 98.490141 149.513159 
L 96.917743 149.130993 
L 95.4583 148.835355 
L 95.033753 145.384909 
L 95.415242 141.972554 
L 96.567765 138.647275 
L 98.447848 135.450203 
L 101.008845 132.415793 
L 102.309783 133.339308 
L 103.714349 134.406699 
L 105.212953 135.622162 
L 106.795374 136.988405 
L 108.450839 138.506597 
z
" style="fill:#c8c8c8;fill-opacity:0.8;stroke:#000000;stroke-opacity:0.8;"/>
    <path clip-path="url(#p7d56482377)" d="M 101.008845 132.415793 
L 98.447848 135.450203 
L 96.567765 138.647275 
L 95.415242 141.972554 
L 95.033753 145.384909 
L 95.4583 148.835355 
L 94.122489 148.617772 
L 92.9201 148.4688 
L 91.859944 148.378141 
L 90.949765 148.334767 
L 90.196177 148.327044 
L 89.679313 144.442797 
L 90.065593 140.579936 
L 91.330782 136.800105 
L 93.438003 133.160689 
L 96.339915 129.714379 
L 97.006456 130.028392 
L 97.812443 130.44564 
L 98.752527 130.976558 
L 99.8204 131.630533 
L 101.008845 132.415793 
z
" style="fill:#bcbcbc;fill-opacity:0.8;stroke:#000000;stroke-opacity:0.8;"/>
    <path clip-path="url(#p7d56482377)" d="M 96.339915 129.714379 
L 93.438003 133.160689 
L 91.330782 136.800105 
L 90.065593 140.579936 
L 89.679313 144.442797 
L 90.196177 148.327044 
L 89.604597 148.342871 
L 89.179207 148.36982 
L 88.922916 148.395271 
L 88.837342 148.406558 
L 88.297402 144.416941 
L 88.686017 140.444114 
L 89.981631 136.55241 
L 92.148851 132.802778 
L 95.139903 129.252023 
L 95.215397 129.274176 
L 95.441571 129.349782 
L 95.817175 129.492233 
L 96.339915 129.714379 
z
" style="fill:#b2b2b2;fill-opacity:0.8;stroke:#000000;stroke-opacity:0.8;"/>
    <path clip-path="url(#p7d56482377)" d="M 153.50502 180.671534 
L 154.238193 181.273322 
L 154.637214 181.890569 
L 154.797396 182.401151 
L 154.974097 182.468228 
L 156.363886 180.366062 
L 157.836439 178.310009 
L 159.386115 176.312959 
L 161.006316 174.386961 
L 162.689527 172.543103 
L 161.766586 173.27612 
L 160.706763 173.722023 
L 159.380759 173.985757 
L 157.698932 174.13562 
L 156.79279 175.315904 
L 155.916561 176.573399 
L 155.07424 177.895415 
L 154.269378 179.267123 
L 153.50502 180.671534 
z
" style="fill:#ababab;fill-opacity:0.8;stroke:#000000;stroke-opacity:0.8;"/>
    <path clip-path="url(#p7d56482377)" d="M 162.689527 172.543103 
L 163.57729 171.432386 
L 164.435202 169.928785 
L 165.180291 168.09398 
L 165.700323 166.023865 
L 165.896414 163.816845 
L 167.781552 161.6598 
L 169.718414 159.557161 
L 171.695252 157.522466 
L 173.699709 155.567893 
L 175.718939 153.70421 
L 175.729667 156.287778 
L 175.267845 158.755371 
L 174.404719 161.037304 
L 173.210701 163.081511 
L 171.731054 164.863941 
L 169.87335 166.17145 
L 168.029517 167.59866 
L 166.210672 169.14073 
L 164.427373 170.791408 
L 162.689527 172.543103 
z
" style="fill:#898989;fill-opacity:0.8;stroke:#000000;stroke-opacity:0.8;"/>
    <path clip-path="url(#p7d56482377)" d="M 145.401179 177.991044 
L 147.442426 178.537294 
L 149.33851 179.061693 
L 151.019351 179.579449 
L 152.423827 180.109818 
L 153.50502 180.671534 
L 154.269378 179.267123 
L 155.07424 177.895415 
L 155.916561 176.573399 
L 156.79279 175.315904 
L 157.698932 174.13562 
L 155.629883 174.19673 
L 153.191164 174.165681 
L 150.435137 174.025771 
L 147.437221 173.757517 
L 144.286985 173.345096 
L 144.550304 174.11875 
L 144.794775 174.977197 
L 145.018893 175.913967 
L 145.221377 176.921463 
L 145.401179 177.991044 
z
" style="fill:#cacaca;fill-opacity:0.8;stroke:#000000;stroke-opacity:0.8;"/>
    <path clip-path="url(#p7d56482377)" d="M 135.608455 174.903331 
L 137.278337 175.531129 
L 139.157011 176.172943 
L 141.183636 176.805763 
L 143.289606 177.414203 
L 145.401179 177.991044 
L 145.221377 176.921463 
L 145.018893 175.913967 
L 144.794775 174.977197 
L 144.550304 174.11875 
L 144.286985 173.345096 
L 141.081261 172.780042 
L 137.918619 172.063175 
L 134.894759 171.205357 
L 132.098598 170.227404 
L 129.608873 169.159359 
L 130.911575 170.16577 
L 132.168067 171.250582 
L 133.372817 172.40706 
L 134.520986 173.627505 
L 135.608455 174.903331 
z
" style="fill:#d9d9d9;fill-opacity:0.8;stroke:#000000;stroke-opacity:0.8;"/>
    <path clip-path="url(#p7d56482377)" d="M 123.448645 163.941464 
L 123.774244 164.817984 
L 124.552565 165.821443 
L 125.795218 166.910783 
L 127.491161 168.039172 
L 129.608873 169.159359 
L 128.266146 168.237048 
L 126.890187 167.403442 
L 125.488353 166.661999 
L 124.0685 166.014986 
L 122.638921 165.46345 
L 119.708182 163.746336 
L 117.316953 161.918998 
L 115.503719 160.035505 
L 114.284199 158.149668 
L 113.649659 156.310062 
L 115.667963 157.649589 
L 117.669253 159.08975 
L 119.640989 160.624011 
L 121.57121 162.244386 
L 123.448645 163.941464 
z
" style="fill:#dfdfdf;fill-opacity:0.8;stroke:#000000;stroke-opacity:0.8;"/>
    <path clip-path="url(#p7d56482377)" d="M 171.731054 164.863941 
L 173.210701 163.081511 
L 174.404719 161.037304 
L 175.267845 158.755371 
L 175.729667 156.287778 
L 175.718939 153.70421 
L 177.739733 151.940729 
L 179.748635 150.285276 
L 181.732076 148.744162 
L 183.676496 147.322172 
L 185.56847 146.022554 
L 185.831242 149.079024 
L 185.448348 152.075452 
L 184.458391 154.953777 
L 182.902443 157.668054 
L 180.812526 160.1868 
L 179.064455 160.875634 
L 177.269988 161.68579 
L 175.441423 162.620011 
L 173.591055 163.679506 
L 171.731054 164.863941 
z
" style="fill:#919191;fill-opacity:0.8;stroke:#000000;stroke-opacity:0.8;"/>
    <path clip-path="url(#p7d56482377)" d="M 157.698932 174.13562 
L 159.380759 173.985757 
L 160.706763 173.722023 
L 161.766586 173.27612 
L 162.689527 172.543103 
L 164.427373 170.791408 
L 166.210672 169.14073 
L 168.029517 167.59866 
L 169.87335 166.17145 
L 171.731054 164.863941 
L 169.966642 166.391295 
L 167.876734 167.69007 
L 165.405439 168.787096 
L 162.512991 169.694678 
L 161.52973 170.369011 
L 160.551212 171.154133 
L 159.583049 172.047106 
L 158.6306 173.043154 
L 157.698932 174.13562 
z
" style="fill:#a4a4a4;fill-opacity:0.8;stroke:#000000;stroke-opacity:0.8;"/>
    <path clip-path="url(#p7d56482377)" d="M 180.812526 160.1868 
L 182.902443 157.668054 
L 184.458391 154.953777 
L 185.448348 152.075452 
L 185.831242 149.079024 
L 185.56847 146.022554 
L 187.394829 144.847034 
L 189.142788 143.795827 
L 190.800055 142.867677 
L 192.354943 142.059893 
L 193.796477 141.368413 
L 194.292898 144.891383 
L 193.990542 148.409021 
L 192.900188 151.862362 
L 191.042006 155.196984 
L 188.441582 158.363714 
L 187.101576 158.538034 
L 185.657881 158.798441 
L 184.120998 159.154624 
L 182.50202 159.615035 
L 180.812526 160.1868 
z
" style="fill:#9b9b9b;fill-opacity:0.8;stroke:#000000;stroke-opacity:0.8;"/>
    <path clip-path="url(#p7d56482377)" d="M 113.649659 156.310062 
L 114.284199 158.149668 
L 115.503719 160.035505 
L 117.316953 161.918998 
L 119.708182 163.746336 
L 122.638921 165.46345 
L 121.208278 165.007201 
L 119.785521 164.644798 
L 118.379807 164.373563 
L 117.000416 164.189597 
L 115.65666 164.087813 
L 111.918809 161.80675 
L 108.825253 159.322697 
L 106.422762 156.694954 
L 104.73609 153.983821 
L 103.767194 151.246913 
L 105.670657 152.03712 
L 107.624242 152.938413 
L 109.61435 153.951649 
L 111.627341 155.076225 
L 113.649659 156.310062 
z
" style="fill:#d3d3d3;fill-opacity:0.8;stroke:#000000;stroke-opacity:0.8;"/>
    <path clip-path="url(#p7d56482377)" d="M 188.441582 158.363714 
L 191.042006 155.196984 
L 192.900188 151.862362 
L 193.990542 148.409021 
L 194.292898 144.891383 
L 193.796477 141.368413 
L 195.114483 140.787871 
L 196.299683 140.311674 
L 197.343762 139.932097 
L 198.239444 139.640378 
L 198.98054 139.426831 
L 199.633312 143.284639 
L 199.388676 147.172218 
L 198.239651 151.025567 
L 196.193812 154.780233 
L 193.273277 158.372309 
L 192.581329 158.2966 
L 191.745587 158.244174 
L 190.772135 158.229049 
L 189.668099 158.264661 
L 188.441582 158.363714 
z
" style="fill:#a5a5a5;fill-opacity:0.8;stroke:#000000;stroke-opacity:0.8;"/>
    <path clip-path="url(#p7d56482377)" d="M 193.273277 158.372309 
L 196.193812 154.780233 
L 198.239651 151.025567 
L 199.388676 147.172218 
L 199.633312 143.284639 
L 198.98054 139.426831 
L 199.561999 139.280956 
L 199.979939 139.191564 
L 200.23167 139.146901 
L 200.315709 139.134778 
L 201.009764 143.087563 
L 200.780828 147.078904 
L 199.617312 151.042721 
L 197.523574 154.911218 
L 194.520857 158.616118 
L 194.442302 158.593538 
L 194.207011 158.535536 
L 193.81645 158.456856 
L 193.273277 158.372309 
z
" style="fill:#aeaeae;fill-opacity:0.8;stroke:#000000;stroke-opacity:0.8;"/>
    <path clip-path="url(#p7d56482377)" d="M 129.608873 169.159359 
L 132.098598 170.227404 
L 134.894759 171.205357 
L 137.918619 172.063175 
L 141.081261 172.780042 
L 144.286985 173.345096 
L 144.006538 172.661504 
L 143.710882 172.071987 
L 143.402125 171.57925 
L 143.082539 171.184658 
L 142.754548 170.888205 
L 138.324829 170.325577 
L 133.991019 169.481605 
L 129.864858 168.371083 
L 126.050143 167.019776 
L 122.638921 165.46345 
L 124.0685 166.014986 
L 125.488353 166.661999 
L 126.890187 167.403442 
L 128.266146 168.237048 
L 129.608873 169.159359 
z
" style="fill:#d0d0d0;fill-opacity:0.8;stroke:#000000;stroke-opacity:0.8;"/>
    <path clip-path="url(#p7d56482377)" d="M 144.286985 173.345096 
L 147.437221 173.757517 
L 150.435137 174.025771 
L 153.191164 174.165681 
L 155.629883 174.19673 
L 157.698932 174.13562 
L 158.6306 173.043154 
L 159.583049 172.047106 
L 160.551212 171.154133 
L 161.52973 170.369011 
L 162.512991 169.694678 
L 159.194291 170.407138 
L 155.482316 170.905745 
L 151.442643 171.166313 
L 147.164957 171.166003 
L 142.754548 170.888205 
L 143.082539 171.184658 
L 143.402125 171.57925 
L 143.710882 172.071987 
L 144.006538 172.661504 
L 144.286985 173.345096 
z
" style="fill:#c0c0c0;fill-opacity:0.8;stroke:#000000;stroke-opacity:0.8;"/>
    <path clip-path="url(#p7d56482377)" d="M 103.767194 151.246913 
L 104.73609 153.983821 
L 106.422762 156.694954 
L 108.825253 159.322697 
L 111.918809 161.80675 
L 115.65666 164.087813 
L 114.35779 164.061983 
L 113.112905 164.1048 
L 111.930855 164.207953 
L 110.820155 164.362207 
L 109.788887 164.557511 
L 105.378714 161.828819 
L 101.695602 158.828952 
L 98.794492 155.620354 
L 96.710419 152.267686 
L 95.4583 148.835355 
L 96.917743 149.130993 
L 98.490141 149.513159 
L 100.164031 149.989255 
L 101.927279 150.565512 
L 103.767194 151.246913 
z
" style="fill:#c7c7c7;fill-opacity:0.8;stroke:#000000;stroke-opacity:0.8;"/>
    <path clip-path="url(#p7d56482377)" d="M 162.512991 169.694678 
L 165.405439 168.787096 
L 167.876734 167.69007 
L 169.966642 166.391295 
L 171.731054 164.863941 
L 173.591055 163.679506 
L 175.441423 162.620011 
L 177.269988 161.68579 
L 179.064455 160.875634 
L 180.812526 160.1868 
L 178.204388 162.490788 
L 175.079827 164.566503 
L 171.438329 166.398504 
L 167.291739 167.96472 
L 166.374743 168.10218 
L 165.432191 168.339162 
L 164.470274 168.681209 
L 163.49517 169.132278 
L 162.512991 169.694678 
z
" style="fill:#a4a4a4;fill-opacity:0.8;stroke:#000000;stroke-opacity:0.8;"/>
    <path clip-path="url(#p7d56482377)" d="M 95.4583 148.835355 
L 96.710419 152.267686 
L 98.794492 155.620354 
L 101.695602 158.828952 
L 105.378714 161.828819 
L 109.788887 164.557511 
L 108.844624 164.783099 
L 107.994339 165.027613 
L 107.244341 165.279226 
L 106.600199 165.525779 
L 106.066688 165.754914 
L 101.233114 162.756337 
L 97.177669 159.449376 
L 93.961013 155.897665 
L 91.625704 152.167686 
L 90.196177 148.327044 
L 90.949765 148.334767 
L 91.859944 148.378141 
L 92.9201 148.4688 
L 94.122489 148.617772 
L 95.4583 148.835355 
z
" style="fill:#bbbbbb;fill-opacity:0.8;stroke:#000000;stroke-opacity:0.8;"/>
    <path clip-path="url(#p7d56482377)" d="M 90.196177 148.327044 
L 91.625704 152.167686 
L 93.961013 155.897665 
L 97.177669 159.449376 
L 101.233114 162.756337 
L 106.066688 165.754914 
L 105.64774 165.954215 
L 105.346403 166.111348 
L 105.164812 166.214201 
L 105.10417 166.25102 
L 100.161554 163.185389 
L 96.010156 159.803032 
L 92.712179 156.167722 
L 90.312233 152.346186 
L 88.837342 148.406558 
L 88.922916 148.395271 
L 89.179207 148.36982 
L 89.604597 148.342871 
L 90.196177 148.327044 
z
" style="fill:#b1b1b1;fill-opacity:0.8;stroke:#000000;stroke-opacity:0.8;"/>
    <path clip-path="url(#p7d56482377)" d="M 122.638921 165.46345 
L 126.050143 167.019776 
L 129.864858 168.371083 
L 133.991019 169.481605 
L 138.324829 170.325577 
L 142.754548 170.888205 
L 142.420703 170.688512 
L 142.083657 170.582823 
L 141.746148 170.56703 
L 141.410961 170.635697 
L 141.080912 170.782118 
L 135.450651 170.186657 
L 129.975776 169.195172 
L 124.778319 167.826475 
L 119.97163 166.110628 
L 115.65666 164.087813 
L 117.000416 164.189597 
L 118.379807 164.373563 
L 119.785521 164.644798 
L 121.208278 165.007201 
L 122.638921 165.46345 
z
" style="fill:#c8c8c8;fill-opacity:0.8;stroke:#000000;stroke-opacity:0.8;"/>
    <path clip-path="url(#p7d56482377)" d="M 142.754548 170.888205 
L 147.164957 171.166003 
L 151.442643 171.166313 
L 155.482316 170.905745 
L 159.194291 170.407138 
L 162.512991 169.694678 
L 163.49517 169.132278 
L 164.470274 168.681209 
L 165.432191 168.339162 
L 166.374743 168.10218 
L 167.291739 167.96472 
L 162.674971 169.236369 
L 157.649804 170.181373 
L 152.302845 170.769082 
L 146.740188 170.974622 
L 141.080912 170.782118 
L 141.410961 170.635697 
L 141.746148 170.56703 
L 142.083657 170.582823 
L 142.420703 170.688512 
L 142.754548 170.888205 
z
" style="fill:#b9b9b9;fill-opacity:0.8;stroke:#000000;stroke-opacity:0.8;"/>
    <path clip-path="url(#p7d56482377)" d="M 167.291739 167.96472 
L 171.438329 166.398504 
L 175.079827 164.566503 
L 178.204388 162.490788 
L 180.812526 160.1868 
L 182.50202 159.615035 
L 184.120998 159.154624 
L 185.657881 158.798441 
L 187.101576 158.538034 
L 188.441582 158.363714 
L 185.127691 161.317654 
L 181.133399 164.016065 
L 176.500252 166.416411 
L 171.28355 168.475803 
L 170.583359 168.248302 
L 169.828599 168.071917 
L 169.024615 167.958725 
L 168.177041 167.919727 
L 167.291739 167.96472 
z
" style="fill:#a7a7a7;fill-opacity:0.8;stroke:#000000;stroke-opacity:0.8;"/>
    <path clip-path="url(#p7d56482377)" d="M 171.28355 168.475803 
L 176.500252 166.416411 
L 181.133399 164.016065 
L 185.127691 161.317654 
L 188.441582 158.363714 
L 189.668099 158.264661 
L 190.772135 158.229049 
L 191.745587 158.244174 
L 192.581329 158.2966 
L 193.273277 158.372309 
L 189.514774 161.739241 
L 184.969986 164.820582 
L 179.706068 167.558899 
L 173.805954 169.901009 
L 173.444909 169.626126 
L 173.008757 169.3312 
L 172.500625 169.031347 
L 171.924172 168.741414 
L 171.28355 168.475803 
z
" style="fill:#ababab;fill-opacity:0.8;stroke:#000000;stroke-opacity:0.8;"/>
    <path clip-path="url(#p7d56482377)" d="M 115.65666 164.087813 
L 119.97163 166.110628 
L 124.778319 167.826475 
L 129.975776 169.195172 
L 135.450651 170.186657 
L 141.080912 170.782118 
L 140.75881 170.998371 
L 140.447432 171.275404 
L 140.149495 171.603123 
L 139.86762 171.970501 
L 139.604311 172.365698 
L 132.976936 171.708352 
L 126.558776 170.570879 
L 120.477652 168.975928 
L 114.852257 166.957049 
L 109.788887 164.557511 
L 110.820155 164.362207 
L 111.930855 164.207953 
L 113.112905 164.1048 
L 114.35779 164.061983 
L 115.65666 164.087813 
z
" style="fill:#bfbfbf;fill-opacity:0.8;stroke:#000000;stroke-opacity:0.8;"/>
    <path clip-path="url(#p7d56482377)" d="M 173.805954 169.901009 
L 179.706068 167.558899 
L 184.969986 164.820582 
L 189.514774 161.739241 
L 193.273277 158.372309 
L 193.81645 158.456856 
L 194.207011 158.535536 
L 194.442302 158.593538 
L 194.520857 158.616118 
L 190.647885 162.090057 
L 185.961027 165.268102 
L 180.533955 168.089333 
L 174.456754 170.498448 
L 174.415784 170.453987 
L 174.293061 170.329919 
L 174.089329 170.140645 
L 173.805954 169.901009 
z
" style="fill:#afafaf;fill-opacity:0.8;stroke:#000000;stroke-opacity:0.8;"/>
    <path clip-path="url(#p7d56482377)" d="M 141.080912 170.782118 
L 146.740188 170.974622 
L 152.302845 170.769082 
L 157.649804 170.181373 
L 162.674971 169.236369 
L 167.291739 167.96472 
L 168.177041 167.919727 
L 169.024615 167.958725 
L 169.828599 168.071917 
L 170.583359 168.248302 
L 171.28355 168.475803 
L 165.556216 170.152243 
L 159.40987 171.407136 
L 152.953096 172.208188 
L 146.307753 172.531961 
L 139.604311 172.365698 
L 139.86762 171.970501 
L 140.149495 171.603123 
L 140.447432 171.275404 
L 140.75881 170.998371 
L 141.080912 170.782118 
z
" style="fill:#b5b5b5;fill-opacity:0.8;stroke:#000000;stroke-opacity:0.8;"/>
    <path clip-path="url(#p7d56482377)" d="M 109.788887 164.557511 
L 114.852257 166.957049 
L 120.477652 168.975928 
L 126.558776 170.570879 
L 132.976936 171.708352 
L 139.604311 172.365698 
L 139.361921 172.776193 
L 139.142629 173.188924 
L 138.948413 173.590437 
L 138.781027 173.967042 
L 138.641987 174.304974 
L 131.386031 173.587028 
L 124.374973 172.342515 
L 117.739323 170.596915 
L 111.60024 168.386045 
L 106.066688 165.754914 
L 106.600199 165.525779 
L 107.244341 165.279226 
L 107.994339 165.027613 
L 108.844624 164.783099 
L 109.788887 164.557511 
z
" style="fill:#b7b7b7;fill-opacity:0.8;stroke:#000000;stroke-opacity:0.8;"/>
    <path clip-path="url(#p7d56482377)" d="M 106.066688 165.754914 
L 111.60024 168.386045 
L 117.739323 170.596915 
L 124.374973 172.342515 
L 131.386031 173.587028 
L 138.641987 174.304974 
L 138.532544 174.590553 
L 138.453681 174.81034 
L 138.406094 174.951299 
L 138.39019 175.000948 
L 130.972121 174.262834 
L 123.808352 172.987536 
L 117.02999 171.201349 
L 110.758735 168.940701 
L 105.10417 166.25102 
L 105.164812 166.214201 
L 105.346403 166.111348 
L 105.64774 165.954215 
L 106.066688 165.754914 
z
" style="fill:#b1b1b1;fill-opacity:0.8;stroke:#000000;stroke-opacity:0.8;"/>
    <path clip-path="url(#p7d56482377)" d="M 139.604311 172.365698 
L 146.307753 172.531961 
L 152.953096 172.208188 
L 159.40987 171.407136 
L 165.556216 170.152243 
L 171.28355 168.475803 
L 171.924172 168.741414 
L 172.500625 169.031347 
L 173.008757 169.3312 
L 173.444909 169.626126 
L 173.805954 169.901009 
L 167.367977 171.799546 
L 160.504519 173.214655 
L 153.339689 174.115598 
L 146.006239 174.48205 
L 138.641987 174.304974 
L 138.781027 173.967042 
L 138.948413 173.590437 
L 139.142629 173.188924 
L 139.361921 172.776193 
L 139.604311 172.365698 
z
" style="fill:#b2b2b2;fill-opacity:0.8;stroke:#000000;stroke-opacity:0.8;"/>
    <path clip-path="url(#p7d56482377)" d="M 138.641987 174.304974 
L 146.006239 174.48205 
L 153.339689 174.115598 
L 160.504519 173.214655 
L 167.367977 171.799546 
L 173.805954 169.901009 
L 174.089329 170.140645 
L 174.293061 170.329919 
L 174.415784 170.453987 
L 174.456754 170.498448 
L 167.834452 172.447306 
L 160.784989 173.896342 
L 153.436663 174.815776 
L 145.925148 175.186552 
L 138.39019 175.000948 
L 138.406094 174.951299 
L 138.453681 174.81034 
L 138.532544 174.590553 
L 138.641987 174.304974 
z
" style="fill:#b0b0b0;fill-opacity:0.8;stroke:#000000;stroke-opacity:0.8;"/>
   </g>
  </g>
 </g>
 <defs>
  <clipPath id="p7d56482377">
   <rect height="229.650630408" width="208.38312" x="37.6596" y="31.033868974"/>
  </clipPath>
 </defs>
</svg>
