<?xml version="1.0" encoding="utf-8" standalone="no"?>
<!DOCTYPE svg PUBLIC "-//W3C//DTD SVG 1.1//EN"
  "http://www.w3.org/Graphics/SVG/1.1/DTD/svg11.dtd">
<!-- Created with matplotlib (http://matplotlib.org/) -->
<svg height="310pt" version="1.1" viewBox="0 0 251 310" width="251pt" xmlns="http://www.w3.org/2000/svg" xmlns:xlink="http://www.w3.org/1999/xlink">
 <defs>
  <style type="text/css">
*{stroke-linecap:butt;stroke-linejoin:round;stroke-miterlimit:100000;}
  </style>
 </defs>
 <g id="figure_1">
  <g id="patch_1">
   <path d="M 0 310.33869 
L 251.064 310.33869 
L 251.064 0 
L 0 0 
z
" style="fill:#ffffff;"/>
  </g>
  <g id="patch_2">
   <path d="M 37.6596 260.684499 
L 246.04272 260.684499 
L 246.04272 31.033869 
L 37.6596 31.033869 
z
" style="fill:#ffffff;"/>
  </g>
  <g id="pane3d_1">
   <g id="patch_3">
    <path d="M 65.284003 209.939803 
L 124.924342 153.634672 
L 123.931393 46.044808 
L 60.965715 96.633811 
" style="fill:#f2f2f2;opacity:0.5;stroke:#f2f2f2;stroke-linejoin:miter;"/>
   </g>
  </g>
  <g id="pane3d_2">
   <g id="patch_4">
    <path d="M 124.924342 153.634672 
L 221.536084 185.112874 
L 225.578204 74.278681 
L 123.931393 46.044808 
" style="fill:#e6e6e6;opacity:0.5;stroke:#e6e6e6;stroke-linejoin:miter;"/>
   </g>
  </g>
  <g id="pane3d_3">
   <g id="patch_5">
    <path d="M 65.284003 209.939803 
L 166.93261 246.601298 
L 221.536084 185.112874 
L 124.924342 153.634672 
" style="fill:#ececec;opacity:0.5;stroke:#ececec;stroke-linejoin:miter;"/>
   </g>
  </g>
  <g id="axis3d_1">
   <g id="line2d_1">
    <path d="M 65.284003 209.939803 
L 166.93261 246.601298 
" style="fill:none;stroke:#000000;stroke-linecap:square;stroke-width:0.75;"/>
   </g>
   <g id="Line3DCollection_1">
    <path d="M 71.907401 212.328658 
L 131.239305 155.692224 
L 130.561956 47.886543 
" style="fill:none;stroke:#e6e6e6;"/>
    <path d="M 86.067547 217.435782 
L 144.730781 160.08804 
L 144.734012 51.823037 
" style="fill:none;stroke:#e6e6e6;"/>
    <path d="M 100.412847 222.609686 
L 158.385807 164.537144 
L 159.086643 55.809688 
" style="fill:none;stroke:#e6e6e6;"/>
    <path d="M 114.946957 227.851688 
L 172.207374 169.04051 
L 173.623324 59.847461 
" style="fill:none;stroke:#e6e6e6;"/>
    <path d="M 129.673628 233.163141 
L 186.198548 173.599138 
L 188.347618 63.937347 
" style="fill:none;stroke:#e6e6e6;"/>
    <path d="M 144.596713 238.545434 
L 200.36247 178.214051 
L 203.26318 68.08036 
" style="fill:none;stroke:#e6e6e6;"/>
    <path d="M 159.720169 243.999995 
L 214.70236 182.886298 
L 218.373762 72.277543 
" style="fill:none;stroke:#e6e6e6;"/>
   </g>
   <g id="xtick_1">
    <g id="line2d_2">
     <path d="M 72.418583 211.840699 
L 70.88313 213.306396 
" style="fill:none;stroke:#000000;stroke-linecap:square;"/>
    </g>
    <g id="text_1">
     <text style="font-family:Bitstream Vera Sans;font-size:10.0px;font-style:normal;font-weight:400;text-anchor:middle;" transform="rotate(-0.000000, 65.560166, 237.722008)" x="65.5601663545" y="237.722007844">−0.6</text>
    </g>
   </g>
   <g id="xtick_2">
    <g id="line2d_3">
     <path d="M 86.573203 216.941466 
L 85.054338 218.426271 
" style="fill:none;stroke:#000000;stroke-linecap:square;"/>
    </g>
    <g id="text_2">
     <text style="font-family:Bitstream Vera Sans;font-size:10.0px;font-style:normal;font-weight:400;text-anchor:middle;" transform="rotate(-0.000000, 79.717871, 242.959065)" x="79.7178712444" y="242.959064999">−0.4</text>
    </g>
   </g>
   <g id="xtick_3">
    <g id="line2d_4">
     <path d="M 100.912788 222.108887 
L 99.411077 223.613177 
" style="fill:none;stroke:#000000;stroke-linecap:square;"/>
    </g>
    <g id="text_3">
     <text style="font-family:Bitstream Vera Sans;font-size:10.0px;font-style:normal;font-weight:400;text-anchor:middle;" transform="rotate(-0.000000, 94.061210, 248.264790)" x="94.0612100432" y="248.264789738">−0.2</text>
    </g>
   </g>
   <g id="xtick_4">
    <g id="line2d_5">
     <path d="M 115.440987 227.344278 
L 113.957017 228.868439 
" style="fill:none;stroke:#000000;stroke-linecap:square;"/>
    </g>
    <g id="text_4">
     <text style="font-family:Bitstream Vera Sans;font-size:10.0px;font-style:normal;font-weight:400;text-anchor:middle;" transform="rotate(-0.000000, 108.593858, 253.640542)" x="108.593857855" y="253.640541514">0.0</text>
    </g>
   </g>
   <g id="xtick_5">
    <g id="line2d_6">
     <path d="M 130.161548 232.648988 
L 128.69592 234.193416 
" style="fill:none;stroke:#000000;stroke-linecap:square;"/>
    </g>
    <g id="text_5">
     <text style="font-family:Bitstream Vera Sans;font-size:10.0px;font-style:normal;font-weight:400;text-anchor:middle;" transform="rotate(-0.000000, 123.319587, 259.087716)" x="123.319587438" y="259.087715902">0.2</text>
    </g>
   </g>
   <g id="xtick_6">
    <g id="line2d_7">
     <path d="M 145.078315 238.024404 
L 143.631654 239.589505 
" style="fill:none;stroke:#000000;stroke-linecap:square;"/>
    </g>
    <g id="text_6">
     <text style="font-family:Bitstream Vera Sans;font-size:10.0px;font-style:normal;font-weight:400;text-anchor:middle;" transform="rotate(-0.000000, 138.242272, 264.607746)" x="138.242272472" y="264.60774581">0.4</text>
    </g>
   </g>
   <g id="xtick_7">
    <g id="line2d_8">
     <path d="M 160.195238 243.471947 
L 158.768187 245.05814 
" style="fill:none;stroke:#000000;stroke-linecap:square;"/>
    </g>
    <g id="text_7">
     <text style="font-family:Bitstream Vera Sans;font-size:10.0px;font-style:normal;font-weight:400;text-anchor:middle;" transform="rotate(-0.000000, 153.365891, 270.202103)" x="153.365890956" y="270.202102735">0.6</text>
    </g>
   </g>
  </g>
  <g id="axis3d_2">
   <g id="line2d_9">
    <path d="M 221.536084 185.112874 
L 166.93261 246.601298 
" style="fill:none;stroke:#000000;stroke-linecap:square;stroke-width:0.75;"/>
   </g>
   <g id="Line3DCollection_2">
    <path d="M 68.791645 90.346162 
L 72.671354 202.965568 
L 173.715968 238.962627 
" style="fill:none;stroke:#e6e6e6;"/>
    <path d="M 81.427351 80.19416 
L 84.614036 191.690745 
L 184.670284 226.627082 
" style="fill:none;stroke:#e6e6e6;"/>
    <path d="M 93.682658 70.347784 
L 96.215041 180.738492 
L 195.297113 214.660316 
" style="fill:none;stroke:#e6e6e6;"/>
    <path d="M 105.57449 60.793437 
L 107.488825 170.09516 
L 205.610925 203.046036 
" style="fill:none;stroke:#e6e6e6;"/>
    <path d="M 117.118781 51.518318 
L 118.449041 159.747862 
L 215.625348 191.768894 
" style="fill:none;stroke:#e6e6e6;"/>
   </g>
   <g id="xtick_8">
    <g id="line2d_10">
     <path d="M 172.87047 238.661419 
L 175.408845 239.565713 
" style="fill:none;stroke:#000000;stroke-linecap:square;"/>
    </g>
    <g id="text_8">
     <text style="font-family:Bitstream Vera Sans;font-size:10.0px;font-style:normal;font-weight:400;text-anchor:middle;" transform="rotate(-0.000000, 184.666357, 262.071368)" x="184.666356737" y="262.071367877">−0.4</text>
    </g>
   </g>
   <g id="xtick_9">
    <g id="line2d_11">
     <path d="M 183.833614 226.334944 
L 186.345457 227.211997 
" style="fill:none;stroke:#000000;stroke-linecap:square;"/>
    </g>
    <g id="text_9">
     <text style="font-family:Bitstream Vera Sans;font-size:10.0px;font-style:normal;font-weight:400;text-anchor:middle;" transform="rotate(-0.000000, 195.446499, 249.509787)" x="195.446498928" y="249.509786814">−0.2</text>
    </g>
   </g>
   <g id="xtick_10">
    <g id="line2d_12">
     <path d="M 194.469126 214.376845 
L 196.954876 215.227869 
" style="fill:none;stroke:#000000;stroke-linecap:square;"/>
    </g>
    <g id="text_10">
     <text style="font-family:Bitstream Vera Sans;font-size:10.0px;font-style:normal;font-weight:400;text-anchor:middle;" transform="rotate(-0.000000, 205.904597, 237.323468)" x="205.904596837" y="237.323468458">0.0</text>
    </g>
   </g>
   <g id="xtick_11">
    <g id="line2d_13">
     <path d="M 204.791474 202.770852 
L 207.251569 203.596989 
" style="fill:none;stroke:#000000;stroke-linecap:square;"/>
    </g>
    <g id="text_11">
     <text style="font-family:Bitstream Vera Sans;font-size:10.0px;font-style:normal;font-weight:400;text-anchor:middle;" transform="rotate(-0.000000, 216.054869, 225.495844)" x="216.054869132" y="225.495844481">0.2</text>
    </g>
   </g>
   <g id="xtick_12">
    <g id="line2d_14">
     <path d="M 214.814292 191.501639 
L 217.249162 192.303965 
" style="fill:none;stroke:#000000;stroke-linecap:square;"/>
    </g>
    <g id="text_12">
     <text style="font-family:Bitstream Vera Sans;font-size:10.0px;font-style:normal;font-weight:400;text-anchor:middle;" transform="rotate(-0.000000, 225.910710, 214.011308)" x="225.910709592" y="214.011307757">0.4</text>
    </g>
   </g>
  </g>
  <g id="axis3d_3">
   <g id="line2d_15">
    <path d="M 221.536084 185.112874 
L 225.578204 74.278681 
" style="fill:none;stroke:#000000;stroke-linecap:square;stroke-width:0.75;"/>
   </g>
   <g id="Line3DCollection_3">
    <path d="M 221.984142 172.827204 
L 124.814063 141.685509 
L 64.806064 197.399352 
" style="fill:none;stroke:#e6e6e6;"/>
    <path d="M 222.737345 152.174521 
L 124.6288 121.611515 
L 64.002221 176.30759 
" style="fill:none;stroke:#e6e6e6;"/>
    <path d="M 223.505367 131.115492 
L 124.440046 101.159342 
L 63.18203 154.786912 
" style="fill:none;stroke:#e6e6e6;"/>
    <path d="M 224.28865 109.638007 
L 124.247703 80.318203 
L 62.344989 132.824099 
" style="fill:none;stroke:#e6e6e6;"/>
    <path d="M 225.087654 87.729468 
L 124.051667 59.076894 
L 61.490573 110.405385 
" style="fill:none;stroke:#e6e6e6;"/>
   </g>
   <g id="xtick_13">
    <g id="line2d_16">
     <path d="M 221.173236 172.56732 
L 223.60765 173.347516 
" style="fill:none;stroke:#000000;stroke-linecap:square;"/>
    </g>
    <g id="text_13">
     <text style="font-family:Bitstream Vera Sans;font-size:10.0px;font-style:normal;font-weight:400;text-anchor:middle;" transform="rotate(-0.000000, 237.938659, 177.931421)" x="237.938658802" y="177.931421337">−0.4</text>
    </g>
   </g>
   <g id="xtick_14">
    <g id="line2d_17">
     <path d="M 221.918277 151.919363 
L 224.37721 152.685375 
" style="fill:none;stroke:#000000;stroke-linecap:square;"/>
    </g>
    <g id="text_14">
     <text style="font-family:Bitstream Vera Sans;font-size:10.0px;font-style:normal;font-weight:400;text-anchor:middle;" transform="rotate(-0.000000, 238.844222, 157.324172)" x="238.844222113" y="157.324171848">−0.2</text>
    </g>
   </g>
   <g id="xtick_15">
    <g id="line2d_18">
     <path d="M 222.677972 130.865298 
L 225.161921 131.616414 
" style="fill:none;stroke:#000000;stroke-linecap:square;"/>
    </g>
    <g id="text_15">
     <text style="font-family:Bitstream Vera Sans;font-size:10.0px;font-style:normal;font-weight:400;text-anchor:middle;" transform="rotate(-0.000000, 239.767542, 136.312852)" x="239.767541859" y="136.312852037">0.0</text>
    </g>
   </g>
   <g id="xtick_16">
    <g id="line2d_19">
     <path d="M 223.452757 109.393025 
L 225.962237 110.128499 
" style="fill:none;stroke:#000000;stroke-linecap:square;"/>
    </g>
    <g id="text_16">
     <text style="font-family:Bitstream Vera Sans;font-size:10.0px;font-style:normal;font-weight:400;text-anchor:middle;" transform="rotate(-0.000000, 240.709145, 114.885460)" x="240.709145465" y="114.885459616">0.2</text>
    </g>
   </g>
   <g id="xtick_17">
    <g id="line2d_20">
     <path d="M 224.243086 87.489959 
L 226.778626 88.209007 
" style="fill:none;stroke:#000000;stroke-linecap:square;"/>
    </g>
    <g id="text_17">
     <text style="font-family:Bitstream Vera Sans;font-size:10.0px;font-style:normal;font-weight:400;text-anchor:middle;" transform="rotate(-0.000000, 241.669581, 93.029512)" x="241.669581458" y="93.0295121981">0.4</text>
    </g>
   </g>
  </g>
  <g id="axes_1">
   <g id="Poly3DCollection_1">
    <path clip-path="url(#p2c67848d6d)" d="M 153.857214 113.425906 
L 146.973884 113.036002 
L 140.057367 113.11409 
L 133.207194 113.659205 
L 126.52236 114.664589 
L 120.100487 116.117681 
L 120.129957 116.156958 
L 120.218098 116.266163 
L 120.364256 116.432047 
L 120.567441 116.641054 
L 120.826339 116.879441 
L 126.996862 115.476432 
L 133.437068 114.50196 
L 140.051788 113.970622 
L 146.742945 113.8911 
L 153.410932 114.265937 
L 153.569917 113.994407 
L 153.694857 113.76283 
L 153.784807 113.583146 
L 153.839071 113.467054 
L 153.857214 113.425906 
z
" style="fill:#b7b7b7;fill-opacity:0.8;stroke:#000000;stroke-opacity:0.8;"/>
    <path clip-path="url(#p2c67848d6d)" d="M 153.410932 114.265937 
L 146.742945 113.8911 
L 140.051788 113.970622 
L 133.437068 114.50196 
L 126.996862 115.476432 
L 120.826339 116.879441 
L 121.139321 117.13341 
L 121.504458 117.389234 
L 121.919532 117.633381 
L 122.382052 117.852642 
L 122.88927 118.034255 
L 128.350863 116.811879 
L 134.099777 115.962214 
L 140.047663 115.503372 
L 146.099174 115.447808 
L 152.154888 115.801388 
L 152.461756 115.510234 
L 152.74275 115.199425 
L 152.995815 114.880512 
L 153.219091 114.56534 
L 153.410932 114.265937 
z
" style="fill:#c7c7c7;fill-opacity:0.8;stroke:#000000;stroke-opacity:0.8;"/>
    <path clip-path="url(#p2c67848d6d)" d="M 184.358372 122.023144 
L 179.09492 119.481847 
L 173.321745 117.326299 
L 167.128347 115.584587 
L 160.608093 114.278976 
L 153.857214 113.425906 
L 153.839071 113.467054 
L 153.784807 113.583146 
L 153.694857 113.76283 
L 153.569917 113.994407 
L 153.410932 114.265937 
L 159.9559 115.091435 
L 166.278944 116.35762 
L 172.283234 118.048244 
L 177.875147 120.140815 
L 182.965467 122.606654 
L 183.462063 122.426752 
L 183.851999 122.266996 
L 184.132579 122.138915 
L 184.3018 122.053908 
L 184.358372 122.023144 
z
" style="fill:#a3a3a3;fill-opacity:0.8;stroke:#000000;stroke-opacity:0.8;"/>
    <path clip-path="url(#p2c67848d6d)" d="M 182.965467 122.606654 
L 177.875147 120.140815 
L 172.283234 118.048244 
L 166.278944 116.35762 
L 159.9559 115.091435 
L 153.410932 114.265937 
L 153.219091 114.56534 
L 152.995815 114.880512 
L 152.74275 115.199425 
L 152.461756 115.510234 
L 152.154888 115.801388 
L 158.11386 116.562894 
L 163.875759 117.723829 
L 169.342694 119.268391 
L 174.42089 121.17357 
L 179.022364 123.40934 
L 179.989336 123.298664 
L 180.872602 123.152286 
L 181.666418 122.98079 
L 182.365582 122.795155 
L 182.965467 122.606654 
z
" style="fill:#bbbbbb;fill-opacity:0.8;stroke:#000000;stroke-opacity:0.8;"/>
    <path clip-path="url(#p2c67848d6d)" d="M 152.154888 115.801388 
L 146.099174 115.447808 
L 140.047663 115.503372 
L 134.099777 115.962214 
L 128.350863 116.811879 
L 122.88927 118.034255 
L 123.4382 118.166026 
L 124.025634 118.236456 
L 124.648168 118.234856 
L 125.302215 118.151466 
L 125.984036 117.977573 
L 130.400871 117.092868 
L 135.126873 116.494835 
L 140.083221 116.202852 
L 145.179039 116.23206 
L 150.316446 116.591273 
L 150.715944 116.554335 
L 151.102288 116.447915 
L 151.472668 116.28059 
L 151.824389 116.061727 
L 152.154888 115.801388 
z
" style="fill:#c4c4c4;fill-opacity:0.8;stroke:#000000;stroke-opacity:0.8;"/>
    <path clip-path="url(#p2c67848d6d)" d="M 120.100487 116.117681 
L 114.036958 118.000101 
L 108.423968 120.28764 
L 103.349488 122.950276 
L 98.896132 125.952219 
L 95.139903 129.252023 
L 95.215291 129.269523 
L 95.440725 129.312609 
L 95.814349 129.367084 
L 96.33331 129.418757 
L 96.993789 129.45358 
L 100.571534 126.302372 
L 104.813156 123.43388 
L 109.652285 120.885523 
L 115.016363 118.690853 
L 120.826339 116.879441 
L 120.567441 116.641054 
L 120.364256 116.432047 
L 120.218098 116.266163 
L 120.129957 116.156958 
L 120.100487 116.117681 
z
" style="fill:#dddddd;fill-opacity:0.8;stroke:#000000;stroke-opacity:0.8;"/>
    <path clip-path="url(#p2c67848d6d)" d="M 179.022364 123.40934 
L 174.42089 121.17357 
L 169.342694 119.268391 
L 163.875759 117.723829 
L 158.11386 116.562894 
L 152.154888 115.801388 
L 151.824389 116.061727 
L 151.472668 116.28059 
L 151.102288 116.447915 
L 150.715944 116.554335 
L 150.316446 116.591273 
L 155.394669 117.281771 
L 160.313283 118.296725 
L 164.974816 119.62102 
L 169.287023 121.231363 
L 173.165087 123.096639 
L 174.448697 123.30264 
L 175.68382 123.429304 
L 176.862711 123.483817 
L 177.977925 123.474224 
L 179.022364 123.40934 
z
" style="fill:#b4b4b4;fill-opacity:0.8;stroke:#000000;stroke-opacity:0.8;"/>
    <path clip-path="url(#p2c67848d6d)" d="M 120.826339 116.879441 
L 115.016363 118.690853 
L 109.652285 120.885523 
L 104.813156 123.43388 
L 100.571534 126.302372 
L 96.993789 129.45358 
L 97.791038 129.45778 
L 98.719425 129.41799 
L 99.772484 129.321374 
L 100.942965 129.155746 
L 102.222899 128.909687 
L 105.302942 126.181077 
L 108.951429 123.705052 
L 113.12952 121.505625 
L 117.793401 119.607036 
L 122.88927 118.034255 
L 122.382052 117.852642 
L 121.919532 117.633381 
L 121.504458 117.389234 
L 121.139321 117.13341 
L 120.826339 116.879441 
z
" style="fill:#d8d8d8;fill-opacity:0.8;stroke:#000000;stroke-opacity:0.8;"/>
    <path clip-path="url(#p2c67848d6d)" d="M 122.88927 118.034255 
L 117.793401 119.607036 
L 113.12952 121.505625 
L 108.951429 123.705052 
L 105.302942 126.181077 
L 102.222899 128.909687 
L 103.603657 128.572655 
L 105.07602 128.135086 
L 106.630246 127.58849 
L 108.256151 126.925542 
L 109.94318 126.140159 
L 112.305572 124.035078 
L 115.090276 122.164605 
L 118.300885 120.52788 
L 121.93763 119.128464 
L 125.984036 117.977573 
L 125.302215 118.151466 
L 124.648168 118.234856 
L 124.025634 118.236456 
L 123.4382 118.166026 
L 122.88927 118.034255 
z
" style="fill:#dadada;fill-opacity:0.8;stroke:#000000;stroke-opacity:0.8;"/>
    <path clip-path="url(#p2c67848d6d)" d="M 150.316446 116.591273 
L 145.179039 116.23206 
L 140.083221 116.202852 
L 135.126873 116.494835 
L 130.400871 117.092868 
L 125.984036 117.977573 
L 126.689757 117.705622 
L 127.415401 117.329329 
L 128.156906 116.843788 
L 128.910161 116.245575 
L 129.671027 115.532858 
L 132.883337 115.136669 
L 136.421192 114.919574 
L 140.215367 114.898343 
L 144.181153 115.088342 
L 148.225191 115.499886 
L 148.645871 115.905281 
L 149.068376 116.213158 
L 149.489665 116.426889 
L 149.906695 116.551034 
L 150.316446 116.591273 
z
" style="fill:#bfbfbf;fill-opacity:0.8;stroke:#000000;stroke-opacity:0.8;"/>
    <path clip-path="url(#p2c67848d6d)" d="M 173.165087 123.096639 
L 169.287023 121.231363 
L 164.974816 119.62102 
L 160.313283 118.296725 
L 155.394669 117.281771 
L 150.316446 116.591273 
L 149.906695 116.551034 
L 149.489665 116.426889 
L 149.068376 116.213158 
L 148.645871 115.905281 
L 148.225191 115.499886 
L 152.250634 116.136102 
L 156.161014 116.991822 
L 159.863295 118.053159 
L 163.270486 119.297558 
L 166.304127 120.694263 
L 167.707777 121.369676 
L 169.104015 121.945173 
L 170.484525 122.422615 
L 171.840976 122.805046 
L 173.165087 123.096639 
z
" style="fill:#adadad;fill-opacity:0.8;stroke:#000000;stroke-opacity:0.8;"/>
    <path clip-path="url(#p2c67848d6d)" d="M 200.315709 139.134778 
L 198.724985 135.28385 
L 196.277278 131.594422 
L 193.024155 128.121778 
L 189.027568 124.916314 
L 184.358372 122.023144 
L 184.3018 122.053908 
L 184.132579 122.138915 
L 183.851999 122.266996 
L 183.462063 122.426752 
L 182.965467 122.606654 
L 187.470681 125.411008 
L 191.314402 128.513251 
L 194.428918 131.86723 
L 196.756782 135.42181 
L 198.25235 139.121653 
L 198.987271 139.159981 
L 199.564879 139.167963 
L 199.980801 139.157996 
L 200.231778 139.142699 
L 200.315709 139.134778 
z
" style="fill:#989898;fill-opacity:0.8;stroke:#000000;stroke-opacity:0.8;"/>
    <path clip-path="url(#p2c67848d6d)" d="M 198.25235 139.121653 
L 196.756782 135.42181 
L 194.428918 131.86723 
L 191.314402 128.513251 
L 187.470681 125.411008 
L 182.965467 122.606654 
L 182.365582 122.795155 
L 181.666418 122.98079 
L 180.872602 123.152286 
L 179.989336 123.298664 
L 179.022364 123.40934 
L 183.066714 125.939003 
L 186.483091 128.71976 
L 189.212315 131.703635 
L 191.209007 134.83888 
L 192.443365 138.071949 
L 193.863539 138.431622 
L 195.163272 138.706555 
L 196.333395 138.906227 
L 197.365567 139.040929 
L 198.25235 139.121653 
z
" style="fill:#b3b3b3;fill-opacity:0.8;stroke:#000000;stroke-opacity:0.8;"/>
    <path clip-path="url(#p2c67848d6d)" d="M 125.984036 117.977573 
L 121.93763 119.128464 
L 118.300885 120.52788 
L 115.090276 122.164605 
L 112.305572 124.035078 
L 109.94318 126.140159 
L 111.68049 125.227573 
L 113.457031 124.184396 
L 115.261632 123.008671 
L 117.083081 121.699916 
L 118.910218 120.25916 
L 120.469144 118.865798 
L 122.269356 117.735134 
L 124.370775 116.823874 
L 126.82944 116.095587 
L 129.671027 115.532858 
L 128.910161 116.245575 
L 128.156906 116.843788 
L 127.415401 117.329329 
L 126.689757 117.705622 
L 125.984036 117.977573 
z
" style="fill:#dcdcdc;fill-opacity:0.8;stroke:#000000;stroke-opacity:0.8;"/>
    <path clip-path="url(#p2c67848d6d)" d="M 192.443365 138.071949 
L 191.209007 134.83888 
L 189.212315 131.703635 
L 186.483091 128.71976 
L 183.066714 125.939003 
L 179.022364 123.40934 
L 177.977925 123.474224 
L 176.862711 123.483817 
L 175.68382 123.429304 
L 174.448697 123.30264 
L 173.165087 123.096639 
L 176.533939 125.178576 
L 179.330819 127.432862 
L 181.508077 129.81092 
L 183.036014 132.262605 
L 183.905262 134.740012 
L 185.766463 135.630286 
L 187.562777 136.403996 
L 189.282083 137.065137 
L 190.912678 137.618972 
L 192.443365 138.071949 
z
" style="fill:#aaaaaa;fill-opacity:0.8;stroke:#000000;stroke-opacity:0.8;"/>
    <path clip-path="url(#p2c67848d6d)" d="M 148.225191 115.499886 
L 144.181153 115.088342 
L 140.215367 114.898343 
L 136.421192 114.919574 
L 132.883337 115.136669 
L 129.671027 115.532858 
L 130.435369 114.705491 
L 131.199088 113.765125 
L 131.958149 112.715298 
L 132.708615 111.561544 
L 133.446686 110.31149 
L 135.496851 110.503076 
L 137.870759 110.751762 
L 140.506583 111.071699 
L 143.328251 111.477946 
L 146.25208 111.981651 
L 146.619973 112.880193 
L 147.003921 113.683825 
L 147.401301 114.389327 
L 147.809349 114.994846 
L 148.225191 115.499886 
z
" style="fill:#bababa;fill-opacity:0.8;stroke:#000000;stroke-opacity:0.8;"/>
    <path clip-path="url(#p2c67848d6d)" d="M 166.304127 120.694263 
L 163.270486 119.297558 
L 159.863295 118.053159 
L 156.161014 116.991822 
L 152.250634 116.136102 
L 148.225191 115.499886 
L 147.809349 114.994846 
L 147.401301 114.389327 
L 147.003921 113.683825 
L 146.619973 112.880193 
L 146.25208 111.981651 
L 149.191501 112.587425 
L 152.060631 113.292001 
L 154.777158 114.083692 
L 157.264858 114.942416 
L 159.45597 115.840184 
L 160.777322 116.999522 
L 162.130187 118.068399 
L 163.507365 119.042377 
L 164.901297 119.918293 
L 166.304127 120.694263 
z
" style="fill:#a5a5a5;fill-opacity:0.8;stroke:#000000;stroke-opacity:0.8;"/>
    <path clip-path="url(#p2c67848d6d)" d="M 95.139903 129.252023 
L 92.148851 132.802778 
L 89.981631 136.55241 
L 88.686017 140.444114 
L 88.297402 144.416941 
L 88.837342 148.406558 
L 88.922808 148.39111 
L 89.178347 148.336584 
L 89.601725 148.231006 
L 90.189467 148.062896 
L 90.936906 147.821394 
L 90.432458 143.979973 
L 90.817359 140.163313 
L 92.065919 136.433008 
L 94.14044 132.845906 
L 96.993789 129.45358 
L 96.33331 129.418757 
L 95.814349 129.367084 
L 95.440725 129.312609 
L 95.215291 129.269523 
L 95.139903 129.252023 
z
" style="fill:#f7f7f7;fill-opacity:0.8;stroke:#000000;stroke-opacity:0.8;"/>
    <path clip-path="url(#p2c67848d6d)" d="M 96.993789 129.45358 
L 94.14044 132.845906 
L 92.065919 136.433008 
L 90.817359 140.163313 
L 90.432458 143.979973 
L 90.936906 147.821394 
L 91.83823 147.496374 
L 92.886552 147.078554 
L 94.073973 146.559597 
L 95.391667 145.932197 
L 96.829965 145.190168 
L 96.428133 141.730714 
L 96.807428 138.319688 
L 97.930081 135.014672 
L 99.750789 131.864743 
L 102.222899 128.909687 
L 100.942965 129.155746 
L 99.772484 129.321374 
L 98.719425 129.41799 
L 97.791038 129.45778 
L 96.993789 129.45358 
z
" style="fill:#e5e5e5;fill-opacity:0.8;stroke:#000000;stroke-opacity:0.8;"/>
    <path clip-path="url(#p2c67848d6d)" d="M 183.905262 134.740012 
L 183.036014 132.262605 
L 181.508077 129.81092 
L 179.330819 127.432862 
L 176.533939 125.178576 
L 173.165087 123.096639 
L 171.840976 122.805046 
L 170.484525 122.422615 
L 169.104015 121.945173 
L 167.707777 121.369676 
L 166.304127 120.694263 
L 168.896871 122.20526 
L 170.995316 123.786874 
L 172.563161 125.392316 
L 173.584574 126.975611 
L 174.067432 128.497401 
L 176.063299 129.98148 
L 178.057813 131.350286 
L 180.038198 132.600537 
L 181.991616 133.730514 
L 183.905262 134.740012 
z
" style="fill:#a0a0a0;fill-opacity:0.8;stroke:#000000;stroke-opacity:0.8;"/>
    <path clip-path="url(#p2c67848d6d)" d="M 102.222899 128.909687 
L 99.750789 131.864743 
L 97.930081 135.014672 
L 96.807428 138.319688 
L 96.428133 141.730714 
L 96.829965 145.190168 
L 98.37844 144.328509 
L 100.02601 143.343468 
L 101.761032 142.232596 
L 103.571401 140.99479 
L 105.444658 139.630325 
L 105.200296 136.663126 
L 105.585023 133.777653 
L 106.542246 131.033533 
L 108.011861 128.477582 
L 109.94318 126.140159 
L 108.256151 126.925542 
L 106.630246 127.58849 
L 105.07602 128.135086 
L 103.603657 128.572655 
L 102.222899 128.909687 
z
" style="fill:#ededed;fill-opacity:0.8;stroke:#000000;stroke-opacity:0.8;"/>
    <path clip-path="url(#p2c67848d6d)" d="M 129.671027 115.532858 
L 126.82944 116.095587 
L 124.370775 116.823874 
L 122.269356 117.735134 
L 120.469144 118.865798 
L 118.910218 120.25916 
L 120.732015 118.688964 
L 122.537665 116.993441 
L 124.316661 115.178259 
L 126.058875 113.250649 
L 127.754622 111.219414 
L 128.562764 110.498294 
L 129.406174 110.173393 
L 130.430418 110.105001 
L 131.758085 110.172343 
L 133.446686 110.31149 
L 132.708615 111.561544 
L 131.958149 112.715298 
L 131.199088 113.765125 
L 130.435369 114.705491 
L 129.671027 115.532858 
z
" style="fill:#dcdcdc;fill-opacity:0.8;stroke:#000000;stroke-opacity:0.8;"/>
    <path clip-path="url(#p2c67848d6d)" d="M 109.94318 126.140159 
L 108.011861 128.477582 
L 106.542246 131.033533 
L 105.585023 133.777653 
L 105.200296 136.663126 
L 105.444658 139.630325 
L 107.368089 138.14088 
L 109.328832 136.529556 
L 111.31398 134.800883 
L 113.310682 132.960824 
L 115.306249 131.016768 
L 115.247603 128.516574 
L 115.657705 126.123194 
L 116.458284 123.910855 
L 117.564979 121.942798 
L 118.910218 120.25916 
L 117.083081 121.699916 
L 115.261632 123.008671 
L 113.457031 124.184396 
L 111.68049 125.227573 
L 109.94318 126.140159 
z
" style="fill:#f3f3f3;fill-opacity:0.8;stroke:#000000;stroke-opacity:0.8;"/>
    <path clip-path="url(#p2c67848d6d)" d="M 146.25208 111.981651 
L 143.328251 111.477946 
L 140.506583 111.071699 
L 137.870759 110.751762 
L 135.496851 110.503076 
L 133.446686 110.31149 
L 134.16873 108.974947 
L 134.871337 107.563995 
L 135.551367 106.093026 
L 136.206025 104.578723 
L 136.832944 103.039915 
L 137.957833 103.774677 
L 139.367123 104.448419 
L 141.007753 105.07929 
L 142.818229 105.683372 
L 144.732217 106.272081 
L 144.98719 107.550071 
L 145.268331 108.769117 
L 145.574102 109.919523 
L 145.902701 110.992783 
L 146.25208 111.981651 
z
" style="fill:#b2b2b2;fill-opacity:0.8;stroke:#000000;stroke-opacity:0.8;"/>
    <path clip-path="url(#p2c67848d6d)" d="M 174.067432 128.497401 
L 173.584574 126.975611 
L 172.563161 125.392316 
L 170.995316 123.786874 
L 168.896871 122.20526 
L 166.304127 120.694263 
L 164.901297 119.918293 
L 163.507365 119.042377 
L 162.130187 118.068399 
L 160.777322 116.999522 
L 159.45597 115.840184 
L 161.293579 116.742111 
L 162.734137 117.608081 
L 163.750189 118.395372 
L 164.333371 119.062741 
L 164.497742 119.576867 
L 166.318062 121.530817 
L 168.196395 123.410597 
L 170.121817 125.204599 
L 172.082822 126.902932 
L 174.067432 128.497401 
z
" style="fill:#969696;fill-opacity:0.8;stroke:#000000;stroke-opacity:0.8;"/>
    <path clip-path="url(#p2c67848d6d)" d="M 159.45597 115.840184 
L 157.264858 114.942416 
L 154.777158 114.083692 
L 152.060631 113.292001 
L 149.191501 112.587425 
L 146.25208 111.981651 
L 145.902701 110.992783 
L 145.574102 109.919523 
L 145.268331 108.769117 
L 144.98719 107.550071 
L 144.732217 106.272081 
L 146.681516 106.850728 
L 148.598642 107.417765 
L 150.419131 107.964507 
L 152.083643 108.475242 
L 153.53993 108.927691 
L 154.613137 110.430201 
L 155.746084 111.882431 
L 156.934364 113.274129 
L 158.172895 114.59608 
L 159.45597 115.840184 
z
" style="fill:#9e9e9e;fill-opacity:0.8;stroke:#000000;stroke-opacity:0.8;"/>
    <path clip-path="url(#p2c67848d6d)" d="M 118.910218 120.25916 
L 117.564979 121.942798 
L 116.458284 123.910855 
L 115.657705 126.123194 
L 115.247603 128.516574 
L 115.306249 131.016768 
L 117.28825 128.977522 
L 119.244618 126.853288 
L 121.163744 124.655647 
L 123.034582 122.397518 
L 124.846748 120.09312 
L 124.952219 117.937748 
L 125.395625 115.870717 
L 126.087271 113.987698 
L 126.912153 112.400246 
L 127.754622 111.219414 
L 126.058875 113.250649 
L 124.316661 115.178259 
L 122.537665 116.993441 
L 120.732015 118.688964 
L 118.910218 120.25916 
z
" style="fill:#f9f9f9;fill-opacity:0.8;stroke:#000000;stroke-opacity:0.8;"/>
    <path clip-path="url(#p2c67848d6d)" d="M 133.446686 110.31149 
L 131.758085 110.172343 
L 130.430418 110.105001 
L 129.406174 110.173393 
L 128.562764 110.498294 
L 127.754622 111.219414 
L 129.394709 109.094967 
L 130.970445 106.889429 
L 132.473549 104.616936 
L 133.895825 102.294478 
L 135.228033 99.944575 
L 135.454549 99.743823 
L 135.43184 100.430444 
L 135.573802 101.341709 
L 136.032237 102.228983 
L 136.832944 103.039915 
L 136.206025 104.578723 
L 135.551367 106.093026 
L 134.871337 107.563995 
L 134.16873 108.974947 
L 133.446686 110.31149 
z
" style="fill:#d8d8d8;fill-opacity:0.8;stroke:#000000;stroke-opacity:0.8;"/>
    <path clip-path="url(#p2c67848d6d)" d="M 192.594592 157.7057 
L 195.470117 154.180576 
L 197.489548 150.498911 
L 198.630302 146.721095 
L 198.883069 142.908247 
L 198.25235 139.121653 
L 197.365567 139.040929 
L 196.333395 138.906227 
L 195.163272 138.706555 
L 193.863539 138.431622 
L 192.443365 138.071949 
L 192.902044 141.349974 
L 192.587424 144.623362 
L 191.514753 147.847745 
L 189.707414 150.984243 
L 187.191854 153.997368 
L 188.510163 155.019618 
L 189.718068 155.894461 
L 190.806708 156.628365 
L 191.767974 157.229107 
L 192.594592 157.7057 
z
" style="fill:#b4b4b4;fill-opacity:0.8;stroke:#000000;stroke-opacity:0.8;"/>
    <path clip-path="url(#p2c67848d6d)" d="M 194.520857 158.616118 
L 197.523574 154.911218 
L 199.617312 151.042721 
L 200.780828 147.078904 
L 201.009764 143.087563 
L 200.315709 139.134778 
L 200.231778 139.142699 
L 199.980801 139.157996 
L 199.564879 139.167963 
L 198.987271 139.159981 
L 198.25235 139.121653 
L 198.883069 142.908247 
L 198.630302 146.721095 
L 197.489548 150.498911 
L 195.470117 154.180576 
L 192.594592 157.7057 
L 193.2802 158.068304 
L 193.819414 158.328122 
L 194.207899 158.49729 
L 194.442414 158.58875 
L 194.520857 158.616118 
z
" style="fill:#969696;fill-opacity:0.8;stroke:#000000;stroke-opacity:0.8;"/>
    <path clip-path="url(#p2c67848d6d)" d="M 164.497742 119.576867 
L 164.333371 119.062741 
L 163.750189 118.395372 
L 162.734137 117.608081 
L 161.293579 116.742111 
L 159.45597 115.840184 
L 158.172895 114.59608 
L 156.934364 113.274129 
L 155.746084 111.882431 
L 154.613137 110.430201 
L 153.53993 108.927691 
L 154.744698 109.293831 
L 155.665368 109.541127 
L 156.281741 109.63426 
L 156.587506 109.537519 
L 156.591625 109.218227 
L 157.987617 111.310734 
L 159.482766 113.411604 
L 161.071195 115.501429 
L 162.745656 117.562066 
L 164.497742 119.576867 
z
" style="fill:#8e8e8e;fill-opacity:0.8;stroke:#000000;stroke-opacity:0.8;"/>
    <path clip-path="url(#p2c67848d6d)" d="M 187.191854 153.997368 
L 189.707414 150.984243 
L 191.514753 147.847745 
L 192.587424 144.623362 
L 192.902044 141.349974 
L 192.443365 138.071949 
L 190.912678 137.618972 
L 189.282083 137.065137 
L 187.562777 136.403996 
L 185.766463 135.630286 
L 183.905262 134.740012 
L 184.12772 137.202305 
L 183.734582 139.620807 
L 182.769863 141.982455 
L 181.279029 144.288684 
L 179.295628 146.5474 
L 181.013074 148.354065 
L 182.672509 150.002429 
L 184.262692 151.491709 
L 185.772665 152.82262 
L 187.191854 153.997368 
z
" style="fill:#aaaaaa;fill-opacity:0.8;stroke:#000000;stroke-opacity:0.8;"/>
    <path clip-path="url(#p2c67848d6d)" d="M 127.754622 111.219414 
L 126.912153 112.400246 
L 126.087271 113.987698 
L 125.395625 115.870717 
L 124.952219 117.937748 
L 124.846748 120.09312 
L 126.590632 117.757913 
L 128.257508 115.40851 
L 129.839661 113.062559 
L 131.330533 110.738559 
L 132.724877 108.455604 
L 132.88808 106.55958 
L 133.30132 104.660063 
L 133.90659 102.823031 
L 134.610802 101.158817 
L 135.228033 99.944575 
L 133.895825 102.294478 
L 132.473549 104.616936 
L 130.970445 106.889429 
L 129.394709 109.094967 
L 127.754622 111.219414 
z
" style="fill:#fdfdfd;fill-opacity:0.8;stroke:#000000;stroke-opacity:0.8;"/>
    <path clip-path="url(#p2c67848d6d)" d="M 179.295628 146.5474 
L 181.279029 144.288684 
L 182.769863 141.982455 
L 183.734582 139.620807 
L 184.12772 137.202305 
L 183.905262 134.740012 
L 181.991616 133.730514 
L 180.038198 132.600537 
L 178.057813 131.350286 
L 176.063299 129.98148 
L 174.067432 128.497401 
L 174.045508 129.932947 
L 173.577688 131.281798 
L 172.740743 132.576103 
L 171.611572 133.880104 
L 170.239595 135.271011 
L 172.075186 137.805571 
L 173.909908 140.20785 
L 175.732523 142.469788 
L 177.531603 144.584717 
L 179.295628 146.5474 
z
" style="fill:#9f9f9f;fill-opacity:0.8;stroke:#000000;stroke-opacity:0.8;"/>
    <path clip-path="url(#p2c67848d6d)" d="M 144.732217 106.272081 
L 142.818229 105.683372 
L 141.007753 105.07929 
L 139.367123 104.448419 
L 137.957833 103.774677 
L 136.832944 103.039915 
L 137.4303 101.497225 
L 137.996944 99.972435 
L 138.532534 98.48749 
L 139.037644 97.063196 
L 139.513796 95.717778 
L 140.0772 96.623586 
L 140.829218 97.44079 
L 141.739439 98.173908 
L 142.770952 98.828177 
L 143.882712 99.407302 
L 143.99437 100.800511 
L 144.135278 102.197171 
L 144.305475 103.583424 
L 144.504663 104.945938 
L 144.732217 106.272081 
z
" style="fill:#a7a7a7;fill-opacity:0.8;stroke:#000000;stroke-opacity:0.8;"/>
    <path clip-path="url(#p2c67848d6d)" d="M 153.53993 108.927691 
L 152.083643 108.475242 
L 150.419131 107.964507 
L 148.598642 107.417765 
L 146.681516 106.850728 
L 144.732217 106.272081 
L 144.504663 104.945938 
L 144.305475 103.583424 
L 144.135278 102.197171 
L 143.99437 100.800511 
L 143.882712 99.407302 
L 145.031646 99.912174 
L 146.174592 100.340152 
L 147.270092 100.684757 
L 148.28004 100.935722 
L 149.171192 101.07935 
L 149.906361 102.650571 
L 150.711669 104.234514 
L 151.586688 105.81746 
L 152.530144 107.386099 
L 153.53993 108.927691 
z
" style="fill:#979797;fill-opacity:0.8;stroke:#000000;stroke-opacity:0.8;"/>
    <path clip-path="url(#p2c67848d6d)" d="M 170.239595 135.271011 
L 171.611572 133.880104 
L 172.740743 132.576103 
L 173.577688 131.281798 
L 174.045508 129.932947 
L 174.067432 128.497401 
L 172.082822 126.902932 
L 170.121817 125.204599 
L 168.196395 123.410597 
L 166.318062 121.530817 
L 164.497742 119.576867 
L 164.283496 119.922664 
L 163.760768 120.11978 
L 163.031222 120.246724 
L 162.21751 120.463092 
L 161.418188 120.985544 
L 163.102 124.016383 
L 164.835395 126.973828 
L 166.609312 129.843878 
L 168.414101 132.613559 
L 170.239595 135.271011 
z
" style="fill:#949494;fill-opacity:0.8;stroke:#000000;stroke-opacity:0.8;"/>
    <path clip-path="url(#p2c67848d6d)" d="M 115.306249 131.016768 
L 115.892802 133.546599 
L 117.042064 136.03027 
L 118.763495 138.395672 
L 121.042211 140.575815 
L 123.84085 142.509978 
L 125.248414 140.062049 
L 126.640406 137.53917 
L 128.00921 134.953182 
L 129.347635 132.316584 
L 130.648972 129.642447 
L 128.642756 128.100561 
L 127.038645 126.319976 
L 125.867428 124.352226 
L 125.140305 122.255181 
L 124.846748 120.09312 
L 123.034582 122.397518 
L 121.163744 124.655647 
L 119.244618 126.853288 
L 117.28825 128.977522 
L 115.306249 131.016768 
z
" style="fill:#f5f5f5;fill-opacity:0.8;stroke:#000000;stroke-opacity:0.8;"/>
    <path clip-path="url(#p2c67848d6d)" d="M 105.444658 139.630325 
L 106.360894 142.611635 
L 107.971798 145.535848 
L 110.277444 148.331666 
L 113.254761 150.930378 
L 116.858465 153.267984 
L 118.21888 151.343358 
L 119.606089 149.297412 
L 121.011269 147.137461 
L 122.425703 144.871867 
L 123.84085 142.509978 
L 121.042211 140.575815 
L 118.763495 138.395672 
L 117.042064 136.03027 
L 115.892802 133.546599 
L 115.306249 131.016768 
L 113.310682 132.960824 
L 111.31398 134.800883 
L 109.328832 136.529556 
L 107.368089 138.14088 
L 105.444658 139.630325 
z
" style="fill:#f1f1f1;fill-opacity:0.8;stroke:#000000;stroke-opacity:0.8;"/>
    <path clip-path="url(#p2c67848d6d)" d="M 136.832944 103.039915 
L 136.032237 102.228983 
L 135.573802 101.341709 
L 135.43184 100.430444 
L 135.454549 99.743823 
L 135.228033 99.944575 
L 136.455544 97.605556 
L 137.536933 95.383321 
L 138.334171 93.641497 
L 138.828415 92.563552 
L 139.228099 91.755008 
L 139.232942 91.750746 
L 139.079129 92.585921 
L 139.022106 93.658167 
L 139.159939 94.723922 
L 139.513796 95.717778 
L 139.037644 97.063196 
L 138.532534 98.48749 
L 137.996944 99.972435 
L 137.4303 101.497225 
L 136.832944 103.039915 
z
" style="fill:#b6b6b6;fill-opacity:0.8;stroke:#000000;stroke-opacity:0.8;"/>
    <path clip-path="url(#p2c67848d6d)" d="M 124.846748 120.09312 
L 125.140305 122.255181 
L 125.867428 124.352226 
L 127.038645 126.319976 
L 128.642756 128.100561 
L 130.648972 129.642447 
L 131.907042 126.944311 
L 133.116238 124.236091 
L 134.271569 121.531966 
L 135.368692 118.846275 
L 136.403948 116.193408 
L 135.076156 115.019559 
L 134.027413 113.619898 
L 133.281763 112.031549 
L 132.849226 110.29541 
L 132.724877 108.455604 
L 131.330533 110.738559 
L 129.839661 113.062559 
L 128.257508 115.40851 
L 126.590632 117.757913 
L 124.846748 120.09312 
z
" style="fill:#f7f7f7;fill-opacity:0.8;stroke:#000000;stroke-opacity:0.8;"/>
    <path clip-path="url(#p2c67848d6d)" d="M 156.591625 109.218227 
L 156.587506 109.537519 
L 156.281741 109.63426 
L 155.665368 109.541127 
L 154.744698 109.293831 
L 153.53993 108.927691 
L 152.530144 107.386099 
L 151.586688 105.81746 
L 150.711669 104.234514 
L 149.906361 102.650571 
L 149.171192 101.07935 
L 149.916523 101.099186 
L 150.49641 100.977027 
L 150.89961 100.694279 
L 151.124019 100.233798 
L 151.177224 99.582437 
L 152.054667 101.336517 
L 153.031516 103.194242 
L 154.112273 105.139689 
L 155.299052 107.154359 
L 156.591625 109.218227 
z
" style="fill:#888888;fill-opacity:0.8;stroke:#000000;stroke-opacity:0.8;"/>
    <path clip-path="url(#p2c67848d6d)" d="M 96.829965 145.190168 
L 98.037415 148.634057 
L 100.057565 151.994602 
L 102.877753 155.202879 
L 106.464747 158.191239 
L 110.765027 160.895468 
L 111.860709 159.646788 
L 113.026234 158.257718 
L 114.253393 156.729612 
L 115.533699 155.065085 
L 116.858465 153.267984 
L 113.254761 150.930378 
L 110.277444 148.331666 
L 107.971798 145.535848 
L 106.360894 142.611635 
L 105.444658 139.630325 
L 103.571401 140.99479 
L 101.761032 142.232596 
L 100.02601 143.343468 
L 98.37844 144.328509 
L 96.829965 145.190168 
z
" style="fill:#ebebeb;fill-opacity:0.8;stroke:#000000;stroke-opacity:0.8;"/>
    <path clip-path="url(#p2c67848d6d)" d="M 135.228033 99.944575 
L 134.610802 101.158817 
L 133.90659 102.823031 
L 133.30132 104.660063 
L 132.88808 106.55958 
L 132.724877 108.455604 
L 134.018933 106.233009 
L 135.210616 104.089807 
L 136.299679 102.044109 
L 137.287842 100.112349 
L 138.178813 98.308505 
L 138.21179 96.870957 
L 138.383004 95.410706 
L 138.65646 93.980812 
L 138.975492 92.677231 
L 139.228099 91.755008 
L 138.828415 92.563552 
L 138.334171 93.641497 
L 137.536933 95.383321 
L 136.455544 97.605556 
L 135.228033 99.944575 
z
" style="fill:#ffffff;fill-opacity:0.8;stroke:#000000;stroke-opacity:0.8;"/>
    <path clip-path="url(#p2c67848d6d)" d="M 161.418188 120.985544 
L 162.21751 120.463092 
L 163.031222 120.246724 
L 163.760768 120.11978 
L 164.283496 119.922664 
L 164.497742 119.576867 
L 162.745656 117.562066 
L 161.071195 115.501429 
L 159.482766 113.411604 
L 157.987617 111.310734 
L 156.591625 109.218227 
L 156.319774 108.652099 
L 155.816813 107.833554 
L 155.154385 106.802536 
L 154.461498 105.740219 
L 154.010527 105.279137 
L 155.335654 108.438394 
L 156.744609 111.605917 
L 158.232201 114.764211 
L 159.792361 117.896237 
L 161.418188 120.985544 
z
" style="fill:#8a8a8a;fill-opacity:0.8;stroke:#000000;stroke-opacity:0.8;"/>
    <path clip-path="url(#p2c67848d6d)" d="M 132.724877 108.455604 
L 132.849226 110.29541 
L 133.281763 112.031549 
L 134.027413 113.619898 
L 135.076156 115.019559 
L 136.403948 116.193408 
L 137.37438 113.587685 
L 138.277763 111.043247 
L 139.112611 108.573929 
L 139.878191 106.193143 
L 140.574522 103.913751 
L 139.756309 103.103526 
L 139.097557 102.110934 
L 138.612909 100.961418 
L 138.307962 99.683498 
L 138.178813 98.308505 
L 137.287842 100.112349 
L 136.299679 102.044109 
L 135.210616 104.089807 
L 134.018933 106.233009 
L 132.724877 108.455604 
z
" style="fill:#f6f6f6;fill-opacity:0.8;stroke:#000000;stroke-opacity:0.8;"/>
    <path clip-path="url(#p2c67848d6d)" d="M 90.936906 147.821394 
L 92.341903 151.622323 
L 94.642179 155.315298 
L 97.814676 158.832307 
L 101.817932 162.106542 
L 106.592117 165.07416 
L 107.230697 164.503542 
L 107.973262 163.804644 
L 108.814147 162.972582 
L 109.747035 162.003671 
L 110.765027 160.895468 
L 106.464747 158.191239 
L 102.877753 155.202879 
L 100.057565 151.994602 
L 98.037415 148.634057 
L 96.829965 145.190168 
L 95.391667 145.932197 
L 94.073973 146.559597 
L 92.886552 147.078554 
L 91.83823 147.496374 
L 90.936906 147.821394 
z
" style="fill:#e4e4e4;fill-opacity:0.8;stroke:#000000;stroke-opacity:0.8;"/>
    <path clip-path="url(#p2c67848d6d)" d="M 143.882712 99.407302 
L 142.770952 98.828177 
L 141.739439 98.173908 
L 140.829218 97.44079 
L 140.0772 96.623586 
L 139.513796 95.717778 
L 139.963366 94.465648 
L 140.389378 93.316723 
L 140.795203 92.27648 
L 141.184254 91.346667 
L 141.559733 90.526356 
L 141.853617 91.079047 
L 142.228899 91.619372 
L 142.677416 92.126782 
L 143.186127 92.586989 
L 143.738572 92.989708 
L 143.7161 94.153443 
L 143.717803 95.390727 
L 143.745299 96.688134 
L 143.799925 98.031737 
L 143.882712 99.407302 
z
" style="fill:#9a9a9a;fill-opacity:0.8;stroke:#000000;stroke-opacity:0.8;"/>
    <path clip-path="url(#p2c67848d6d)" d="M 149.171192 101.07935 
L 148.28004 100.935722 
L 147.270092 100.684757 
L 146.174592 100.340152 
L 145.031646 99.912174 
L 143.882712 99.407302 
L 143.799925 98.031737 
L 143.745299 96.688134 
L 143.717803 95.390727 
L 143.7161 94.153443 
L 143.738572 92.989708 
L 144.316228 93.32703 
L 144.899766 93.592369 
L 145.470195 93.779878 
L 146.009911 93.884277 
L 146.503617 93.901033 
L 146.910916 95.200741 
L 147.378084 96.58176 
L 147.908732 98.030981 
L 148.505738 99.534812 
L 149.171192 101.07935 
z
" style="fill:#919191;fill-opacity:0.8;stroke:#000000;stroke-opacity:0.8;"/>
    <path clip-path="url(#p2c67848d6d)" d="M 88.837342 148.406558 
L 90.312233 152.346186 
L 92.712179 156.167722 
L 96.010156 159.803032 
L 100.161554 163.185389 
L 105.10417 166.25102 
L 105.164744 166.21054 
L 105.345862 166.082108 
L 105.645935 165.855801 
L 106.062471 165.522536 
L 106.592117 165.07416 
L 101.817932 162.106542 
L 97.814676 158.832307 
L 94.642179 155.315298 
L 92.341903 151.622323 
L 90.936906 147.821394 
L 90.189467 148.062896 
L 89.601725 148.231006 
L 89.178347 148.336584 
L 88.922808 148.39111 
L 88.837342 148.406558 
z
" style="fill:#f5f5f5;fill-opacity:0.8;stroke:#000000;stroke-opacity:0.8;"/>
    <path clip-path="url(#p2c67848d6d)" d="M 139.513796 95.717778 
L 139.159939 94.723922 
L 139.022106 93.658167 
L 139.079129 92.585921 
L 139.232942 91.750746 
L 139.228099 91.755008 
L 139.607488 91.057574 
L 139.982986 90.435185 
L 140.359331 89.877195 
L 140.738155 89.379753 
L 141.120009 88.94134 
L 141.120526 88.940886 
L 141.145978 89.14519 
L 141.215688 89.513304 
L 141.349036 89.990839 
L 141.559733 90.526356 
L 141.184254 91.346667 
L 140.795203 92.27648 
L 140.389378 93.316723 
L 139.963366 94.465648 
L 139.513796 95.717778 
z
" style="fill:#949494;fill-opacity:0.8;stroke:#000000;stroke-opacity:0.8;"/>
    <path clip-path="url(#p2c67848d6d)" d="M 139.228099 91.755008 
L 138.975492 92.677231 
L 138.65646 93.980812 
L 138.383004 95.410706 
L 138.21179 96.870957 
L 138.178813 98.308505 
L 138.978184 96.643415 
L 139.693147 95.12434 
L 140.332078 93.75489 
L 140.904013 92.535341 
L 141.418134 91.463268 
L 141.286543 90.767094 
L 141.204344 90.118204 
L 141.157591 89.564398 
L 141.13252 89.157018 
L 141.120009 88.94134 
L 140.738155 89.379753 
L 140.359331 89.877195 
L 139.982986 90.435185 
L 139.607488 91.057574 
L 139.228099 91.755008 
z
" style="fill:#f7f7f7;fill-opacity:0.8;stroke:#000000;stroke-opacity:0.8;"/>
    <path clip-path="url(#p2c67848d6d)" d="M 138.178813 98.308505 
L 138.307962 99.683498 
L 138.612909 100.961418 
L 139.097557 102.110934 
L 139.756309 103.103526 
L 140.574522 103.913751 
L 141.202373 101.747943 
L 141.763252 99.707117 
L 142.25938 97.801759 
L 142.693666 96.041334 
L 143.069671 94.434189 
L 142.604655 93.99554 
L 142.203113 93.457798 
L 141.871184 92.840012 
L 141.61052 92.165677 
L 141.418134 91.463268 
L 140.904013 92.535341 
L 140.332078 93.75489 
L 139.693147 95.12434 
L 138.978184 96.643415 
L 138.178813 98.308505 
z
" style="fill:#f3f3f3;fill-opacity:0.8;stroke:#000000;stroke-opacity:0.8;"/>
    <path clip-path="url(#p2c67848d6d)" d="M 151.177224 99.582437 
L 151.124019 100.233798 
L 150.89961 100.694279 
L 150.49641 100.977027 
L 149.916523 101.099186 
L 149.171192 101.07935 
L 148.505738 99.534812 
L 147.908732 98.030981 
L 147.378084 96.58176 
L 146.910916 95.200741 
L 146.503617 93.901033 
L 146.939134 93.826898 
L 147.308051 93.660809 
L 147.606225 93.405206 
L 147.834082 93.067851 
L 147.996678 92.664209 
L 148.504039 93.791319 
L 149.065788 95.046269 
L 149.691881 96.430919 
L 150.392466 97.944433 
L 151.177224 99.582437 
z
" style="fill:#858585;fill-opacity:0.8;stroke:#000000;stroke-opacity:0.8;"/>
    <path clip-path="url(#p2c67848d6d)" d="M 136.403948 116.193408 
L 137.973918 117.108874 
L 139.737897 117.7388 
L 141.638246 118.062296 
L 143.610008 118.065569 
L 145.583343 117.742682 
L 145.721391 114.928507 
L 145.834758 112.195289 
L 145.923221 109.557408 
L 145.986813 107.028504 
L 146.025828 104.621302 
L 144.880711 104.959386 
L 143.720926 105.052901 
L 142.590142 104.903785 
L 141.529229 104.519742 
L 140.574522 103.913751 
L 139.878191 106.193143 
L 139.112611 108.573929 
L 138.277763 111.043247 
L 137.37438 113.587685 
L 136.403948 116.193408 
z
" style="fill:#e9e9e9;fill-opacity:0.8;stroke:#000000;stroke-opacity:0.8;"/>
    <path clip-path="url(#p2c67848d6d)" d="M 130.648972 129.642447 
L 133.009056 130.900904 
L 135.659614 131.838793 
L 138.524617 132.427542 
L 141.518227 132.64825 
L 144.548008 132.49292 
L 144.797515 129.504456 
L 145.027101 126.51945 
L 145.235356 123.553661 
L 145.42109 120.622858 
L 145.583343 117.742682 
L 143.610008 118.065569 
L 141.638246 118.062296 
L 139.737897 117.7388 
L 137.973918 117.108874 
L 136.403948 116.193408 
L 135.368692 118.846275 
L 134.271569 121.531966 
L 133.116238 124.236091 
L 131.907042 126.944311 
L 130.648972 129.642447 
z
" style="fill:#e8e8e8;fill-opacity:0.8;stroke:#000000;stroke-opacity:0.8;"/>
    <path clip-path="url(#p2c67848d6d)" d="M 161.755738 141.921615 
L 164.439416 140.207477 
L 166.712323 138.468254 
L 168.623227 136.801725 
L 170.239595 135.271011 
L 168.414101 132.613559 
L 166.609312 129.843878 
L 164.835395 126.973828 
L 163.102 124.016383 
L 161.418188 120.985544 
L 160.630561 121.965702 
L 159.734076 123.371135 
L 158.579818 125.033298 
L 157.070802 126.765997 
L 157.971141 129.879892 
L 158.894557 132.971658 
L 159.836424 136.02132 
L 160.791857 139.010344 
L 161.755738 141.921615 
z
" style="fill:#b2b2b2;fill-opacity:0.8;stroke:#000000;stroke-opacity:0.8;"/>
    <path clip-path="url(#p2c67848d6d)" d="M 154.010527 105.279137 
L 154.461498 105.740219 
L 155.154385 106.802536 
L 155.816813 107.833554 
L 156.319774 108.652099 
L 156.591625 109.218227 
L 155.299052 107.154359 
L 154.112273 105.139689 
L 153.031516 103.194242 
L 152.054667 101.336517 
L 151.177224 99.582437 
L 151.076977 98.735074 
L 150.85225 97.702606 
L 150.547386 96.53366 
L 150.240165 95.393612 
L 150.092695 94.817486 
L 150.449798 95.733421 
L 150.800652 96.698478 
L 151.627897 99.056878 
L 152.773502 102.145964 
L 154.010527 105.279137 
z
" style="fill:#808080;fill-opacity:0.8;stroke:#000000;stroke-opacity:0.8;"/>
    <path clip-path="url(#p2c67848d6d)" d="M 157.070802 126.765997 
L 158.579818 125.033298 
L 159.734076 123.371135 
L 160.630561 121.965702 
L 161.418188 120.985544 
L 159.792361 117.896237 
L 158.232201 114.764211 
L 156.744609 111.605917 
L 155.335654 108.438394 
L 154.010527 105.279137 
L 153.976346 106.185142 
L 153.961978 107.898802 
L 153.679511 109.80327 
L 153.054388 111.667108 
L 153.781728 114.540679 
L 154.549931 117.513631 
L 155.356376 120.559154 
L 156.197877 123.651429 
L 157.070802 126.765997 
z
" style="fill:#b1b1b1;fill-opacity:0.8;stroke:#000000;stroke-opacity:0.8;"/>
    <path clip-path="url(#p2c67848d6d)" d="M 140.574522 103.913751 
L 141.529229 104.519742 
L 142.590142 104.903785 
L 143.720926 105.052901 
L 144.880711 104.959386 
L 146.025828 104.621302 
L 146.040814 102.347447 
L 146.032567 100.217331 
L 146.002124 98.239952 
L 145.95074 96.422785 
L 145.879872 94.771711 
L 145.310574 94.964671 
L 144.725964 95.028175 
L 144.145548 94.959004 
L 143.587905 94.758897 
L 143.069671 94.434189 
L 142.693666 96.041334 
L 142.25938 97.801759 
L 141.763252 99.707117 
L 141.202373 101.747943 
L 140.574522 103.913751 
z
" style="fill:#e9e9e9;fill-opacity:0.8;stroke:#000000;stroke-opacity:0.8;"/>
    <path clip-path="url(#p2c67848d6d)" d="M 143.738572 92.989708 
L 143.186127 92.586989 
L 142.677416 92.126782 
L 142.228899 91.619372 
L 141.853617 91.079047 
L 141.559733 90.526356 
L 141.924473 89.813026 
L 142.280874 89.203464 
L 142.630908 88.694387 
L 142.97616 88.282837 
L 143.317892 87.966381 
L 143.441595 88.10894 
L 143.588473 88.259639 
L 143.756252 88.410974 
L 143.94186 88.556035 
L 144.141544 88.688744 
L 144.029904 89.311753 
L 143.931346 90.062818 
L 143.848364 90.932971 
L 143.783354 91.912252 
L 143.738572 92.989708 
z
" style="fill:#8f8f8f;fill-opacity:0.8;stroke:#000000;stroke-opacity:0.8;"/>
    <path clip-path="url(#p2c67848d6d)" d="M 146.503617 93.901033 
L 146.009911 93.884277 
L 145.470195 93.779878 
L 144.899766 93.592369 
L 144.316228 93.32703 
L 143.738572 92.989708 
L 143.783354 91.912252 
L 143.848364 90.932971 
L 143.931346 90.062818 
L 144.029904 89.311753 
L 144.141544 88.688744 
L 144.351041 88.804019 
L 144.565789 88.897862 
L 144.781148 88.967435 
L 144.99262 89.011115 
L 145.196045 89.028551 
L 145.378945 89.752011 
L 145.595173 90.610293 
L 145.850885 91.594589 
L 146.151901 92.695093 
L 146.503617 93.901033 
z
" style="fill:#8c8c8c;fill-opacity:0.8;stroke:#000000;stroke-opacity:0.8;"/>
    <path clip-path="url(#p2c67848d6d)" d="M 166.510529 154.81141 
L 170.443165 152.943944 
L 173.884934 150.90597 
L 176.832614 148.759444 
L 179.295628 146.5474 
L 177.531603 144.584717 
L 175.732523 142.469788 
L 173.909908 140.20785 
L 172.075186 137.805571 
L 170.239595 135.271011 
L 168.623227 136.801725 
L 166.712323 138.468254 
L 164.439416 140.207477 
L 161.755738 141.921615 
L 162.722749 144.739421 
L 163.687401 147.449457 
L 164.644073 150.038843 
L 165.587042 152.496146 
L 166.510529 154.81141 
z
" style="fill:#b7b7b7;fill-opacity:0.8;stroke:#000000;stroke-opacity:0.8;"/>
    <path clip-path="url(#p2c67848d6d)" d="M 145.583343 117.742682 
L 147.486247 117.096255 
L 149.247552 116.138107 
L 150.800206 114.889943 
L 152.084907 113.384372 
L 153.054388 111.667108 
L 152.369814 108.919951 
L 151.728969 106.325124 
L 151.131644 103.905472 
L 150.576265 101.678448 
L 150.059858 99.654043 
L 149.59923 101.010146 
L 148.9356 102.21557 
L 148.094982 103.235041 
L 147.111715 104.042908 
L 146.025828 104.621302 
L 145.986813 107.028504 
L 145.923221 109.557408 
L 145.834758 112.195289 
L 145.721391 114.928507 
L 145.583343 117.742682 
z
" style="fill:#dbdbdb;fill-opacity:0.8;stroke:#000000;stroke-opacity:0.8;"/>
    <path clip-path="url(#p2c67848d6d)" d="M 141.559733 90.526356 
L 141.349036 89.990839 
L 141.215688 89.513304 
L 141.145978 89.14519 
L 141.120526 88.940886 
L 141.120009 88.94134 
L 141.504989 88.561374 
L 141.892975 88.239685 
L 142.283728 87.976291 
L 142.676945 87.771286 
L 143.072279 87.624782 
L 143.072313 87.624752 
L 143.096278 87.662983 
L 143.144934 87.736349 
L 143.218793 87.839692 
L 143.317892 87.966381 
L 142.97616 88.282837 
L 142.630908 88.694387 
L 142.280874 89.203464 
L 141.924473 89.813026 
L 141.559733 90.526356 
z
" style="fill:#8a8a8a;fill-opacity:0.8;stroke:#000000;stroke-opacity:0.8;"/>
    <path clip-path="url(#p2c67848d6d)" d="M 141.120009 88.94134 
L 141.13252 89.157018 
L 141.157591 89.564398 
L 141.204344 90.118204 
L 141.286543 90.767094 
L 141.418134 91.463268 
L 141.883315 90.534348 
L 142.307806 89.743167 
L 142.699056 89.083917 
L 143.06366 88.550932 
L 143.407401 88.139039 
L 143.297333 87.984469 
L 143.208369 87.848861 
L 143.140915 87.739883 
L 143.095377 87.663775 
L 143.072279 87.624782 
L 142.676945 87.771286 
L 142.283728 87.976291 
L 141.892975 88.239685 
L 141.504989 88.561374 
L 141.120009 88.94134 
z
" style="fill:#ededed;fill-opacity:0.8;stroke:#000000;stroke-opacity:0.8;"/>
    <path clip-path="url(#p2c67848d6d)" d="M 141.418134 91.463268 
L 141.61052 92.165677 
L 141.871184 92.840012 
L 142.203113 93.457798 
L 142.604655 93.99554 
L 143.069671 94.434189 
L 143.391552 92.987469 
L 143.664016 91.707058 
L 143.892251 90.597545 
L 144.081859 89.662209 
L 144.238793 88.903043 
L 144.040961 88.777438 
L 143.856518 88.631254 
L 143.688177 88.470947 
L 143.537992 88.304091 
L 143.407401 88.139039 
L 143.06366 88.550932 
L 142.699056 89.083917 
L 142.307806 89.743167 
L 141.883315 90.534348 
L 141.418134 91.463268 
z
" style="fill:#ededed;fill-opacity:0.8;stroke:#000000;stroke-opacity:0.8;"/>
    <path clip-path="url(#p2c67848d6d)" d="M 144.548008 132.49292 
L 147.518623 131.965837 
L 150.336146 131.085216 
L 152.913244 129.885354 
L 155.175659 128.41975 
L 157.070802 126.765997 
L 156.197877 123.651429 
L 155.356376 120.559154 
L 154.549931 117.513631 
L 153.781728 114.540679 
L 153.054388 111.667108 
L 152.084907 113.384372 
L 150.800206 114.889943 
L 149.247552 116.138107 
L 147.486247 117.096255 
L 145.583343 117.742682 
L 145.42109 120.622858 
L 145.235356 123.553661 
L 145.027101 126.51945 
L 144.797515 129.504456 
L 144.548008 132.49292 
z
" style="fill:#d5d5d5;fill-opacity:0.8;stroke:#000000;stroke-opacity:0.8;"/>
    <path clip-path="url(#p2c67848d6d)" d="M 123.84085 142.509978 
L 127.101853 144.144829 
L 130.750039 145.435602 
L 134.69547 146.347359 
L 138.83669 146.856365 
L 143.06444 146.951553 
L 143.385782 144.173364 
L 143.697018 141.324196 
L 143.995868 138.417974 
L 144.280191 135.469216 
L 144.548008 132.49292 
L 141.518227 132.64825 
L 138.524617 132.427542 
L 135.659614 131.838793 
L 133.009056 130.900904 
L 130.648972 129.642447 
L 129.347635 132.316584 
L 128.00921 134.953182 
L 126.640406 137.53917 
L 125.248414 140.062049 
L 123.84085 142.509978 
z
" style="fill:#e7e7e7;fill-opacity:0.8;stroke:#000000;stroke-opacity:0.8;"/>
    <path clip-path="url(#p2c67848d6d)" d="M 153.054388 111.667108 
L 153.679511 109.80327 
L 153.961978 107.898802 
L 153.976346 106.185142 
L 154.010527 105.279137 
L 152.773502 102.145964 
L 151.627897 99.056878 
L 150.800652 96.698478 
L 150.449798 95.733421 
L 150.092695 94.817486 
L 150.205537 95.424708 
L 150.335308 96.72451 
L 150.303417 98.197568 
L 150.059858 99.654043 
L 150.576265 101.678448 
L 151.131644 103.905472 
L 151.728969 106.325124 
L 152.369814 108.919951 
L 153.054388 111.667108 
z
" style="fill:#cdcdcd;fill-opacity:0.8;stroke:#000000;stroke-opacity:0.8;"/>
    <path clip-path="url(#p2c67848d6d)" d="M 146.025828 104.621302 
L 147.111715 104.042908 
L 148.094982 103.235041 
L 148.9356 102.21557 
L 149.59923 101.010146 
L 150.059858 99.654043 
L 149.578254 97.833829 
L 149.126519 96.211613 
L 148.699495 94.775499 
L 148.29228 93.510541 
L 147.900553 92.401133 
L 147.647784 92.975303 
L 147.311478 93.534016 
L 146.896784 94.038158 
L 146.414559 94.457956 
L 145.879872 94.771711 
L 145.95074 96.422785 
L 146.002124 98.239952 
L 146.032567 100.217331 
L 146.040814 102.347447 
L 146.025828 104.621302 
z
" style="fill:#e2e2e2;fill-opacity:0.8;stroke:#000000;stroke-opacity:0.8;"/>
    <path clip-path="url(#p2c67848d6d)" d="M 143.069671 94.434189 
L 143.587905 94.758897 
L 144.145548 94.959004 
L 144.725964 95.028175 
L 145.310574 94.964671 
L 145.879872 94.771711 
L 145.791146 93.290978 
L 145.686333 91.983246 
L 145.567314 90.849673 
L 145.436049 89.890068 
L 145.29455 89.103082 
L 145.089188 89.122958 
L 144.876329 89.113827 
L 144.660616 89.073854 
L 144.446653 89.003007 
L 144.238793 88.903043 
L 144.081859 89.662209 
L 143.892251 90.597545 
L 143.664016 91.707058 
L 143.391552 92.987469 
L 143.069671 94.434189 
z
" style="fill:#e8e8e8;fill-opacity:0.8;stroke:#000000;stroke-opacity:0.8;"/>
    <path clip-path="url(#p2c67848d6d)" d="M 147.996678 92.664209 
L 147.834082 93.067851 
L 147.606225 93.405206 
L 147.308051 93.660809 
L 146.939134 93.826898 
L 146.503617 93.901033 
L 146.151901 92.695093 
L 145.850885 91.594589 
L 145.595173 90.610293 
L 145.378945 89.752011 
L 145.196045 89.028551 
L 145.387757 89.020714 
L 145.564698 88.989943 
L 145.724465 88.939938 
L 145.865301 88.875695 
L 145.986017 88.80333 
L 146.340493 89.353308 
L 146.713051 90.010371 
L 147.108961 90.778274 
L 147.534423 91.661345 
L 147.996678 92.664209 
z
" style="fill:#858585;fill-opacity:0.8;stroke:#000000;stroke-opacity:0.8;"/>
    <path clip-path="url(#p2c67848d6d)" d="M 150.092695 94.817486 
L 150.240165 95.393612 
L 150.547386 96.53366 
L 150.85225 97.702606 
L 151.076977 98.735074 
L 151.177224 99.582437 
L 150.392466 97.944433 
L 149.691881 96.430919 
L 149.065788 95.046269 
L 148.504039 93.791319 
L 147.996678 92.664209 
L 148.103406 92.220352 
L 148.167101 91.7758 
L 148.202076 91.384458 
L 148.220507 91.109648 
L 148.227369 91.009114 
L 148.609715 91.664965 
L 148.987834 92.374561 
L 149.361311 93.137101 
L 149.729733 93.951717 
L 150.092695 94.817486 
z
" style="fill:#808080;fill-opacity:0.8;stroke:#000000;stroke-opacity:0.8;"/>
    <path clip-path="url(#p2c67848d6d)" d="M 143.317892 87.966381 
L 143.218793 87.839692 
L 143.144934 87.736349 
L 143.096278 87.662983 
L 143.072313 87.624752 
L 143.072279 87.624782 
L 143.46936 87.536881 
L 143.8678 87.507653 
L 144.267198 87.537131 
L 144.667148 87.625297 
L 144.667148 87.625297 
L 144.667148 87.625297 
L 144.667148 87.625297 
L 144.667148 87.625297 
L 144.331108 87.572804 
L 143.994624 87.612178 
L 143.657109 87.743211 
L 143.317892 87.966381 
z
" style="fill:#858585;fill-opacity:0.8;stroke:#000000;stroke-opacity:0.8;"/>
    <path clip-path="url(#p2c67848d6d)" d="M 143.072279 87.624782 
L 143.095377 87.663775 
L 143.140915 87.739883 
L 143.208369 87.848861 
L 143.297333 87.984469 
L 143.407401 88.139039 
L 143.735342 87.843766 
L 144.051968 87.661454 
L 144.361319 87.589288 
L 144.667148 87.625297 
L 144.667148 87.625297 
L 144.667148 87.625297 
L 144.667148 87.625297 
L 144.667148 87.625297 
L 144.667148 87.625297 
L 144.267198 87.537131 
L 143.8678 87.507653 
L 143.46936 87.536881 
L 143.072279 87.624782 
z
" style="fill:#e9e9e9;fill-opacity:0.8;stroke:#000000;stroke-opacity:0.8;"/>
    <path clip-path="url(#p2c67848d6d)" d="M 144.141544 88.688744 
L 143.94186 88.556035 
L 143.756252 88.410974 
L 143.588473 88.259639 
L 143.441595 88.10894 
L 143.317892 87.966381 
L 143.657109 87.743211 
L 143.994624 87.612178 
L 144.331108 87.572804 
L 144.667148 87.625297 
L 144.667148 87.625297 
L 144.667148 87.625297 
L 144.667148 87.625297 
L 144.667148 87.625297 
L 144.667148 87.625297 
L 144.529134 87.664045 
L 144.393774 87.858119 
L 144.263702 88.201814 
L 144.141544 88.688744 
z
" style="fill:#878787;fill-opacity:0.8;stroke:#000000;stroke-opacity:0.8;"/>
    <path clip-path="url(#p2c67848d6d)" d="M 143.407401 88.139039 
L 143.537992 88.304091 
L 143.688177 88.470947 
L 143.856518 88.631254 
L 144.040961 88.777438 
L 144.238793 88.903043 
L 144.369278 88.320787 
L 144.479755 87.914984 
L 144.576816 87.684044 
L 144.667148 87.625297 
L 144.667148 87.625297 
L 144.667148 87.625297 
L 144.667148 87.625297 
L 144.667148 87.625297 
L 144.667148 87.625297 
L 144.361319 87.589288 
L 144.051968 87.661454 
L 143.735342 87.843766 
L 143.407401 88.139039 
z
" style="fill:#e9e9e9;fill-opacity:0.8;stroke:#000000;stroke-opacity:0.8;"/>
    <path clip-path="url(#p2c67848d6d)" d="M 145.879872 94.771711 
L 146.414559 94.457956 
L 146.896784 94.038158 
L 147.311478 93.534016 
L 147.647784 92.975303 
L 147.900553 92.401133 
L 147.520703 91.432641 
L 147.14983 90.592274 
L 146.785665 89.869344 
L 146.426458 89.255203 
L 146.070871 88.743009 
L 145.9591 88.827127 
L 145.823308 88.912821 
L 145.66536 88.992186 
L 145.487958 89.057771 
L 145.29455 89.103082 
L 145.436049 89.890068 
L 145.567314 90.849673 
L 145.686333 91.983246 
L 145.791146 93.290978 
L 145.879872 94.771711 
z
" style="fill:#e7e7e7;fill-opacity:0.8;stroke:#000000;stroke-opacity:0.8;"/>
    <path clip-path="url(#p2c67848d6d)" d="M 145.196045 89.028551 
L 144.99262 89.011115 
L 144.781148 88.967435 
L 144.565789 88.897862 
L 144.351041 88.804019 
L 144.141544 88.688744 
L 144.263702 88.201814 
L 144.393774 87.858119 
L 144.529134 87.664045 
L 144.667148 87.625297 
L 144.667148 87.625297 
L 144.667148 87.625297 
L 144.667148 87.625297 
L 144.667148 87.625297 
L 144.667148 87.625297 
L 144.782362 87.740575 
L 144.904406 88.016421 
L 145.040063 88.447733 
L 145.196045 89.028551 
z
" style="fill:#878787;fill-opacity:0.8;stroke:#000000;stroke-opacity:0.8;"/>
    <path clip-path="url(#p2c67848d6d)" d="M 144.238793 88.903043 
L 144.446653 89.003007 
L 144.660616 89.073854 
L 144.876329 89.113827 
L 145.089188 89.122958 
L 145.29455 89.103082 
L 145.144856 88.486419 
L 144.989021 88.03704 
L 144.8291 87.751344 
L 144.667148 87.625297 
L 144.667148 87.625297 
L 144.667148 87.625297 
L 144.667148 87.625297 
L 144.667148 87.625297 
L 144.667148 87.625297 
L 144.576816 87.684044 
L 144.479755 87.914984 
L 144.369278 88.320787 
L 144.238793 88.903043 
z
" style="fill:#e8e8e8;fill-opacity:0.8;stroke:#000000;stroke-opacity:0.8;"/>
    <path clip-path="url(#p2c67848d6d)" d="M 150.059858 99.654043 
L 150.303417 98.197568 
L 150.335308 96.72451 
L 150.205537 95.424708 
L 150.092695 94.817486 
L 149.729733 93.951717 
L 149.361311 93.137101 
L 148.987834 92.374561 
L 148.609715 91.664965 
L 148.227369 91.009114 
L 148.216453 91.113256 
L 148.171348 91.411812 
L 148.071756 91.860721 
L 147.900553 92.401133 
L 148.29228 93.510541 
L 148.699495 94.775499 
L 149.126519 96.211613 
L 149.578254 97.833829 
L 150.059858 99.654043 
z
" style="fill:#e2e2e2;fill-opacity:0.8;stroke:#000000;stroke-opacity:0.8;"/>
    <path clip-path="url(#p2c67848d6d)" d="M 145.986017 88.80333 
L 145.865301 88.875695 
L 145.724465 88.939938 
L 145.564698 88.989943 
L 145.387757 89.020714 
L 145.196045 89.028551 
L 145.040063 88.447733 
L 144.904406 88.016421 
L 144.782362 87.740575 
L 144.667148 87.625297 
L 144.667148 87.625297 
L 144.667148 87.625297 
L 144.667148 87.625297 
L 144.667148 87.625297 
L 144.667148 87.625297 
L 144.988988 87.769452 
L 145.31393 88.013263 
L 145.645125 88.3574 
L 145.986017 88.80333 
z
" style="fill:#858585;fill-opacity:0.8;stroke:#000000;stroke-opacity:0.8;"/>
    <path clip-path="url(#p2c67848d6d)" d="M 145.29455 89.103082 
L 145.487958 89.057771 
L 145.66536 88.992186 
L 145.823308 88.912821 
L 145.9591 88.827127 
L 146.070871 88.743009 
L 145.717875 88.32745 
L 145.366667 88.004486 
L 145.016606 87.771135 
L 144.667148 87.625297 
L 144.667148 87.625297 
L 144.667148 87.625297 
L 144.667148 87.625297 
L 144.667148 87.625297 
L 144.667148 87.625297 
L 144.8291 87.751344 
L 144.989021 88.03704 
L 145.144856 88.486419 
L 145.29455 89.103082 
z
" style="fill:#e8e8e8;fill-opacity:0.8;stroke:#000000;stroke-opacity:0.8;"/>
    <path clip-path="url(#p2c67848d6d)" d="M 146.26721 88.559638 
L 146.255549 88.572083 
L 146.221054 88.60769 
L 146.164336 88.662229 
L 146.085857 88.729759 
L 145.986017 88.80333 
L 145.645125 88.3574 
L 145.31393 88.013263 
L 144.988988 87.769452 
L 144.667148 87.625297 
L 144.667148 87.625297 
L 144.667148 87.625297 
L 144.667148 87.625297 
L 144.667148 87.625297 
L 144.667148 87.625297 
L 145.068059 87.772087 
L 145.468669 87.976887 
L 145.868533 88.239494 
L 146.26721 88.559638 
z
" style="fill:#858585;fill-opacity:0.8;stroke:#000000;stroke-opacity:0.8;"/>
    <path clip-path="url(#p2c67848d6d)" d="M 148.227369 91.009114 
L 148.220507 91.109648 
L 148.202076 91.384458 
L 148.167101 91.7758 
L 148.103406 92.220352 
L 147.996678 92.664209 
L 147.534423 91.661345 
L 147.108961 90.778274 
L 146.713051 90.010371 
L 146.340493 89.353308 
L 145.986017 88.80333 
L 146.085857 88.729759 
L 146.164336 88.662229 
L 146.221054 88.60769 
L 146.255549 88.572083 
L 146.26721 88.559638 
L 146.664256 88.936977 
L 147.059232 89.371103 
L 147.451698 89.861541 
L 147.841222 90.407748 
L 148.227369 91.009114 
z
" style="fill:#848484;fill-opacity:0.8;stroke:#000000;stroke-opacity:0.8;"/>
    <path clip-path="url(#p2c67848d6d)" d="M 146.070871 88.743009 
L 146.157586 88.668197 
L 146.218958 88.609544 
L 146.255279 88.572321 
L 146.26721 88.559638 
L 145.868533 88.239494 
L 145.468669 87.976887 
L 145.068059 87.772087 
L 144.667148 87.625297 
L 144.667148 87.625297 
L 144.667148 87.625297 
L 144.667148 87.625297 
L 144.667148 87.625297 
L 145.016606 87.771135 
L 145.366667 88.004486 
L 145.717875 88.32745 
L 146.070871 88.743009 
z
" style="fill:#e7e7e7;fill-opacity:0.8;stroke:#000000;stroke-opacity:0.8;"/>
    <path clip-path="url(#p2c67848d6d)" d="M 147.900553 92.401133 
L 148.071756 91.860721 
L 148.171348 91.411812 
L 148.216453 91.113256 
L 148.227369 91.009114 
L 147.841222 90.407748 
L 147.451698 89.861541 
L 147.059232 89.371103 
L 146.664256 88.936977 
L 146.26721 88.559638 
L 146.255279 88.572321 
L 146.218958 88.609544 
L 146.157586 88.668197 
L 146.070871 88.743009 
L 146.426458 89.255203 
L 146.785665 89.869344 
L 147.14983 90.592274 
L 147.520703 91.432641 
L 147.900553 92.401133 
z
" style="fill:#e7e7e7;fill-opacity:0.8;stroke:#000000;stroke-opacity:0.8;"/>
    <path clip-path="url(#p2c67848d6d)" d="M 170.634983 164.01616 
L 175.674713 161.91027 
L 180.144029 159.504413 
L 183.994692 156.851015 
L 187.191854 153.997368 
L 185.772665 152.82262 
L 184.262692 151.491709 
L 182.672509 150.002429 
L 181.013074 148.354065 
L 179.295628 146.5474 
L 176.832614 148.759444 
L 173.884934 150.90597 
L 170.443165 152.943944 
L 166.510529 154.81141 
L 167.408739 156.976191 
L 168.275909 158.983587 
L 169.106351 160.82827 
L 169.894504 162.506502 
L 170.634983 164.01616 
z
" style="fill:#bdbdbd;fill-opacity:0.8;stroke:#000000;stroke-opacity:0.8;"/>
    <path clip-path="url(#p2c67848d6d)" d="M 143.06444 146.951553 
L 147.26601 146.636096 
L 151.3304 145.929065 
L 155.154547 144.867134 
L 158.650805 143.506101 
L 161.755738 141.921615 
L 160.791857 139.010344 
L 159.836424 136.02132 
L 158.894557 132.971658 
L 157.971141 129.879892 
L 157.070802 126.765997 
L 155.175659 128.41975 
L 152.913244 129.885354 
L 150.336146 131.085216 
L 147.518623 131.965837 
L 144.548008 132.49292 
L 144.280191 135.469216 
L 143.995868 138.417974 
L 143.697018 141.324196 
L 143.385782 144.173364 
L 143.06444 146.951553 
z
" style="fill:#d2d2d2;fill-opacity:0.8;stroke:#000000;stroke-opacity:0.8;"/>
    <path clip-path="url(#p2c67848d6d)" d="M 116.858465 153.267984 
L 121.022786 155.286992 
L 125.663738 156.938047 
L 130.68183 158.181483 
L 135.965258 158.988823 
L 141.393636 159.34422 
L 141.727615 157.102246 
L 142.064362 154.731946 
L 142.401177 152.242845 
L 142.735402 149.645528 
L 143.06444 146.951553 
L 138.83669 146.856365 
L 134.69547 146.347359 
L 130.750039 145.435602 
L 127.101853 144.144829 
L 123.84085 142.509978 
L 122.425703 144.871867 
L 121.011269 147.137461 
L 119.606089 149.297412 
L 118.21888 151.343358 
L 116.858465 153.267984 
z
" style="fill:#e4e4e4;fill-opacity:0.8;stroke:#000000;stroke-opacity:0.8;"/>
    <path clip-path="url(#p2c67848d6d)" d="M 173.452395 169.073856 
L 179.256167 166.753892 
L 184.431257 164.049747 
L 188.8986 161.01485 
L 192.594592 157.7057 
L 191.767974 157.229107 
L 190.806708 156.628365 
L 189.718068 155.894461 
L 188.510163 155.019618 
L 187.191854 153.997368 
L 183.994692 156.851015 
L 180.144029 159.504413 
L 175.674713 161.91027 
L 170.634983 164.01616 
L 171.322629 165.356733 
L 171.952558 166.529321 
L 172.520214 167.536616 
L 173.021414 168.382872 
L 173.452395 169.073856 
z
" style="fill:#c2c2c2;fill-opacity:0.8;stroke:#000000;stroke-opacity:0.8;"/>
    <path clip-path="url(#p2c67848d6d)" d="M 141.393636 159.34422 
L 146.842371 159.245796 
L 152.18779 158.706748 
L 157.313082 157.756018 
L 162.114957 156.438117 
L 166.510529 154.81141 
L 165.587042 152.496146 
L 164.644073 150.038843 
L 163.687401 147.449457 
L 162.722749 144.739421 
L 161.755738 141.921615 
L 158.650805 143.506101 
L 155.154547 144.867134 
L 151.3304 145.929065 
L 147.26601 146.636096 
L 143.06444 146.951553 
L 142.735402 149.645528 
L 142.401177 152.242845 
L 142.064362 154.731946 
L 141.727615 157.102246 
L 141.393636 159.34422 
z
" style="fill:#d1d1d1;fill-opacity:0.8;stroke:#000000;stroke-opacity:0.8;"/>
    <path clip-path="url(#p2c67848d6d)" d="M 174.456754 170.498448 
L 180.533955 168.089333 
L 185.961027 165.268102 
L 190.647885 162.090057 
L 194.520857 158.616118 
L 194.442414 158.58875 
L 194.207899 158.49729 
L 193.819414 158.328122 
L 193.2802 158.068304 
L 192.594592 157.7057 
L 188.8986 161.01485 
L 184.431257 164.049747 
L 179.256167 166.753892 
L 173.452395 169.073856 
L 173.809856 169.616785 
L 174.090998 170.020256 
L 174.29356 170.294146 
L 174.415847 170.449508 
L 174.456754 170.498448 
z
" style="fill:#c2c2c2;fill-opacity:0.8;stroke:#000000;stroke-opacity:0.8;"/>
    <path clip-path="url(#p2c67848d6d)" d="M 110.765027 160.895468 
L 115.705866 163.256732 
L 121.197047 165.22335 
L 127.133126 166.752431 
L 133.396248 167.811358 
L 139.859493 168.379086 
L 140.139435 166.879549 
L 140.435393 165.222394 
L 140.744834 163.410841 
L 141.06514 161.449479 
L 141.393636 159.34422 
L 135.965258 158.988823 
L 130.68183 158.181483 
L 125.663738 156.938047 
L 121.022786 155.286992 
L 116.858465 153.267984 
L 115.533699 155.065085 
L 114.253393 156.729612 
L 113.026234 158.257718 
L 111.860709 159.646788 
L 110.765027 160.895468 
z
" style="fill:#e0e0e0;fill-opacity:0.8;stroke:#000000;stroke-opacity:0.8;"/>
    <path clip-path="url(#p2c67848d6d)" d="M 139.859493 168.379086 
L 146.390786 168.447179 
L 152.857349 168.020483 
L 159.130622 167.117247 
L 165.091437 165.768472 
L 170.634983 164.01616 
L 169.894504 162.506502 
L 169.106351 160.82827 
L 168.275909 158.983587 
L 167.408739 156.976191 
L 166.510529 154.81141 
L 162.114957 156.438117 
L 157.313082 157.756018 
L 152.18779 158.706748 
L 146.842371 159.245796 
L 141.393636 159.34422 
L 141.06514 161.449479 
L 140.744834 163.410841 
L 140.435393 165.222394 
L 140.139435 166.879549 
L 139.859493 168.379086 
z
" style="fill:#d1d1d1;fill-opacity:0.8;stroke:#000000;stroke-opacity:0.8;"/>
    <path clip-path="url(#p2c67848d6d)" d="M 106.592117 165.07416 
L 112.059694 167.676029 
L 118.126672 169.859405 
L 124.684446 171.579497 
L 131.612184 172.800867 
L 138.779726 173.498598 
L 138.946242 172.786004 
L 139.139324 171.920905 
L 139.357225 170.899449 
L 139.597992 169.719186 
L 139.859493 168.379086 
L 133.396248 167.811358 
L 127.133126 166.752431 
L 121.197047 165.22335 
L 115.705866 163.256732 
L 110.765027 160.895468 
L 109.747035 162.003671 
L 108.814147 162.972582 
L 107.973262 163.804644 
L 107.230697 164.503542 
L 106.592117 165.07416 
z
" style="fill:#dddddd;fill-opacity:0.8;stroke:#000000;stroke-opacity:0.8;"/>
    <path clip-path="url(#p2c67848d6d)" d="M 105.10417 166.25102 
L 110.758735 168.940701 
L 117.02999 171.201349 
L 123.808352 172.987536 
L 130.972121 174.262834 
L 138.39019 175.000948 
L 138.406082 174.9475 
L 138.453592 174.78 
L 138.532248 174.488445 
L 138.641301 174.063902 
L 138.779726 173.498598 
L 131.612184 172.800867 
L 124.684446 171.579497 
L 118.126672 169.859405 
L 112.059694 167.676029 
L 106.592117 165.07416 
L 106.062471 165.522536 
L 105.645935 165.855801 
L 105.345862 166.082108 
L 105.164744 166.21054 
L 105.10417 166.25102 
z
" style="fill:#e8e8e8;fill-opacity:0.8;stroke:#000000;stroke-opacity:0.8;"/>
    <path clip-path="url(#p2c67848d6d)" d="M 138.779726 173.498598 
L 146.05094 173.659169 
L 153.287416 173.28096 
L 160.352384 172.374324 
L 167.114666 170.961146 
L 173.452395 169.073856 
L 173.021414 168.382872 
L 172.520214 167.536616 
L 171.952558 166.529321 
L 171.322629 165.356733 
L 170.634983 164.01616 
L 165.091437 165.768472 
L 159.130622 167.117247 
L 152.857349 168.020483 
L 146.390786 168.447179 
L 139.859493 168.379086 
L 139.597992 169.719186 
L 139.357225 170.899449 
L 139.139324 171.920905 
L 138.946242 172.786004 
L 138.779726 173.498598 
z
" style="fill:#d1d1d1;fill-opacity:0.8;stroke:#000000;stroke-opacity:0.8;"/>
    <path clip-path="url(#p2c67848d6d)" d="M 138.39019 175.000948 
L 145.925148 175.186552 
L 153.436663 174.815776 
L 160.784989 173.896342 
L 167.834452 172.447306 
L 174.456754 170.498448 
L 174.415847 170.449508 
L 174.29356 170.294146 
L 174.090998 170.020256 
L 173.809856 169.616785 
L 173.452395 169.073856 
L 167.114666 170.961146 
L 160.352384 172.374324 
L 153.287416 173.28096 
L 146.05094 173.659169 
L 138.779726 173.498598 
L 138.641301 174.063902 
L 138.532248 174.488445 
L 138.453592 174.78 
L 138.406082 174.9475 
L 138.39019 175.000948 
z
" style="fill:#cecece;fill-opacity:0.8;stroke:#000000;stroke-opacity:0.8;"/>
   </g>
  </g>
 </g>
 <defs>
  <clipPath id="p2c67848d6d">
   <rect height="229.650630408" width="208.38312" x="37.6596" y="31.033868974"/>
  </clipPath>
 </defs>
</svg>
