<?xml version="1.0" encoding="utf-8" standalone="no"?>
<!DOCTYPE svg PUBLIC "-//W3C//DTD SVG 1.1//EN"
  "http://www.w3.org/Graphics/SVG/1.1/DTD/svg11.dtd">
<!-- Created with matplotlib (http://matplotlib.org/) -->
<svg height="155pt" version="1.1" viewBox="0 0 83 155" width="83pt" xmlns="http://www.w3.org/2000/svg" xmlns:xlink="http://www.w3.org/1999/xlink">
 <defs>
  <style type="text/css">
*{stroke-linecap:butt;stroke-linejoin:round;stroke-miterlimit:100000;}
  </style>
 </defs>
 <g id="figure_1">
  <g id="patch_1">
   <path d="M 0 155.169345 
L 83.688 155.169345 
L 83.688 0 
L 0 0 
z
" style="fill:#ffffff;"/>
  </g>
  <g id="axes_1">
   <g id="patch_2">
    <path d="M 18.41136 144.307491 
L 75.3192 144.307491 
L 75.3192 4.65508 
L 18.41136 4.65508 
z
" style="fill:#ffffff;"/>
   </g>
   <g id="line2d_1">
    <path clip-path="url(#p3a3e95433e)" d="M 18.525176 143.571441 
L 19.098853 140.528617 
L 19.67253 138.297181 
L 20.246207 136.614763 
L 20.819884 135.324691 
L 21.393561 134.326682 
L 21.967238 133.55305 
L 22.540915 132.956123 
L 23.114592 132.501104 
L 23.688269 132.161866 
L 24.261946 131.918281 
L 24.835623 131.754476 
L 25.4093 131.657726 
L 25.982977 131.617633 
L 26.556654 131.625557 
L 27.130331 131.674258 
L 27.704008 131.757569 
L 28.277685 131.870199 
L 28.851362 132.007558 
L 29.425039 132.165652 
L 29.998716 132.340969 
L 30.572393 132.530424 
L 31.14607 132.731291 
L 31.719747 132.941153 
L 32.293424 133.157878 
L 32.867101 133.379576 
L 33.440778 133.604583 
L 34.014455 133.831434 
L 34.588132 134.058847 
L 35.161809 134.285701 
L 35.735486 134.511028 
L 36.309163 134.734 
L 36.88284 134.953908 
L 37.456517 135.170153 
L 38.030194 135.38225 
L 38.603871 135.589793 
L 39.177548 135.792469 
L 39.751225 135.990029 
L 40.324902 136.182296 
L 40.898579 136.369146 
L 41.472256 136.550508 
L 42.045933 136.726353 
L 42.61961 136.896694 
L 43.193287 137.061568 
L 43.766964 137.221046 
L 44.340641 137.375218 
L 44.914318 137.524195 
L 45.487995 137.668099 
L 46.061672 137.807066 
L 46.635349 137.941238 
L 47.209026 138.070767 
L 47.782703 138.195806 
L 48.35638 138.316515 
L 48.930057 138.433048 
L 49.503734 138.545563 
L 50.077411 138.654216 
L 50.651088 138.759158 
L 51.224765 138.860538 
L 51.798442 138.958502 
L 52.372119 139.053196 
L 52.945796 139.144752 
L 53.519473 139.233302 
L 54.093151 139.318977 
L 54.666828 139.401898 
L 55.240505 139.48218 
L 55.814182 139.559938 
L 56.387859 139.635278 
L 56.961536 139.708301 
L 57.535213 139.77911 
L 58.10889 139.847795 
L 58.682567 139.914444 
L 59.256244 139.979146 
L 59.829921 140.041978 
L 60.403598 140.103018 
L 60.977275 140.162341 
L 61.550952 140.220011 
L 62.124629 140.276102 
L 62.698306 140.330673 
L 63.271983 140.383779 
L 63.84566 140.435486 
L 64.419337 140.485844 
L 64.993014 140.534904 
L 65.566691 140.582712 
L 66.140368 140.629321 
L 66.714045 140.674772 
L 67.287722 140.719108 
L 67.861399 140.762371 
L 68.435076 140.804601 
L 69.008753 140.845827 
L 69.58243 140.886092 
L 70.156107 140.925426 
L 70.729784 140.963857 
L 71.303461 141.001426 
L 71.877138 141.038152 
L 72.450815 141.074069 
L 73.024492 141.109201 
L 73.598169 141.143576 
L 74.171846 141.177215 
L 74.745523 141.210141 
L 75.3192 141.24238 
" style="fill:none;stroke:#5f9ea0;stroke-linecap:square;"/>
   </g>
   <g id="line2d_2">
    <path clip-path="url(#p3a3e95433e)" d="M 18.525176 142.690134 
L 19.098853 135.743325 
L 19.67253 130.25412 
L 20.246207 125.743812 
L 20.819884 121.928446 
L 21.393561 118.62769 
L 21.967238 115.720889 
L 22.540915 113.124002 
L 23.114592 110.776548 
L 23.688269 108.633846 
L 24.261946 106.66217 
L 24.835623 104.8356 
L 25.4093 103.13391 
L 25.982977 101.541114 
L 26.556654 100.044431 
L 27.130331 98.633555 
L 27.704008 97.300102 
L 28.277685 96.037181 
L 28.851362 94.839096 
L 29.425039 93.701098 
L 29.998716 92.619199 
L 30.572393 91.590002 
L 31.14607 90.610608 
L 31.719747 89.678493 
L 32.293424 88.791444 
L 32.867101 87.94749 
L 33.440778 87.14485 
L 34.014455 86.381899 
L 34.588132 85.657112 
L 35.161809 84.96907 
L 35.735486 84.316412 
L 36.309163 83.697835 
L 36.88284 83.112066 
L 37.456517 82.557866 
L 38.030194 82.034024 
L 38.603871 81.539335 
L 39.177548 81.07263 
L 39.751225 80.632739 
L 40.324902 80.218512 
L 40.898579 79.828818 
L 41.472256 79.462544 
L 42.045933 79.11859 
L 42.61961 78.795888 
L 43.193287 78.493382 
L 43.766964 78.210054 
L 44.340641 77.944901 
L 44.914318 77.696957 
L 45.487995 77.465287 
L 46.061672 77.248978 
L 46.635349 77.047163 
L 47.209026 76.858998 
L 47.782703 76.68368 
L 48.35638 76.520437 
L 48.930057 76.368533 
L 49.503734 76.227265 
L 50.077411 76.095962 
L 50.651088 75.973992 
L 51.224765 75.860747 
L 51.798442 75.755665 
L 52.372119 75.658201 
L 52.945796 75.567848 
L 53.519473 75.484122 
L 54.093151 75.406574 
L 54.666828 75.334781 
L 55.240505 75.268337 
L 55.814182 75.206873 
L 56.387859 75.150033 
L 56.961536 75.097492 
L 57.535213 75.048941 
L 58.10889 75.004091 
L 58.682567 74.962671 
L 59.256244 74.924438 
L 59.829921 74.889151 
L 60.403598 74.856597 
L 60.977275 74.826573 
L 61.550952 74.798883 
L 62.124629 74.773361 
L 62.698306 74.74984 
L 63.271983 74.728164 
L 63.84566 74.708201 
L 64.419337 74.689817 
L 64.993014 74.67289 
L 65.566691 74.657309 
L 66.140368 74.642969 
L 66.714045 74.629771 
L 67.287722 74.617632 
L 67.861399 74.606468 
L 68.435076 74.5962 
L 69.008753 74.586759 
L 69.58243 74.578084 
L 70.156107 74.57011 
L 70.729784 74.562781 
L 71.303461 74.556047 
L 71.877138 74.549861 
L 72.450815 74.544181 
L 73.024492 74.538962 
L 73.598169 74.534174 
L 74.171846 74.529774 
L 74.745523 74.525734 
L 75.3192 74.52203 
" style="fill:none;stroke:#b22222;stroke-linecap:square;"/>
   </g>
   <g id="line2d_3">
    <path clip-path="url(#p3a3e95433e)" d="M 18.525176 142.472933 
L 19.098853 134.627324 
L 19.67253 128.477052 
L 20.246207 123.466455 
L 20.819884 119.266147 
L 21.393561 115.666983 
L 21.967238 112.529 
L 22.540915 109.754631 
L 23.114592 107.273575 
L 23.688269 105.033763 
L 24.261946 102.995776 
L 24.835623 101.129177 
L 25.4093 99.410084 
L 25.982977 97.819487 
L 26.556654 96.34204 
L 27.130331 94.965253 
L 27.704008 93.678824 
L 28.277685 92.474168 
L 28.851362 91.34408 
L 29.425039 90.282456 
L 29.998716 89.284055 
L 30.572393 88.344363 
L 31.14607 87.459436 
L 31.719747 86.625801 
L 32.293424 85.840365 
L 32.867101 85.100358 
L 33.440778 84.403259 
L 34.014455 83.746767 
L 34.588132 83.128754 
L 35.161809 82.547242 
L 35.735486 82.000371 
L 36.309163 81.486396 
L 36.88284 81.003646 
L 37.456517 80.550546 
L 38.030194 80.125582 
L 38.603871 79.727301 
L 39.177548 79.354312 
L 39.751225 79.005276 
L 40.324902 78.678904 
L 40.898579 78.373962 
L 41.472256 78.089256 
L 42.045933 77.823644 
L 42.61961 77.576028 
L 43.193287 77.345355 
L 43.766964 77.130617 
L 44.340641 76.930854 
L 44.914318 76.745143 
L 45.487995 76.572612 
L 46.061672 76.412421 
L 46.635349 76.263782 
L 47.209026 76.125943 
L 47.782703 75.998191 
L 48.35638 75.879855 
L 48.930057 75.770297 
L 49.503734 75.668918 
L 50.077411 75.575155 
L 50.651088 75.488476 
L 51.224765 75.408382 
L 51.798442 75.334405 
L 52.372119 75.26611 
L 52.945796 75.203082 
L 53.519473 75.144939 
L 54.093151 75.091323 
L 54.666828 75.041901 
L 55.240505 74.996358 
L 55.814182 74.954407 
L 56.387859 74.915772 
L 56.961536 74.880206 
L 57.535213 74.847476 
L 58.10889 74.81736 
L 58.682567 74.789659 
L 59.256244 74.764189 
L 59.829921 74.740774 
L 60.403598 74.719253 
L 60.977275 74.699482 
L 61.550952 74.681314 
L 62.124629 74.664634 
L 62.698306 74.649314 
L 63.271983 74.635249 
L 63.84566 74.622344 
L 64.419337 74.6105 
L 64.993014 74.599634 
L 65.566691 74.589666 
L 66.140368 74.580524 
L 66.714045 74.57214 
L 67.287722 74.564454 
L 67.861399 74.55741 
L 68.435076 74.550953 
L 69.008753 74.545035 
L 69.58243 74.539617 
L 70.156107 74.534652 
L 70.729784 74.530102 
L 71.303461 74.525937 
L 71.877138 74.522119 
L 72.450815 74.518629 
L 73.024492 74.515431 
L 73.598169 74.512506 
L 74.171846 74.509828 
L 74.745523 74.507373 
L 75.3192 74.505131 
" style="fill:none;stroke:#b22222;stroke-linecap:square;"/>
   </g>
   <g id="line2d_4">
    <path clip-path="url(#p3a3e95433e)" d="M 18.525176 5.391159 
L 19.098853 8.433957 
L 19.67253 10.665386 
L 20.246207 12.347809 
L 20.819884 13.63789 
L 21.393561 14.635898 
L 21.967238 15.40953 
L 22.540915 16.00646 
L 23.114592 16.461476 
L 23.688269 16.800716 
L 24.261946 17.044304 
L 24.835623 17.208108 
L 25.4093 17.304858 
L 25.982977 17.344956 
L 26.556654 17.337029 
L 27.130331 17.288329 
L 27.704008 17.205017 
L 28.277685 17.092391 
L 28.851362 16.955031 
L 29.425039 16.796937 
L 29.998716 16.621618 
L 30.572393 16.432162 
L 31.14607 16.231299 
L 31.719747 16.021434 
L 32.293424 15.804711 
L 32.867101 15.583014 
L 33.440778 15.358006 
L 34.014455 15.131153 
L 34.588132 14.903739 
L 35.161809 14.676886 
L 35.735486 14.451556 
L 36.309163 14.228585 
L 36.88284 14.008679 
L 37.456517 13.79243 
L 38.030194 13.580334 
L 38.603871 13.37279 
L 39.177548 13.170116 
L 39.751225 12.972555 
L 40.324902 12.78029 
L 40.898579 12.593438 
L 41.472256 12.412077 
L 42.045933 12.23623 
L 42.61961 12.06589 
L 43.193287 11.901014 
L 43.766964 11.741536 
L 44.340641 11.587363 
L 44.914318 11.438386 
L 45.487995 11.294484 
L 46.061672 11.155518 
L 46.635349 11.021346 
L 47.209026 10.891816 
L 47.782703 10.766775 
L 48.35638 10.646067 
L 48.930057 10.529534 
L 49.503734 10.41702 
L 50.077411 10.308367 
L 50.651088 10.203425 
L 51.224765 10.102044 
L 51.798442 10.004077 
L 52.372119 9.909385 
L 52.945796 9.817831 
L 53.519473 9.729279 
L 54.093151 9.643605 
L 54.666828 9.560686 
L 55.240505 9.480404 
L 55.814182 9.402646 
L 56.387859 9.327307 
L 56.961536 9.254282 
L 57.535213 9.183474 
L 58.10889 9.11479 
L 58.682567 9.048139 
L 59.256244 8.98344 
L 59.829921 8.920607 
L 60.403598 8.859567 
L 60.977275 8.800248 
L 61.550952 8.742573 
L 62.124629 8.686484 
L 62.698306 8.631916 
L 63.271983 8.578806 
L 63.84566 8.527101 
L 64.419337 8.476746 
L 64.993014 8.427688 
L 65.566691 8.379874 
L 66.140368 8.333265 
L 66.714045 8.287814 
L 67.287722 8.243476 
L 67.861399 8.200212 
L 68.435076 8.15799 
L 69.008753 8.116762 
L 69.58243 8.076497 
L 70.156107 8.037164 
L 70.729784 7.998727 
L 71.303461 7.961162 
L 71.877138 7.924435 
L 72.450815 7.888518 
L 73.024492 7.853387 
L 73.598169 7.819014 
L 74.171846 7.785376 
L 74.745523 7.752448 
L 75.3192 7.720209 
" style="fill:none;stroke:#5f9ea0;stroke-linecap:square;"/>
   </g>
   <g id="line2d_5">
    <path clip-path="url(#p3a3e95433e)" d="M 18.525176 6.272438 
L 19.098853 13.219255 
L 19.67253 18.708456 
L 20.246207 23.21878 
L 20.819884 27.034146 
L 21.393561 30.334904 
L 21.967238 33.241713 
L 22.540915 35.838602 
L 23.114592 38.186056 
L 23.688269 40.328765 
L 24.261946 42.300441 
L 24.835623 44.127015 
L 25.4093 45.828709 
L 25.982977 47.421509 
L 26.556654 48.918187 
L 27.130331 50.329062 
L 27.704008 51.662517 
L 28.277685 52.925442 
L 28.851362 54.123526 
L 29.425039 55.261525 
L 29.998716 56.343426 
L 30.572393 57.372622 
L 31.14607 58.352021 
L 31.719747 59.284131 
L 32.293424 60.171181 
L 32.867101 61.015138 
L 33.440778 61.817777 
L 34.014455 62.58073 
L 34.588132 63.305513 
L 35.161809 63.993555 
L 35.735486 64.646212 
L 36.309163 65.264788 
L 36.88284 65.850558 
L 37.456517 66.404756 
L 38.030194 66.928601 
L 38.603871 67.423285 
L 39.177548 67.889992 
L 39.751225 68.329884 
L 40.324902 68.74411 
L 40.898579 69.133803 
L 41.472256 69.500078 
L 42.045933 69.84403 
L 42.61961 70.166733 
L 43.193287 70.469235 
L 43.766964 70.752564 
L 44.340641 71.017715 
L 44.914318 71.265657 
L 45.487995 71.497331 
L 46.061672 71.713637 
L 46.635349 71.915451 
L 47.209026 72.103615 
L 47.782703 72.278933 
L 48.35638 72.442174 
L 48.930057 72.594078 
L 49.503734 72.735347 
L 50.077411 72.866649 
L 50.651088 72.988618 
L 51.224765 73.101859 
L 51.798442 73.206942 
L 52.372119 73.304405 
L 52.945796 73.39476 
L 53.519473 73.478485 
L 54.093151 73.556032 
L 54.666828 73.627826 
L 55.240505 73.694269 
L 55.814182 73.755734 
L 56.387859 73.812573 
L 56.961536 73.865115 
L 57.535213 73.913666 
L 58.10889 73.958516 
L 58.682567 73.999932 
L 59.256244 74.038166 
L 59.829921 74.07345 
L 60.403598 74.106005 
L 60.977275 74.136034 
L 61.550952 74.163719 
L 62.124629 74.189241 
L 62.698306 74.212762 
L 63.271983 74.234435 
L 63.84566 74.254398 
L 64.419337 74.272783 
L 64.993014 74.289712 
L 65.566691 74.305293 
L 66.140368 74.319633 
L 66.714045 74.332828 
L 67.287722 74.344967 
L 67.861399 74.356131 
L 68.435076 74.366399 
L 69.008753 74.375838 
L 69.58243 74.384515 
L 70.156107 74.392491 
L 70.729784 74.399819 
L 71.303461 74.406552 
L 71.877138 74.412738 
L 72.450815 74.41842 
L 73.024492 74.423636 
L 73.598169 74.428427 
L 74.171846 74.432825 
L 74.745523 74.436863 
L 75.3192 74.440568 
" style="fill:none;stroke:#b22222;stroke-linecap:square;"/>
   </g>
   <g id="line2d_6">
    <path clip-path="url(#p3a3e95433e)" d="M 18.525176 6.489654 
L 19.098853 14.335243 
L 19.67253 20.485522 
L 20.246207 25.496127 
L 20.819884 29.696439 
L 21.393561 33.29561 
L 21.967238 36.433604 
L 22.540915 39.207967 
L 23.114592 41.689023 
L 23.688269 43.928844 
L 24.261946 45.966828 
L 24.835623 47.833427 
L 25.4093 49.552525 
L 25.982977 51.143132 
L 26.556654 52.620566 
L 27.130331 53.997355 
L 27.704008 55.283789 
L 28.277685 56.488444 
L 28.851362 57.618531 
L 29.425039 58.680156 
L 29.998716 59.678554 
L 30.572393 60.618247 
L 31.14607 61.503178 
L 31.719747 62.336811 
L 32.293424 63.122246 
L 32.867101 63.862256 
L 33.440778 64.559352 
L 34.014455 65.215841 
L 34.588132 65.833853 
L 35.161809 66.415366 
L 35.735486 66.962234 
L 36.309163 67.476214 
L 36.88284 67.958958 
L 37.456517 68.412057 
L 38.030194 68.837024 
L 38.603871 69.235306 
L 39.177548 69.608296 
L 39.751225 69.957331 
L 40.324902 70.283701 
L 40.898579 70.588644 
L 41.472256 70.873349 
L 42.045933 71.13896 
L 42.61961 71.386575 
L 43.193287 71.617247 
L 43.766964 71.831984 
L 44.340641 72.031748 
L 44.914318 72.217456 
L 45.487995 72.389993 
L 46.061672 72.550179 
L 46.635349 72.698818 
L 47.209026 72.836657 
L 47.782703 72.964409 
L 48.35638 73.082746 
L 48.930057 73.192302 
L 49.503734 73.29368 
L 50.077411 73.387443 
L 50.651088 73.47412 
L 51.224765 73.554214 
L 51.798442 73.628189 
L 52.372119 73.696486 
L 52.945796 73.759513 
L 53.519473 73.817656 
L 54.093151 73.87127 
L 54.666828 73.920693 
L 55.240505 73.966236 
L 55.814182 74.008189 
L 56.387859 74.046822 
L 56.961536 74.082389 
L 57.535213 74.115121 
L 58.10889 74.145234 
L 58.682567 74.172933 
L 59.256244 74.198404 
L 59.829921 74.221819 
L 60.403598 74.243338 
L 60.977275 74.263113 
L 61.550952 74.281276 
L 62.124629 74.297959 
L 62.698306 74.313276 
L 63.271983 74.327339 
L 63.84566 74.340247 
L 64.419337 74.35209 
L 64.993014 74.362957 
L 65.566691 74.372924 
L 66.140368 74.382066 
L 66.714045 74.39045 
L 67.287722 74.398134 
L 67.861399 74.405178 
L 68.435076 74.411637 
L 69.008753 74.417553 
L 69.58243 74.422973 
L 70.156107 74.427941 
L 70.729784 74.432487 
L 71.303461 74.436654 
L 71.877138 74.440468 
L 72.450815 74.443961 
L 73.024492 74.447156 
L 73.598169 74.450084 
L 74.171846 74.452763 
L 74.745523 74.455214 
L 75.3192 74.457456 
" style="fill:none;stroke:#b22222;stroke-linecap:square;"/>
   </g>
   <g id="line2d_7"/>
   <g id="line2d_8"/>
   <g id="patch_3">
    <path d="M 75.3192 144.307491 
L 75.3192 4.65508 
" style="fill:none;stroke:#000000;stroke-linecap:square;stroke-linejoin:miter;"/>
   </g>
   <g id="patch_4">
    <path d="M 18.41136 144.307491 
L 18.41136 4.65508 
" style="fill:none;stroke:#000000;stroke-linecap:square;stroke-linejoin:miter;"/>
   </g>
   <g id="patch_5">
    <path d="M 18.41136 144.307491 
L 75.3192 144.307491 
" style="fill:none;stroke:#000000;stroke-linecap:square;stroke-linejoin:miter;"/>
   </g>
   <g id="patch_6">
    <path d="M 18.41136 4.65508 
L 75.3192 4.65508 
" style="fill:none;stroke:#000000;stroke-linecap:square;stroke-linejoin:miter;"/>
   </g>
   <g id="matplotlib.axis_1">
    <g id="xtick_1">
     <g id="line2d_9">
      <defs>
       <path d="M 0 0 
L 0 -4 
" id="mc4ba71a3e1" style="stroke:#000000;stroke-width:0.5;"/>
      </defs>
      <g>
       <use style="stroke:#000000;stroke-width:0.5;" x="18.41136" xlink:href="#mc4ba71a3e1" y="144.307490729"/>
      </g>
     </g>
     <g id="line2d_10">
      <defs>
       <path d="M 0 0 
L 0 4 
" id="m7386de5278" style="stroke:#000000;stroke-width:0.5;"/>
      </defs>
      <g>
       <use style="stroke:#000000;stroke-width:0.5;" x="18.41136" xlink:href="#m7386de5278" y="4.65508034611"/>
      </g>
     </g>
     <g id="text_1">
      <text style="font-family:Bitstream Vera Sans;font-size:6.0px;font-style:normal;font-weight:400;text-anchor:middle;" transform="rotate(-0.000000, 18.411360, 152.866553)" x="18.41136" y="152.866553229">0</text>
     </g>
    </g>
    <g id="xtick_2">
     <g id="line2d_11">
      <g>
       <use style="stroke:#000000;stroke-width:0.5;" x="29.792928" xlink:href="#mc4ba71a3e1" y="144.307490729"/>
      </g>
     </g>
     <g id="line2d_12">
      <g>
       <use style="stroke:#000000;stroke-width:0.5;" x="29.792928" xlink:href="#m7386de5278" y="4.65508034611"/>
      </g>
     </g>
     <g id="text_2">
      <text style="font-family:Bitstream Vera Sans;font-size:6.0px;font-style:normal;font-weight:400;text-anchor:middle;" transform="rotate(-0.000000, 29.792928, 152.866553)" x="29.792928" y="152.866553229">1</text>
     </g>
    </g>
    <g id="xtick_3">
     <g id="line2d_13">
      <g>
       <use style="stroke:#000000;stroke-width:0.5;" x="41.174496" xlink:href="#mc4ba71a3e1" y="144.307490729"/>
      </g>
     </g>
     <g id="line2d_14">
      <g>
       <use style="stroke:#000000;stroke-width:0.5;" x="41.174496" xlink:href="#m7386de5278" y="4.65508034611"/>
      </g>
     </g>
     <g id="text_3">
      <text style="font-family:Bitstream Vera Sans;font-size:6.0px;font-style:normal;font-weight:400;text-anchor:middle;" transform="rotate(-0.000000, 41.174496, 152.866553)" x="41.174496" y="152.866553229">2</text>
     </g>
    </g>
    <g id="xtick_4">
     <g id="line2d_15">
      <g>
       <use style="stroke:#000000;stroke-width:0.5;" x="52.556064" xlink:href="#mc4ba71a3e1" y="144.307490729"/>
      </g>
     </g>
     <g id="line2d_16">
      <g>
       <use style="stroke:#000000;stroke-width:0.5;" x="52.556064" xlink:href="#m7386de5278" y="4.65508034611"/>
      </g>
     </g>
     <g id="text_4">
      <text style="font-family:Bitstream Vera Sans;font-size:6.0px;font-style:normal;font-weight:400;text-anchor:middle;" transform="rotate(-0.000000, 52.556064, 152.866553)" x="52.556064" y="152.866553229">3</text>
     </g>
    </g>
    <g id="xtick_5">
     <g id="line2d_17">
      <g>
       <use style="stroke:#000000;stroke-width:0.5;" x="63.937632" xlink:href="#mc4ba71a3e1" y="144.307490729"/>
      </g>
     </g>
     <g id="line2d_18">
      <g>
       <use style="stroke:#000000;stroke-width:0.5;" x="63.937632" xlink:href="#m7386de5278" y="4.65508034611"/>
      </g>
     </g>
     <g id="text_5">
      <text style="font-family:Bitstream Vera Sans;font-size:6.0px;font-style:normal;font-weight:400;text-anchor:middle;" transform="rotate(-0.000000, 63.937632, 152.866553)" x="63.937632" y="152.866553229">4</text>
     </g>
    </g>
    <g id="xtick_6">
     <g id="line2d_19">
      <g>
       <use style="stroke:#000000;stroke-width:0.5;" x="75.3192" xlink:href="#mc4ba71a3e1" y="144.307490729"/>
      </g>
     </g>
     <g id="line2d_20">
      <g>
       <use style="stroke:#000000;stroke-width:0.5;" x="75.3192" xlink:href="#m7386de5278" y="4.65508034611"/>
      </g>
     </g>
     <g id="text_6">
      <text style="font-family:Bitstream Vera Sans;font-size:6.0px;font-style:normal;font-weight:400;text-anchor:middle;" transform="rotate(-0.000000, 75.319200, 152.866553)" x="75.3192" y="152.866553229">5</text>
     </g>
    </g>
   </g>
   <g id="matplotlib.axis_2">
    <g id="ytick_1">
     <g id="line2d_21">
      <defs>
       <path d="M 0 0 
L 4 0 
" id="m5eb29bcbc8" style="stroke:#000000;stroke-width:0.5;"/>
      </defs>
      <g>
       <use style="stroke:#000000;stroke-width:0.5;" x="18.41136" xlink:href="#m5eb29bcbc8" y="144.307490729"/>
      </g>
     </g>
     <g id="line2d_22">
      <defs>
       <path d="M 0 0 
L -4 0 
" id="mf8d6611054" style="stroke:#000000;stroke-width:0.5;"/>
      </defs>
      <g>
       <use style="stroke:#000000;stroke-width:0.5;" x="75.3192" xlink:href="#mf8d6611054" y="144.307490729"/>
      </g>
     </g>
     <g id="text_7">
      <text style="font-family:Bitstream Vera Sans;font-size:6.0px;font-style:normal;font-weight:400;text-anchor:end;" transform="rotate(-0.000000, 14.411360, 145.963116)" x="14.41136" y="145.963115729">−1</text>
     </g>
    </g>
    <g id="ytick_2">
     <g id="line2d_23">
      <g>
       <use style="stroke:#000000;stroke-width:0.5;" x="18.41136" xlink:href="#m5eb29bcbc8" y="74.4812855377"/>
      </g>
     </g>
     <g id="line2d_24">
      <g>
       <use style="stroke:#000000;stroke-width:0.5;" x="75.3192" xlink:href="#mf8d6611054" y="74.4812855377"/>
      </g>
     </g>
     <g id="text_8">
      <text style="font-family:Bitstream Vera Sans;font-size:6.0px;font-style:normal;font-weight:400;text-anchor:end;" transform="rotate(-0.000000, 14.411360, 76.136911)" x="14.41136" y="76.1369105377">0</text>
     </g>
    </g>
    <g id="ytick_3">
     <g id="line2d_25">
      <g>
       <use style="stroke:#000000;stroke-width:0.5;" x="18.41136" xlink:href="#m5eb29bcbc8" y="4.65508034611"/>
      </g>
     </g>
     <g id="line2d_26">
      <g>
       <use style="stroke:#000000;stroke-width:0.5;" x="75.3192" xlink:href="#mf8d6611054" y="4.65508034611"/>
      </g>
     </g>
     <g id="text_9">
      <text style="font-family:Bitstream Vera Sans;font-size:6.0px;font-style:normal;font-weight:400;text-anchor:end;" transform="rotate(-0.000000, 14.411360, 6.310705)" x="14.41136" y="6.31070534611">1</text>
     </g>
    </g>
   </g>
  </g>
  <g id="text_10">
   <g id="patch_7">
    <path d="M 20.08512 25.872015 
L 30.18512 25.872015 
L 30.18512 11.472015 
L 20.08512 11.472015 
z
" style="fill:#ffffff;opacity:0.5;stroke:#ffffff;stroke-linejoin:miter;"/>
   </g>
   <!-- $\frac{dE}{d\phi}$ -->
   <g transform="translate(20.08512 20.1720148331)">
    <text>
     <tspan style="font-family:cmmi10;font-size:7.0px;font-style:regular;font-weight:regular;" x="0.0 0.0 3.6401367187499996 3.6401367187499996" y="-4.143750000000001 3.9140624999999982 -4.143750000000001 3.9140624999999982">ddEÁ</tspan>
    </text>
    <rect height="0.625" width="8.8046875" x="0.0" y="-2.567187500000001"/>
   </g>
  </g>
  <g id="text_11">
   <g id="patch_8">
    <path d="M 62.766 141.732098 
L 67.266 141.732098 
L 67.266 132.053973 
L 62.766 132.053973 
z
" style="fill:#ffffff;opacity:0.5;stroke:#ffffff;stroke-linejoin:miter;"/>
   </g>
   <!-- $q$ -->
   <g transform="translate(62.766 139.652410383)">
    <text>
     <tspan style="font-family:cmmi10;font-size:10.0px;font-style:regular;font-weight:regular;" x="0.0" y="-0.578125">q</tspan>
    </text>
   </g>
  </g>
 </g>
 <defs>
  <clipPath id="p3a3e95433e">
   <rect height="139.652410383" width="56.90784" x="18.41136" y="4.65508034611"/>
  </clipPath>
 </defs>
</svg>
